<svg width="112" height="120" viewBox="0 0 112 120" fill="none" xmlns="http://www.w3.org/2000/svg"><path d="m49.72 45.923-5.505-9.69 5.505-9.69h10.974l5.506 9.69-5.506 9.69H49.72Z" fill="#E83030" stroke="#141A1F" stroke-width="2.771"/><path d="m49.72 69.367-5.505-9.69 5.505-9.689h10.974l5.506 9.69-5.506 9.69H49.72Z" fill="#6B91C7" stroke="#141A1F" stroke-width="2.771"/><path d="m49.72 22.477-5.505-9.689 5.505-9.69h10.974l5.506 9.69-5.506 9.69H49.72Z" fill="#F9C31F" stroke="#141A1F" stroke-width="2.771"/><path d="m70.06 57.644-5.506-9.69 5.506-9.69h10.974l5.506 9.69-5.506 9.69H70.06Z" fill="#795AA5" stroke="#141A1F" stroke-width="2.771"/><path d="m70.06 34.2-5.506-9.69 5.506-9.69h10.974l5.506 9.69-5.506 9.69H70.06Z" fill="#F17423" stroke="#141A1F" stroke-width="2.771"/><path d="m29.357 57.644-5.506-9.69 5.506-9.69h10.974l5.506 9.69-5.506 9.69H29.357Z" fill="#97C639" stroke="#141A1F" stroke-width="2.771"/><path d="m29.357 34.2-5.506-9.69 5.506-9.69h10.974l5.506 9.69-5.506 9.69H29.357Z" fill="#C9DB70" stroke="#141A1F" stroke-width="2.771"/><path d="M10.784 95.947c1.026.007 2.048.125 3.05.35.95.205 1.752.574 2.533.965v3.018a26.322 26.322 0 0 0-2.648-.819c-.891-.204-1.696-.35-2.589-.35s-1.752.146-2.647.41c-.895.264-1.64.759-2.387 1.459-.69.7-1.238 1.578-1.696 2.688-.404 1.109-.603 2.483-.603 4.147 0 1.148.143 2.295.49 3.328.31.961.798 1.853 1.437 2.629.633.759 1.438 1.314 2.303 1.721.95.409 2.042.612 3.279.612.89 0 1.752-.057 2.732-.262a22.74 22.74 0 0 0 2.647-.819v3.038c-.258.145-.603.35-1.006.497-.403.148-.891.262-1.438.41-.49.145-1.006.204-1.64.262l-1.695.145c-1.44.02-2.871-.217-4.23-.7a11.403 11.403 0 0 1-3.482-2.073A10.11 10.11 0 0 1 .89 113.01C.326 111.551 0 109.911 0 107.899c0-1.46.143-2.774.49-3.941.258-1.147.69-2.218 1.238-3.098.548-.88 1.13-1.665 1.84-2.296.682-.6 1.435-1.111 2.243-1.519.805-.409 1.64-.7 2.446-.904l2.532-.234-.005.04Zm11.422-4.556V87.3h3.58v4.09h-3.58Zm.056 27.427V96.561h3.58v22.274l-3.58-.017Zm10.963.019v-33.93h3.58v33.928l-3.58.002ZM44.11 91.391V87.3h3.58v4.09h-3.58Zm.057 27.427V96.561h3.58v22.274l-3.58-.017Zm19.498.574a13.281 13.281 0 0 1-3.05-.351 10.53 10.53 0 0 1-2.388-1.021c-.69-.497-1.294-.964-1.752-1.664a6.451 6.451 0 0 1-1.13-2.074c-.202-.574-.346-1.147-.49-1.869l-.144-2.219v-13.61h3.58v13.61c0 1.257.143 2.296.49 3.099.345.964.95 1.664 1.752 2.219.803.555 1.9.819 3.136.819 1.353 0 2.446-.262 3.278-.905.807-.612 1.438-1.373 1.753-2.423.258-.76.403-1.722.403-2.832v-13.62h3.58v13.67c0 .694-.047 1.387-.143 2.074a6.998 6.998 0 0 1-.403 1.781c-.258.759-.69 1.459-1.13 2.132-.49.613-1.094 1.148-1.753 1.665-.69.497-1.496.818-2.446 1.109a11.862 11.862 0 0 1-3.135.41h-.008Zm33.606-.574h-3.58v-14.33a8.89 8.89 0 0 0-.345-2.483c-.202-.7-.49-1.256-.892-1.664a4.049 4.049 0 0 0-1.437-.964c-.565-.204-1.13-.262-1.841-.262-1.294 0-2.446.35-3.482 1.022a10.563 10.563 0 0 0-2.789 2.892v15.831h-3.567V96.561h2.789l.69 3.1h.056l1.295-1.46c.49-.41 1.006-.819 1.554-1.148a6.142 6.142 0 0 1 1.9-.76c.69-.204 1.437-.262 2.26-.262 1.64 0 2.993.41 4.086 1.148 1.093.819 1.899 1.87 2.532 3.243h.056c.95-1.374 2.102-2.483 3.336-3.243 1.234-.76 2.732-1.148 4.345-1.148.748 0 1.554.146 2.446.35.891.205 1.639.613 2.387 1.148.748.536 1.294 1.374 1.752 2.424.49 1.021.748 2.337.748 4.002v14.926h-3.452V104.54a8.872 8.872 0 0 0-.345-2.483c-.201-.7-.489-1.257-.891-1.664a4.045 4.045 0 0 0-1.437-.964c-.566-.205-1.131-.262-1.841-.262-1.295 0-2.446.35-3.482 1.021-1.007.7-1.986 1.664-2.85 2.892l-.001 15.738Z" fill="#141A1F"/></svg>