<?xml version="1.0" encoding="UTF-8" standalone="no"?>
<!-- Generator: Adobe Illustrator 17.0.2, SVG Export Plug-In . SVG Version: 6.00 Build 0)  -->
<!DOCTYPE svg  PUBLIC '-//W3C//DTD SVG 1.1//EN'  'http://www.w3.org/Graphics/SVG/1.1/DTD/svg11.dtd'>
<svg xmlns="http://www.w3.org/2000/svg" xml:space="preserve" height="400px" width="400px" version="1.1" y="0px" x="0px" xmlns:xlink="http://www.w3.org/1999/xlink" viewBox="0 0 400 400" enable-background="new 0 0 400 400">
<g id="BK" display="none">
	<rect height="4060" width="5100" y="-580" x="-4600" display="inline" fill="#fff"/>
</g>
<g id="Comp">
	<g id="_x36_1">
		<path d="m237.25 228.29c5.179 0 9.377 4.198 9.377 9.373 0 5.182-4.198 9.377-9.377 9.377-5.175 0-9.373-4.195-9.373-9.377 0-5.17 4.2-9.37 9.37-9.37zm52.67-28.3h-78.766l-113.48-74.984 4.703-11.338 85.476 17.551 0.254-64.803 43.551 50.526 70.793-76.946 10.516 6.241-34.411 101.43 103.69-29.983c-31.45-69.306-101.31-117.63-182.25-117.63-110.27-0.001-199.99 89.719-199.99 200 0 60.146 26.688 114.18 68.846 150.87v-38.185c0-10.358 8.393-18.747 18.75-18.747 10.354 0 18.75 8.393 18.75 18.747v63.995c4.085 2.173 8.252 4.212 12.499 6.103v-70.098c0-10.358 8.393-18.747 18.747-18.747 10.358 0 18.75 8.393 18.75 18.747v82.513c4.124 0.921 8.29 1.718 12.503 2.381v-84.89c0-10.358 8.396-18.747 18.75-18.747s18.747 8.393 18.747 18.747v87.018c0 0.067-0.007 0.127-0.007 0.198 4.198-0.134 8.372-0.395 12.506-0.787v-161.44c0-10.354 8.393-18.747 18.747-18.747s18.75 8.396 18.75 18.747v154.23c82.93-24.39 143.65-101.18 143.65-191.91 0-23.054-3.934-45.202-11.144-65.829l-98.94 65.77z" fill="#DD4814"/>
	</g>
</g>
</svg>
