<svg width="157" height="50" viewBox="0 0 157 50" fill="none" xmlns="http://www.w3.org/2000/svg">
<path d="M57.1683 17.4706C55.9208 17.2937 53.1646 17.2347 47.7102 18.3845C47.0643 18.5406 46.4011 18.6099 45.7374 18.5909C45.0174 18.5075 44.3078 18.3494 43.6195 18.1192C40.6312 17.0873 38.1651 17.4116 36.7145 18.1782C35.8598 18.6484 35.1247 19.3147 34.5676 20.124C33.6682 21.3623 31.7824 25.136 29.2003 26.1384C27.7497 27.0819 26.183 28.0548 24.8194 29.4405C23.949 30.3545 23.7169 32.5067 21.425 34.5999C19.1725 37.9723 16.295 40.8664 12.9533 43.1204C8.63046 46.1866 5.00391 47.13 5.00391 47.13C5.00391 47.13 14.607 49.8129 25.1385 44.8009C33.146 40.9682 37.2948 33.5091 38.2522 31.8581L43.4744 22.8364C43.9386 22.0109 44.78 20.9495 45.5633 20.5368C45.8244 20.3893 46.0565 20.3009 46.1146 20.2419C46.6948 19.9471 47.3041 19.7113 47.9133 19.4754C51.5689 18.1487 55.3695 18.0307 57.1393 17.8244C57.3714 17.7654 57.3424 17.5001 57.1683 17.4706Z" fill="url(#paint0_linear)"/>
<path d="M57.1682 17.4704C55.9207 17.2935 53.1645 17.2345 47.7102 18.3843C47.0642 18.5403 46.401 18.6097 45.7373 18.5907C45.0174 18.5073 44.3077 18.3492 43.6194 18.119C40.5441 17.0871 38.1941 17.3524 36.7145 18.1779C35.8597 18.6482 35.1247 19.3145 34.5675 20.1238C33.6681 21.3621 31.7823 25.1358 29.2002 26.1382C26.299 23.3669 23.7459 21.0378 21.2798 18.974C19.8872 17.8536 18.5236 16.7923 17.3631 16.0257C14.5263 14.0038 11.5386 12.2098 8.4273 10.6599C7.09272 10.0408 5.70013 9.4806 4.16247 8.89094C3.49518 8.68457 3.11802 9.00887 3.00197 9.53956C2.94394 9.71646 2.88592 10.1882 3.17604 11.0137C3.96573 13.1013 4.91643 15.1222 6.01926 17.0576C6.45445 17.8536 6.94766 18.6792 7.46989 19.5047C9.90075 23.3928 12.752 26.9924 15.9705 30.2363C16.6378 30.8849 17.2761 31.4746 17.9724 32.0347C18.8055 32.7426 19.6773 33.4021 20.5835 34.0101C20.6706 34.069 21.1057 34.3344 21.3959 34.5113C21.9761 34.8356 22.7595 35.2189 23.2527 35.4252C25.2634 36.3614 27.4528 36.8346 29.6644 36.8109C32.8848 36.8994 35.4959 35.8675 36.7725 34.128C37.309 33.3912 37.8031 32.6234 38.2521 31.8284L43.4744 22.8067C43.9386 21.9812 44.7799 20.9198 45.5632 20.5071C45.8244 20.3597 46.0565 20.2712 46.1145 20.2122C46.6657 19.9469 46.6657 20.0353 47.246 19.7995C50.9596 18.4728 55.3985 18.0011 57.1682 17.7947C57.2072 17.7899 57.2432 17.7707 57.2692 17.7409C57.2953 17.711 57.3097 17.6724 57.3097 17.6325C57.3097 17.5926 57.2953 17.5541 57.2692 17.5242C57.2432 17.4943 57.2072 17.4752 57.1682 17.4704Z" fill="url(#paint1_linear)"/>
<path opacity="0.8" d="M2.94385 9.86403C2.94385 9.77559 2.97286 9.68714 2.94385 9.62817C2.97311 9.70398 2.97311 9.78823 2.94385 9.86403Z" fill="url(#paint2_linear)"/>
<path opacity="0.8" d="M5.38139 9.30398C5.33684 9.28017 5.28647 9.26993 5.23633 9.2745C5.32337 9.30398 5.4104 9.36294 5.49744 9.39243C5.49744 9.36294 5.43942 9.33346 5.38139 9.30398Z" fill="url(#paint3_linear)"/>
<path opacity="0.8" d="M6.2806 9.6872C6.25159 9.6872 6.19356 9.65771 6.16455 9.65771C6.23869 9.6953 6.31647 9.72494 6.39665 9.74616C6.33863 9.71668 6.30961 9.6872 6.2806 9.6872Z" fill="url(#paint4_linear)"/>
<path d="M23.3109 26.6689C25.2823 26.9704 27.2965 26.7677 29.1715 26.0793C27.4307 24.4282 25.777 22.9246 24.2393 21.5684C23.456 20.8903 22.7017 20.2122 21.9764 19.5931C21.9474 19.5636 21.8893 19.5341 21.8893 19.5047C21.6862 19.3278 21.5122 19.1804 21.3381 19.0329C21.2801 19.0035 21.2511 18.9445 21.222 18.9445C19.8294 17.8242 18.4659 16.7923 17.3634 15.9962C14.4041 13.9619 11.4448 12.0751 8.45656 10.6304C8.19545 10.483 7.93433 10.3946 7.64421 10.2471C7.57007 10.2096 7.49229 10.1799 7.41211 10.1587C18.9591 16.4974 22.6437 22.2465 23.3109 26.6689Z" fill="url(#paint5_linear)"/>
<path opacity="0.8" d="M3.37907 11.574C3.29203 11.3971 3.23401 11.1908 3.14697 10.9844C3.23401 11.1613 3.29203 11.3676 3.37907 11.574Z" fill="url(#paint6_linear)"/>
<path opacity="0.3" d="M2.94385 9.95252C2.94385 9.92304 2.94385 9.92304 2.97286 9.89355C2.97286 9.92304 2.97286 9.92304 2.94385 9.95252Z" fill="url(#paint7_linear)"/>
<path opacity="0.3" d="M4.19141 8.86157C4.56857 9.00898 4.91672 9.12692 5.26487 9.27433C4.88771 9.12692 4.53956 8.9795 4.19141 8.86157Z" fill="url(#paint8_linear)"/>
<path opacity="0.3" d="M2.94385 9.95264C2.95954 10.3051 3.02802 10.6531 3.14694 10.9845C3.02802 10.6531 2.95954 10.3051 2.94385 9.95264Z" fill="url(#paint9_linear)"/>
<path opacity="0.3" d="M7.23785 10.0999L7.41192 10.1883C7.09278 10.0409 6.74463 9.89351 6.39648 9.74609C6.51253 9.80506 6.59957 9.83454 6.71562 9.89351C6.89437 9.9494 7.0689 10.0184 7.23785 10.0999Z" fill="url(#paint10_linear)"/>
<path d="M10.6615 20.4778C7.55719 17.9423 4.62693 14.4044 3.37939 11.6035C6.28064 19.0626 13.8239 29.6468 20.5548 34.0103C20.6708 34.0987 21.077 34.3346 21.3961 34.5115C22.2665 33.1553 23.8622 30.3544 23.311 26.6691C19.1622 26.1089 14.6943 23.8093 10.6615 20.4778Z" fill="url(#paint11_linear)"/>
<path opacity="0.3" d="M6.16444 9.65743L5.55518 9.39209C5.58419 9.39209 5.6132 9.42157 5.64221 9.42157C5.78728 9.48054 5.96135 9.56899 6.16444 9.65743Z" fill="url(#paint12_linear)"/>
<path opacity="0.8" d="M10.6614 20.4778C14.6942 23.8093 19.1621 26.0795 23.3109 26.6396C22.6436 22.2467 18.959 16.4682 7.41205 10.1884C7.35124 10.1649 7.29292 10.1353 7.23798 10.0999C7.0639 10.0115 6.88983 9.95252 6.74476 9.86408C6.62871 9.80511 6.54168 9.77563 6.42563 9.71666C6.35149 9.67908 6.2737 9.64944 6.19353 9.62822C6.01664 9.54181 5.83206 9.47271 5.64229 9.42184C5.61328 9.42184 5.58427 9.39236 5.55525 9.39236C5.46822 9.36287 5.38118 9.30391 5.29414 9.27443C4.94599 9.1565 4.59784 8.9796 4.22068 8.86167C3.55339 8.65529 3.17623 8.9796 3.03117 9.4808C3.01652 9.53881 3.00681 9.598 3.00216 9.6577C2.97314 9.71666 3.00216 9.80511 3.00216 9.89356C3.00216 9.92304 3.00216 9.92304 2.97314 9.95252C2.98884 10.305 3.05732 10.6529 3.17623 10.9844C3.24085 11.1955 3.31837 11.4023 3.40833 11.6035C4.62685 14.4044 7.58613 17.9423 10.6614 20.4778Z" fill="url(#paint13_linear)"/>
<path d="M10.6614 20.4778C14.6942 23.8093 19.1621 26.0795 23.3109 26.6396C22.6436 22.2467 18.959 16.4682 7.41205 10.1884C7.35124 10.1649 7.29292 10.1353 7.23798 10.0999C7.0639 10.0115 6.88983 9.95252 6.74476 9.86408C6.62871 9.80511 6.54168 9.77563 6.42563 9.71666C6.35149 9.67908 6.2737 9.64944 6.19353 9.62822C6.01664 9.54181 5.83206 9.47271 5.64229 9.42184C5.61328 9.42184 5.58427 9.39236 5.55525 9.39236C5.46822 9.36287 5.38118 9.30391 5.29414 9.27443C4.94599 9.1565 4.59784 8.9796 4.22068 8.86167C3.55339 8.65529 3.17623 8.9796 3.03117 9.4808C3.01652 9.53881 3.00681 9.598 3.00216 9.6577C2.97314 9.71666 3.00216 9.80511 3.00216 9.89356C3.00216 9.92304 3.00216 9.92304 2.97314 9.95252C2.98884 10.305 3.05732 10.6529 3.17623 10.9844C3.24085 11.1955 3.31837 11.4023 3.40833 11.6035C4.62685 14.4044 7.58613 17.9423 10.6614 20.4778Z" fill="url(#paint14_linear)"/>
<path d="M57.1685 17.4706C55.921 17.2937 53.1648 17.2347 47.7104 18.3845C47.0645 18.5406 46.4012 18.6099 45.7376 18.5909C45.0176 18.5075 44.308 18.3494 43.6197 18.1192C42.2076 17.6019 40.7093 17.3715 39.2098 17.4411C38.1824 17.5136 37.1919 17.8593 36.3375 18.4435C35.654 18.8938 35.0628 19.4745 34.5968 20.1535C33.6974 21.3918 31.8116 25.1655 29.2295 26.1679C31.2604 28.1138 34.3937 29.7353 37.324 28.7624C40.1382 27.819 41.8789 25.2835 42.4302 24.4579C42.9927 23.5903 43.6131 22.7629 44.287 21.9814C45.2379 20.9694 46.4257 20.2188 47.7394 19.7997C51.0469 18.6794 56.037 18.0013 57.2265 17.8833C57.3716 17.7654 57.3426 17.5001 57.1685 17.4706Z" fill="url(#paint15_linear)"/>
<path d="M40.9388 21.5752C41.4195 21.5752 41.8092 21.1792 41.8092 20.6907C41.8092 20.2022 41.4195 19.8062 40.9388 19.8062C40.4581 19.8062 40.0684 20.2022 40.0684 20.6907C40.0684 21.1792 40.4581 21.5752 40.9388 21.5752Z" fill="#282E38"/>
<path d="M90.2427 32.6045C88.5122 32.6071 86.8533 33.3069 85.6297 34.5503C84.406 35.7938 83.7174 37.4795 83.7148 39.2381V41.2134C83.7174 42.9719 84.406 44.6577 85.6297 45.9011C86.8533 47.1446 88.5122 47.8443 90.2427 47.847H94.3914V45.4294H90.2427C89.1824 45.4276 88.1628 45.0148 87.3918 44.2751C86.6208 43.5355 86.1566 42.5248 86.0939 41.4493H94.5945C94.8766 41.4499 95.1561 41.3939 95.4169 41.2845C95.6776 41.1751 95.9146 41.0144 96.1141 40.8117C96.3135 40.609 96.4717 40.3682 96.5793 40.1032C96.687 39.8382 96.7421 39.5542 96.7415 39.2675C96.7464 38.3961 96.5821 37.5322 96.258 36.7254C95.9338 35.9186 95.4563 35.1847 94.8526 34.5657C94.2489 33.9468 93.5309 33.4549 92.7399 33.1184C91.9488 32.7818 91.1002 32.6072 90.2427 32.6045ZM86.0939 39.0022C86.1549 37.926 86.6185 36.9143 87.3899 36.1742C88.1612 35.4342 89.1819 35.022 90.2427 35.022C91.3034 35.022 92.3241 35.4342 93.0954 36.1742C93.8668 36.9143 94.3305 37.926 94.3914 39.0022H86.0939Z" fill="#282E38"/>
<path d="M55.3117 30.1871H57.0525V27.7695H55.3117C54.6551 27.7716 54.0057 27.9085 53.4025 28.172C52.7993 28.4354 52.2546 28.82 51.8012 29.3026C50.8842 30.2698 50.3653 31.5565 50.3506 32.8995V33.1943H48.958V35.6119H50.3506V47.7882H52.7296V35.6119H55.921V33.2238H52.7296V32.929C52.7586 31.4549 53.9481 30.1871 55.3117 30.1871Z" fill="#282E38"/>
<path d="M63.1446 27.7991H60.7656V47.8472H63.1446V27.7991Z" fill="#282E38"/>
<path d="M142.291 32.6045H139.912V47.788H142.291V32.6045Z" fill="#30B99E"/>
<path d="M77.4771 41.6261C77.4771 42.6348 77.0828 43.6022 76.3809 44.3155C75.679 45.0287 74.7271 45.4294 73.7345 45.4294C72.7419 45.4294 71.79 45.0287 71.0881 44.3155C70.3862 43.6022 69.9919 42.6348 69.9919 41.6261V32.6045H67.6709V41.6261C67.6709 43.2682 68.3128 44.843 69.4554 46.0041C70.598 47.1652 72.1477 47.8175 73.7635 47.8175C75.3794 47.8175 76.9291 47.1652 78.0716 46.0041C79.2142 44.843 79.8561 43.2682 79.8561 41.6261V32.6045H77.4771V41.6261Z" fill="#282E38"/>
<path d="M105.213 32.6045C103.599 32.6093 102.052 33.2631 100.91 34.4232C99.7687 35.5833 99.1253 37.1553 99.1206 38.7958V47.8175H101.5V38.7958C101.5 37.7871 101.894 36.8198 102.596 36.1065C103.298 35.3933 104.25 34.9926 105.242 34.9926C106.235 34.9926 107.187 35.3933 107.889 36.1065C108.591 36.8198 108.985 37.7871 108.985 38.7958V47.8175H111.364V38.7958C111.336 37.1524 110.678 35.585 109.528 34.4283C108.379 33.2715 106.831 32.617 105.213 32.6045Z" fill="#282E38"/>
<path d="M118.123 42.6878V35.0223H121.315V32.6342H118.123V27.7991H115.773V32.6342H113.685V35.0518H115.773V42.7172C115.777 44.0453 116.298 45.3179 117.222 46.257C118.146 47.1961 119.399 47.7254 120.706 47.7293H121.75V45.3117H120.706C120.021 45.3102 119.365 45.0332 118.881 44.5415C118.398 44.0497 118.125 43.3832 118.123 42.6878Z" fill="#282E38"/>
<path d="M149.921 42.6878V35.0223H153.112V32.6342H149.921V27.7991H147.542V32.6342H145.453V35.0518H147.542V42.7172C147.546 44.0453 148.067 45.3179 148.991 46.257C149.915 47.1961 151.167 47.7254 152.474 47.7293H153.519V45.3117H152.474C151.794 45.304 151.145 45.0242 150.667 44.5329C150.189 44.0416 149.921 43.3786 149.921 42.6878Z" fill="#30B99E"/>
<path d="M126.74 27.7991V33.9609C127.806 33.1081 129.126 32.6505 130.483 32.6637C132.097 32.6685 133.644 33.3223 134.786 34.4824C135.927 35.6425 136.571 37.2145 136.575 38.855V41.6559C136.575 43.2979 135.933 44.8727 134.791 46.0338C133.648 47.1949 132.099 47.8472 130.483 47.8472C128.867 47.8472 127.317 47.1949 126.175 46.0338C125.032 44.8727 124.39 43.2979 124.39 41.6559V27.7991H126.74ZM126.74 40.1523V41.6264C126.74 42.6351 127.134 43.6024 127.836 44.3157C128.538 45.0289 129.49 45.4296 130.483 45.4296C131.475 45.4296 132.427 45.0289 133.129 44.3157C133.831 43.6024 134.225 42.6351 134.225 41.6264V38.8256C134.225 37.8169 133.831 36.8495 133.129 36.1362C132.427 35.423 131.475 35.0223 130.483 35.0223C129.49 35.0223 128.538 35.423 127.836 36.1362C127.134 36.8495 126.74 37.8169 126.74 38.8256V40.1523Z" fill="#30B99E"/>
<defs>
<linearGradient id="paint0_linear" x1="58.2909" y1="30.0254" x2="3.98775" y2="34.3396" gradientUnits="userSpaceOnUse">
<stop offset="0.2986" stop-color="#0097CE"/>
<stop offset="0.3791" stop-color="#0999C5"/>
<stop offset="0.5119" stop-color="#229DAD"/>
<stop offset="0.6469" stop-color="#42A38F"/>
<stop offset="0.7352" stop-color="#5DAD82"/>
<stop offset="0.9239" stop-color="#A1C661"/>
<stop offset="1" stop-color="#BED153"/>
</linearGradient>
<linearGradient id="paint1_linear" x1="1.33825" y1="15.6775" x2="53.9876" y2="29.933" gradientUnits="userSpaceOnUse">
<stop offset="0.08199" stop-color="#3D65AF"/>
<stop offset="0.2305" stop-color="#2372B8"/>
<stop offset="0.5058" stop-color="#00B8BB"/>
</linearGradient>
<linearGradient id="paint2_linear" x1="2.92267" y1="9.74018" x2="31.5225" y2="17.484" gradientUnits="userSpaceOnUse">
<stop offset="0.1297"/>
<stop offset="0.3277" stop-color="#00334B"/>
<stop offset="0.5276" stop-color="#006190"/>
<stop offset="0.6723" stop-color="#007FBB"/>
<stop offset="0.7457" stop-color="#008ACC"/>
</linearGradient>
<linearGradient id="paint3_linear" x1="10.096" y1="63.1606" x2="36.7321" y2="63.1606" gradientUnits="userSpaceOnUse">
<stop offset="0.1297"/>
<stop offset="0.3277" stop-color="#00334B"/>
<stop offset="0.5276" stop-color="#006190"/>
<stop offset="0.6723" stop-color="#007FBB"/>
<stop offset="0.7457" stop-color="#008ACC"/>
</linearGradient>
<linearGradient id="paint4_linear" x1="10.4842" y1="49.7484" x2="34.1609" y2="49.7484" gradientUnits="userSpaceOnUse">
<stop offset="0.1297"/>
<stop offset="0.3277" stop-color="#00334B"/>
<stop offset="0.5276" stop-color="#006190"/>
<stop offset="0.6723" stop-color="#007FBB"/>
<stop offset="0.7457" stop-color="#008ACC"/>
</linearGradient>
<linearGradient id="paint5_linear" x1="5.89425" y1="15.7645" x2="30.1836" y2="22.3412" gradientUnits="userSpaceOnUse">
<stop offset="0.1297" stop-color="#2483C5"/>
<stop offset="0.1672" stop-color="#2486C7"/>
<stop offset="0.676" stop-color="#29B1DF"/>
<stop offset="0.9352" stop-color="#2BC2E8"/>
</linearGradient>
<linearGradient id="paint6_linear" x1="7.46663" y1="282.924" x2="31.1432" y2="282.924" gradientUnits="userSpaceOnUse">
<stop offset="0.1297"/>
<stop offset="0.3277" stop-color="#00334B"/>
<stop offset="0.5276" stop-color="#006190"/>
<stop offset="0.6723" stop-color="#007FBB"/>
<stop offset="0.7457" stop-color="#008ACC"/>
</linearGradient>
<linearGradient id="paint7_linear" x1="2.96171" y1="9.92397" x2="2.96174" y2="9.92398" gradientUnits="userSpaceOnUse">
<stop stop-color="#682C90"/>
<stop offset="0.496" stop-color="#817CB9"/>
<stop offset="1" stop-color="white"/>
</linearGradient>
<linearGradient id="paint8_linear" x1="117.308" y1="195.682" x2="61.8435" y2="195.682" gradientUnits="userSpaceOnUse">
<stop stop-color="#682C90"/>
<stop offset="0.496" stop-color="#817CB9"/>
<stop offset="1" stop-color="white"/>
</linearGradient>
<linearGradient id="paint9_linear" x1="24.3444" y1="483.317" x2="13.851" y2="483.317" gradientUnits="userSpaceOnUse">
<stop stop-color="#682C90"/>
<stop offset="0.496" stop-color="#817CB9"/>
<stop offset="1" stop-color="white"/>
</linearGradient>
<linearGradient id="paint10_linear" x1="113.399" y1="210.331" x2="60.9322" y2="210.331" gradientUnits="userSpaceOnUse">
<stop stop-color="#682C90"/>
<stop offset="0.496" stop-color="#817CB9"/>
<stop offset="1" stop-color="white"/>
</linearGradient>
<linearGradient id="paint11_linear" x1="1.13035" y1="19.9098" x2="24.3311" y2="26.1917" gradientUnits="userSpaceOnUse">
<stop offset="0.1297" stop-color="#3B67AD"/>
<stop offset="0.5697" stop-color="#227CAA"/>
<stop offset="0.9352" stop-color="#118AA8"/>
</linearGradient>
<linearGradient id="paint12_linear" x1="69.7567" y1="129.612" x2="38.2766" y2="129.612" gradientUnits="userSpaceOnUse">
<stop stop-color="#682C90"/>
<stop offset="0.496" stop-color="#817CB9"/>
<stop offset="1" stop-color="white"/>
</linearGradient>
<linearGradient id="paint13_linear" x1="381.398" y1="8448.03" x2="2456.06" y2="8448.03" gradientUnits="userSpaceOnUse">
<stop offset="0.1297"/>
<stop offset="0.3277" stop-color="#00334B"/>
<stop offset="0.5276" stop-color="#006190"/>
<stop offset="0.6723" stop-color="#007FBB"/>
<stop offset="0.7457" stop-color="#008ACC"/>
</linearGradient>
<linearGradient id="paint14_linear" x1="1.64737" y1="14.4466" x2="24.917" y2="20.7472" gradientUnits="userSpaceOnUse">
<stop offset="0.1297" stop-color="#3A67B0"/>
<stop offset="0.5622" stop-color="#357FBD"/>
<stop offset="0.9352" stop-color="#3290C6"/>
</linearGradient>
<linearGradient id="paint15_linear" x1="31.0894" y1="19.1266" x2="55.1568" y2="25.6432" gradientUnits="userSpaceOnUse">
<stop offset="0.1724" stop-color="#4E5CA8"/>
<stop offset="0.9937" stop-color="#1FC3F3"/>
</linearGradient>
</defs>
</svg>
