<?xml version="1.0" encoding="UTF-8" standalone="no" ?>
<!DOCTYPE svg PUBLIC "-//W3C//DTD SVG 1.1//EN" "http://www.w3.org/Graphics/SVG/1.1/DTD/svg11.dtd">
<svg xmlns="http://www.w3.org/2000/svg" xmlns:xlink="http://www.w3.org/1999/xlink" version="1.1" width="1080" height="1080" viewBox="0 0 1080 1080" xml:space="preserve">
<desc>Created with Fabric.js 5.2.4</desc>
<defs>
</defs>
<g transform="matrix(1 0 0 1 540 540)" id="db29152e-9b1c-48b6-836f-0160dd03c797"  >
<rect style="stroke: none; stroke-width: 1; stroke-dasharray: none; stroke-linecap: butt; stroke-dashoffset: 0; stroke-linejoin: miter; stroke-miterlimit: 4; fill: rgb(255,255,255); fill-rule: nonzero; opacity: 1; visibility: hidden;" vector-effect="non-scaling-stroke"  x="-540" y="-540" rx="0" ry="0" width="1080" height="1080" />
</g>
<g transform="matrix(1 0 0 1 540 540)" id="d789de63-c672-4b0d-a276-38ac88663571"  >
</g>
<g transform="matrix(1 0 0 1 540 540)"  >
<rect style="stroke: none; stroke-width: 1; stroke-dasharray: none; stroke-linecap: butt; stroke-dashoffset: 0; stroke-linejoin: miter; stroke-miterlimit: 4; fill: rgb(255,255,255); fill-rule: nonzero; opacity: 1; visibility: hidden;" vector-effect="non-scaling-stroke"  x="-540" y="-540" rx="0" ry="0" width="1080" height="1080" />
</g>
<g transform="matrix(17.36 0 0 17.36 504.77 438.38)"  >
<linearGradient id="SVGID_SVGID_paint0_linear_3_3" gradientUnits="userSpaceOnUse" gradientTransform="matrix(1 0 0 1 0 0)"  x1="58.2909" y1="30.0254" x2="3.98775" y2="34.3396">
<stop offset="29.86%" style="stop-color:rgb(0,151,206);stop-opacity: 1"/>
<stop offset="37.91%" style="stop-color:rgb(9,153,197);stop-opacity: 1"/>
<stop offset="51.190000000000005%" style="stop-color:rgb(34,157,173);stop-opacity: 1"/>
<stop offset="64.69%" style="stop-color:rgb(66,163,143);stop-opacity: 1"/>
<stop offset="73.52%" style="stop-color:rgb(93,173,130);stop-opacity: 1"/>
<stop offset="92.39%" style="stop-color:rgb(161,198,97);stop-opacity: 1"/>
<stop offset="100%" style="stop-color:rgb(190,209,83);stop-opacity: 1"/>
</linearGradient>
<path style="stroke: none; stroke-width: 1; stroke-dasharray: none; stroke-linecap: butt; stroke-dashoffset: 0; stroke-linejoin: miter; stroke-miterlimit: 4; fill: url(#SVGID_SVGID_paint0_linear_3_3); fill-rule: nonzero; opacity: 1;" vector-effect="non-scaling-stroke"  transform=" translate(-31.16, -32.61)" d="M 57.1683 17.4706 C 55.9208 17.2937 53.1646 17.2347 47.7102 18.3845 C 47.0643 18.5406 46.4011 18.6099 45.7374 18.5909 C 45.0174 18.5075 44.3078 18.3494 43.6195 18.1192 C 40.6312 17.0873 38.1651 17.4116 36.7145 18.1782 C 35.8598 18.6484 35.1247 19.3147 34.5676 20.124 C 33.6682 21.3623 31.7824 25.136 29.2003 26.1384 C 27.7497 27.0819 26.183 28.0548 24.8194 29.4405 C 23.949 30.3545 23.7169 32.5067 21.425 34.5999 C 19.1725 37.9723 16.295 40.8664 12.9533 43.1204 C 8.63046 46.1866 5.00391 47.13 5.00391 47.13 C 5.00391 47.13 14.607 49.8129 25.1385 44.8009 C 33.146 40.9682 37.2948 33.5091 38.2522 31.8581 L 43.4744 22.8364 C 43.9386 22.0109 44.78 20.9495 45.5633 20.5368 C 45.8244 20.3893 46.0565 20.3009 46.1146 20.2419 C 46.6948 19.9471 47.3041 19.7113 47.9133 19.4754 C 51.5689 18.1487 55.3695 18.0307 57.1393 17.8244 C 57.3714 17.7654 57.3424 17.5001 57.1683 17.4706 Z" stroke-linecap="round" />
</g>
<g transform="matrix(17.36 0 0 17.36 487.23 269.03)"  >
<linearGradient id="SVGID_SVGID_paint1_linear_4_4" gradientUnits="userSpaceOnUse" gradientTransform="matrix(1 0 0 1 0 0)"  x1="1.33825" y1="15.6775" x2="53.9876" y2="29.933">
<stop offset="8.199%" style="stop-color:rgb(61,101,175);stop-opacity: 1"/>
<stop offset="23.05%" style="stop-color:rgb(35,114,184);stop-opacity: 1"/>
<stop offset="50.580000000000005%" style="stop-color:rgb(0,184,187);stop-opacity: 1"/>
</linearGradient>
<path style="stroke: none; stroke-width: 1; stroke-dasharray: none; stroke-linecap: butt; stroke-dashoffset: 0; stroke-linejoin: miter; stroke-miterlimit: 4; fill: url(#SVGID_SVGID_paint1_linear_4_4); fill-rule: nonzero; opacity: 1;" vector-effect="non-scaling-stroke"  transform=" translate(-30.13, -22.82)" d="M 57.1682 17.4704 C 55.9207 17.2935 53.1645 17.2345 47.7102 18.3843 C 47.0642 18.5403 46.401 18.6097 45.7373 18.5907 C 45.0174 18.5073 44.3077 18.3492 43.6194 18.119 C 40.5441 17.0871 38.1941 17.3524 36.7145 18.1779 C 35.8597 18.6482 35.1247 19.3145 34.5675 20.1238 C 33.6681 21.3621 31.7823 25.1358 29.2002 26.1382 C 26.299 23.3669 23.7459 21.0378 21.2798 18.974 C 19.8872 17.8536 18.5236 16.7923 17.3631 16.0257 C 14.5263 14.0038 11.5386 12.2098 8.4273 10.6599 C 7.09272 10.0408 5.70013 9.4806 4.16247 8.89094 C 3.49518 8.68457 3.11802 9.00887 3.00197 9.53956 C 2.94394 9.71646 2.88592 10.1882 3.17604 11.0137 C 3.96573 13.1013 4.91643 15.1222 6.01926 17.0576 C 6.45445 17.8536 6.94766 18.6792 7.46989 19.5047 C 9.90075 23.3928 12.752 26.9924 15.9705 30.2363 C 16.6378 30.8849 17.2761 31.4746 17.9724 32.0347 C 18.8055 32.7426 19.6773 33.4021 20.5835 34.0101 C 20.6706 34.069 21.1057 34.3344 21.3959 34.5113 C 21.9761 34.8356 22.7595 35.2189 23.2527 35.4252 C 25.2634 36.3614 27.4528 36.8346 29.6644 36.8109 C 32.8848 36.8994 35.4959 35.8675 36.7725 34.128 C 37.309 33.3912 37.8031 32.6234 38.2521 31.8284 L 43.4744 22.8067 C 43.9386 21.9812 44.7799 20.9198 45.5632 20.5071 C 45.8244 20.3597 46.0565 20.2712 46.1145 20.2122 C 46.6657 19.9469 46.6657 20.0353 47.246 19.7995 C 50.9596 18.4728 55.3985 18.0011 57.1682 17.7947 C 57.2072 17.7899 57.2432 17.7707 57.2692 17.7409 C 57.2953 17.711 57.3097 17.6724 57.3097 17.6325 C 57.3097 17.5926 57.2953 17.5541 57.2692 17.5242 C 57.2432 17.4943 57.2072 17.4752 57.1682 17.4704 Z" stroke-linecap="round" />
</g>
<g transform="matrix(17.36 0 0 17.36 16.95 42.69)"  >
<linearGradient id="SVGID_SVGID_paint2_linear_5_5" gradientUnits="userSpaceOnUse" gradientTransform="matrix(1 0 0 1 0 0)"  x1="2.92267" y1="9.74018" x2="31.5225" y2="17.484">
<stop offset="12.97%" style="stop-color:rgb(0,0,0);stop-opacity: 1"/>
<stop offset="32.769999999999996%" style="stop-color:rgb(0,51,75);stop-opacity: 1"/>
<stop offset="52.76%" style="stop-color:rgb(0,97,144);stop-opacity: 1"/>
<stop offset="67.23%" style="stop-color:rgb(0,127,187);stop-opacity: 1"/>
<stop offset="74.57000000000001%" style="stop-color:rgb(0,138,204);stop-opacity: 1"/>
</linearGradient>
<path style="stroke: none; stroke-width: 1; stroke-dasharray: none; stroke-linecap: butt; stroke-dashoffset: 0; stroke-linejoin: miter; stroke-miterlimit: 4; fill: url(#SVGID_SVGID_paint2_linear_5_5); fill-rule: nonzero; opacity: 0.8;" vector-effect="non-scaling-stroke"  transform=" translate(-2.95, -9.75)" d="M 2.94385 9.86403 C 2.94385 9.77559 2.97286 9.68714 2.94385 9.62817 C 2.97311 9.70398 2.97311 9.78823 2.94385 9.86403 Z" stroke-linecap="round" />
</g>
<g transform="matrix(17.36 0 0 17.36 58.63 35.6)"  >
<linearGradient id="SVGID_SVGID_paint3_linear_6_6" gradientUnits="userSpaceOnUse" gradientTransform="matrix(1 0 0 1 0 0)"  x1="10.096" y1="63.1606" x2="36.7321" y2="63.1606">
<stop offset="12.97%" style="stop-color:rgb(0,0,0);stop-opacity: 1"/>
<stop offset="32.769999999999996%" style="stop-color:rgb(0,51,75);stop-opacity: 1"/>
<stop offset="52.76%" style="stop-color:rgb(0,97,144);stop-opacity: 1"/>
<stop offset="67.23%" style="stop-color:rgb(0,127,187);stop-opacity: 1"/>
<stop offset="74.57000000000001%" style="stop-color:rgb(0,138,204);stop-opacity: 1"/>
</linearGradient>
<path style="stroke: none; stroke-width: 1; stroke-dasharray: none; stroke-linecap: butt; stroke-dashoffset: 0; stroke-linejoin: miter; stroke-miterlimit: 4; fill: url(#SVGID_SVGID_paint3_linear_6_6); fill-rule: nonzero; opacity: 0.8;" vector-effect="non-scaling-stroke"  transform=" translate(-5.37, -9.33)" d="M 5.38139 9.30398 C 5.33684 9.28017 5.28647 9.26993 5.23633 9.2745 C 5.32337 9.30398 5.4104 9.36294 5.49744 9.39243 C 5.49744 9.36294 5.43942 9.33346 5.38139 9.30398 Z" stroke-linecap="round" />
</g>
<g transform="matrix(17.36 0 0 17.36 74.42 41.98)"  >
<linearGradient id="SVGID_SVGID_paint4_linear_7_7" gradientUnits="userSpaceOnUse" gradientTransform="matrix(1 0 0 1 0 0)"  x1="10.4842" y1="49.7484" x2="34.1609" y2="49.7484">
<stop offset="12.97%" style="stop-color:rgb(0,0,0);stop-opacity: 1"/>
<stop offset="32.769999999999996%" style="stop-color:rgb(0,51,75);stop-opacity: 1"/>
<stop offset="52.76%" style="stop-color:rgb(0,97,144);stop-opacity: 1"/>
<stop offset="67.23%" style="stop-color:rgb(0,127,187);stop-opacity: 1"/>
<stop offset="74.57000000000001%" style="stop-color:rgb(0,138,204);stop-opacity: 1"/>
</linearGradient>
<path style="stroke: none; stroke-width: 1; stroke-dasharray: none; stroke-linecap: butt; stroke-dashoffset: 0; stroke-linejoin: miter; stroke-miterlimit: 4; fill: url(#SVGID_SVGID_paint4_linear_7_7); fill-rule: nonzero; opacity: 0.8;" vector-effect="non-scaling-stroke"  transform=" translate(-6.28, -9.7)" d="M 6.2806 9.6872 C 6.25159 9.6872 6.19356 9.65771 6.16455 9.65771 C 6.23869 9.6953 6.31647 9.72494 6.39665 9.74616 C 6.33863 9.71668 6.30961 9.6872 6.2806 9.6872 Z" stroke-linecap="round" />
</g>
<g transform="matrix(17.36 0 0 17.36 282.31 193.91)"  >
<linearGradient id="SVGID_SVGID_paint5_linear_8_8" gradientUnits="userSpaceOnUse" gradientTransform="matrix(1 0 0 1 0 0)"  x1="5.89425" y1="15.7645" x2="30.1836" y2="22.3412">
<stop offset="12.97%" style="stop-color:rgb(36,131,197);stop-opacity: 1"/>
<stop offset="16.72%" style="stop-color:rgb(36,134,199);stop-opacity: 1"/>
<stop offset="67.60000000000001%" style="stop-color:rgb(41,177,223);stop-opacity: 1"/>
<stop offset="93.52000000000001%" style="stop-color:rgb(43,194,232);stop-opacity: 1"/>
</linearGradient>
<path style="stroke: none; stroke-width: 1; stroke-dasharray: none; stroke-linecap: butt; stroke-dashoffset: 0; stroke-linejoin: miter; stroke-miterlimit: 4; fill: url(#SVGID_SVGID_paint5_linear_8_8); fill-rule: nonzero; opacity: 1;" vector-effect="non-scaling-stroke"  transform=" translate(-18.29, -18.48)" d="M 23.3109 26.6689 C 25.2823 26.9704 27.2965 26.7677 29.1715 26.0793 C 27.4307 24.4282 25.777 22.9246 24.2393 21.5684 C 23.456 20.8903 22.7017 20.2122 21.9764 19.5931 C 21.9474 19.5636 21.8893 19.5341 21.8893 19.5047 C 21.6862 19.3278 21.5122 19.1804 21.3381 19.0329 C 21.2801 19.0035 21.2511 18.9445 21.222 18.9445 C 19.8294 17.8242 18.4659 16.7923 17.3634 15.9962 C 14.4041 13.9619 11.4448 12.0751 8.45656 10.6304 C 8.19545 10.483 7.93433 10.3946 7.64421 10.2471 C 7.57007 10.2096 7.49229 10.1799 7.41211 10.1587 C 18.9591 16.4974 22.6437 22.2465 23.3109 26.6689 Z" stroke-linecap="round" />
</g>
<g transform="matrix(17.36 0 0 17.36 22.3 69.23)"  >
<linearGradient id="SVGID_SVGID_paint6_linear_9_9" gradientUnits="userSpaceOnUse" gradientTransform="matrix(1 0 0 1 0 0)"  x1="7.46663" y1="282.924" x2="31.1432" y2="282.924">
<stop offset="12.97%" style="stop-color:rgb(0,0,0);stop-opacity: 1"/>
<stop offset="32.769999999999996%" style="stop-color:rgb(0,51,75);stop-opacity: 1"/>
<stop offset="52.76%" style="stop-color:rgb(0,97,144);stop-opacity: 1"/>
<stop offset="67.23%" style="stop-color:rgb(0,127,187);stop-opacity: 1"/>
<stop offset="74.57000000000001%" style="stop-color:rgb(0,138,204);stop-opacity: 1"/>
</linearGradient>
<path style="stroke: none; stroke-width: 1; stroke-dasharray: none; stroke-linecap: butt; stroke-dashoffset: 0; stroke-linejoin: miter; stroke-miterlimit: 4; fill: url(#SVGID_SVGID_paint6_linear_9_9); fill-rule: nonzero; opacity: 0.8;" vector-effect="non-scaling-stroke"  transform=" translate(-3.26, -11.28)" d="M 3.37907 11.574 C 3.29203 11.3971 3.23401 11.1908 3.14697 10.9844 C 3.23401 11.1613 3.29203 11.3676 3.37907 11.574 Z" stroke-linecap="round" />
</g>
<g transform="matrix(17.36 0 0 17.36 16.94 45.85)"  >
<linearGradient id="SVGID_SVGID_paint7_linear_10_10" gradientUnits="userSpaceOnUse" gradientTransform="matrix(1 0 0 1 0 0)"  x1="2.96171" y1="9.92397" x2="2.96174" y2="9.92398">
<stop offset="0%" style="stop-color:rgb(104,44,144);stop-opacity: 1"/>
<stop offset="49.6%" style="stop-color:rgb(129,124,185);stop-opacity: 1"/>
<stop offset="100%" style="stop-color:rgb(255,255,255);stop-opacity: 1"/>
</linearGradient>
<path style="stroke: none; stroke-width: 1; stroke-dasharray: none; stroke-linecap: butt; stroke-dashoffset: 0; stroke-linejoin: miter; stroke-miterlimit: 4; fill: url(#SVGID_SVGID_paint7_linear_10_10); fill-rule: nonzero; opacity: 0.3;" vector-effect="non-scaling-stroke"  transform=" translate(-2.96, -9.92)" d="M 2.94385 9.95252 C 2.94385 9.92304 2.94385 9.92304 2.97286 9.89355 C 2.97286 9.92304 2.97286 9.92304 2.94385 9.95252 Z" stroke-linecap="round" />
</g>
<g transform="matrix(17.36 0 0 17.36 47.59 30.95)"  >
<linearGradient id="SVGID_SVGID_paint8_linear_11_11" gradientUnits="userSpaceOnUse" gradientTransform="matrix(1 0 0 1 0 0)"  x1="117.308" y1="195.682" x2="61.8435" y2="195.682">
<stop offset="0%" style="stop-color:rgb(104,44,144);stop-opacity: 1"/>
<stop offset="49.6%" style="stop-color:rgb(129,124,185);stop-opacity: 1"/>
<stop offset="100%" style="stop-color:rgb(255,255,255);stop-opacity: 1"/>
</linearGradient>
<path style="stroke: none; stroke-width: 1; stroke-dasharray: none; stroke-linecap: butt; stroke-dashoffset: 0; stroke-linejoin: miter; stroke-miterlimit: 4; fill: url(#SVGID_SVGID_paint8_linear_11_11); fill-rule: nonzero; opacity: 0.3;" vector-effect="non-scaling-stroke"  transform=" translate(-4.73, -9.07)" d="M 4.19141 8.86157 C 4.56857 9.00898 4.91672 9.12692 5.26487 9.27433 C 4.88771 9.12692 4.53956 8.9795 4.19141 8.86157 Z" stroke-linecap="round" />
</g>
<g transform="matrix(17.36 0 0 17.36 18.41 55.22)"  >
<linearGradient id="SVGID_SVGID_paint9_linear_12_12" gradientUnits="userSpaceOnUse" gradientTransform="matrix(1 0 0 1 0 0)"  x1="24.3444" y1="483.317" x2="13.851" y2="483.317">
<stop offset="0%" style="stop-color:rgb(104,44,144);stop-opacity: 1"/>
<stop offset="49.6%" style="stop-color:rgb(129,124,185);stop-opacity: 1"/>
<stop offset="100%" style="stop-color:rgb(255,255,255);stop-opacity: 1"/>
</linearGradient>
<path style="stroke: none; stroke-width: 1; stroke-dasharray: none; stroke-linecap: butt; stroke-dashoffset: 0; stroke-linejoin: miter; stroke-miterlimit: 4; fill: url(#SVGID_SVGID_paint9_linear_12_12); fill-rule: nonzero; opacity: 0.3;" vector-effect="non-scaling-stroke"  transform=" translate(-3.05, -10.47)" d="M 2.94385 9.95264 C 2.95954 10.3051 3.02802 10.6531 3.14694 10.9845 C 3.02802 10.6531 2.95954 10.3051 2.94385 9.95264 Z" stroke-linecap="round" />
</g>
<g transform="matrix(17.36 0 0 17.36 85.35 46.46)"  >
<linearGradient id="SVGID_SVGID_paint10_linear_13_13" gradientUnits="userSpaceOnUse" gradientTransform="matrix(1 0 0 1 0 0)"  x1="113.399" y1="210.331" x2="60.9322" y2="210.331">
<stop offset="0%" style="stop-color:rgb(104,44,144);stop-opacity: 1"/>
<stop offset="49.6%" style="stop-color:rgb(129,124,185);stop-opacity: 1"/>
<stop offset="100%" style="stop-color:rgb(255,255,255);stop-opacity: 1"/>
</linearGradient>
<path style="stroke: none; stroke-width: 1; stroke-dasharray: none; stroke-linecap: butt; stroke-dashoffset: 0; stroke-linejoin: miter; stroke-miterlimit: 4; fill: url(#SVGID_SVGID_paint10_linear_13_13); fill-rule: nonzero; opacity: 0.3;" vector-effect="non-scaling-stroke"  transform=" translate(-6.9, -9.97)" d="M 7.23785 10.0999 L 7.41192 10.1883 C 7.09278 10.0409 6.74463 9.89351 6.39648 9.74609 C 6.51253 9.80506 6.59957 9.83454 6.71562 9.89351 C 6.89437 9.9494 7.0689 10.0184 7.23785 10.0999 Z" stroke-linecap="round" />
</g>
<g transform="matrix(17.36 0 0 17.36 197.76 273.01)"  >
<linearGradient id="SVGID_SVGID_paint11_linear_14_14" gradientUnits="userSpaceOnUse" gradientTransform="matrix(1 0 0 1 0 0)"  x1="1.13035" y1="19.9098" x2="24.3311" y2="26.1917">
<stop offset="12.97%" style="stop-color:rgb(59,103,173);stop-opacity: 1"/>
<stop offset="56.97%" style="stop-color:rgb(34,124,170);stop-opacity: 1"/>
<stop offset="93.52000000000001%" style="stop-color:rgb(17,138,168);stop-opacity: 1"/>
</linearGradient>
<path style="stroke: none; stroke-width: 1; stroke-dasharray: none; stroke-linecap: butt; stroke-dashoffset: 0; stroke-linejoin: miter; stroke-miterlimit: 4; fill: url(#SVGID_SVGID_paint11_linear_14_14); fill-rule: nonzero; opacity: 1;" vector-effect="non-scaling-stroke"  transform=" translate(-13.4, -23.06)" d="M 10.6615 20.4778 C 7.55719 17.9423 4.62693 14.4044 3.37939 11.6035 C 6.28064 19.0626 13.8239 29.6468 20.5548 34.0103 C 20.6708 34.0987 21.077 34.3346 21.3961 34.5115 C 22.2665 33.1553 23.8622 30.3544 23.311 26.6691 C 19.1622 26.1089 14.6943 23.8093 10.6615 20.4778 Z" stroke-linecap="round" />
</g>
<g transform="matrix(17.36 0 0 17.36 67.2 38.98)"  >
<linearGradient id="SVGID_SVGID_paint12_linear_15_15" gradientUnits="userSpaceOnUse" gradientTransform="matrix(1 0 0 1 0 0)"  x1="69.7567" y1="129.612" x2="38.2766" y2="129.612">
<stop offset="0%" style="stop-color:rgb(104,44,144);stop-opacity: 1"/>
<stop offset="49.6%" style="stop-color:rgb(129,124,185);stop-opacity: 1"/>
<stop offset="100%" style="stop-color:rgb(255,255,255);stop-opacity: 1"/>
</linearGradient>
<path style="stroke: none; stroke-width: 1; stroke-dasharray: none; stroke-linecap: butt; stroke-dashoffset: 0; stroke-linejoin: miter; stroke-miterlimit: 4; fill: url(#SVGID_SVGID_paint12_linear_15_15); fill-rule: nonzero; opacity: 0.3;" vector-effect="non-scaling-stroke"  transform=" translate(-5.86, -9.52)" d="M 6.16444 9.65743 L 5.55518 9.39209 C 5.58419 9.39209 5.6132 9.42157 5.64221 9.42157 C 5.78728 9.48054 5.96135 9.56899 6.16444 9.65743 Z" stroke-linecap="round" />
</g>
<g transform="matrix(17.36 0 0 17.36 193.2 180.67)"  >
<linearGradient id="SVGID_SVGID_paint13_linear_16_16" gradientUnits="userSpaceOnUse" gradientTransform="matrix(1 0 0 1 0 0)"  x1="381.398" y1="8448.03" x2="2456.06" y2="8448.03">
<stop offset="12.97%" style="stop-color:rgb(0,0,0);stop-opacity: 1"/>
<stop offset="32.769999999999996%" style="stop-color:rgb(0,51,75);stop-opacity: 1"/>
<stop offset="52.76%" style="stop-color:rgb(0,97,144);stop-opacity: 1"/>
<stop offset="67.23%" style="stop-color:rgb(0,127,187);stop-opacity: 1"/>
<stop offset="74.57000000000001%" style="stop-color:rgb(0,138,204);stop-opacity: 1"/>
</linearGradient>
<path style="stroke: none; stroke-width: 1; stroke-dasharray: none; stroke-linecap: butt; stroke-dashoffset: 0; stroke-linejoin: miter; stroke-miterlimit: 4; fill: url(#SVGID_SVGID_paint13_linear_16_16); fill-rule: nonzero; opacity: 0.8;" vector-effect="non-scaling-stroke"  transform=" translate(-13.14, -17.72)" d="M 10.6614 20.4778 C 14.6942 23.8093 19.1621 26.0795 23.3109 26.6396 C 22.6436 22.2467 18.959 16.4682 7.41205 10.1884 C 7.35124 10.1649 7.29292 10.1353 7.23798 10.0999 C 7.0639 10.0115 6.88983 9.95252 6.74476 9.86408 C 6.62871 9.80511 6.54168 9.77563 6.42563 9.71666 C 6.35149 9.67908 6.2737 9.64944 6.19353 9.62822 C 6.01664 9.54181 5.83206 9.47271 5.64229 9.42184 C 5.61328 9.42184 5.58427 9.39236 5.55525 9.39236 C 5.46822 9.36287 5.38118 9.30391 5.29414 9.27443 C 4.94599 9.1565 4.59784 8.9796 4.22068 8.86167 C 3.55339 8.65529 3.17623 8.9796 3.03117 9.4808 C 3.01652 9.53881 3.00681 9.598 3.00216 9.6577 C 2.97314 9.71666 3.00216 9.80511 3.00216 9.89356 C 3.00216 9.92304 3.00216 9.92304 2.97314 9.95252 C 2.98884 10.305 3.05732 10.6529 3.17623 10.9844 C 3.24085 11.1955 3.31837 11.4023 3.40833 11.6035 C 4.62685 14.4044 7.58613 17.9423 10.6614 20.4778 Z" stroke-linecap="round" />
</g>
<g transform="matrix(17.36 0 0 17.36 193.2 180.67)"  >
<linearGradient id="SVGID_SVGID_paint14_linear_17_17" gradientUnits="userSpaceOnUse" gradientTransform="matrix(1 0 0 1 0 0)"  x1="1.64737" y1="14.4466" x2="24.917" y2="20.7472">
<stop offset="12.97%" style="stop-color:rgb(58,103,176);stop-opacity: 1"/>
<stop offset="56.220000000000006%" style="stop-color:rgb(53,127,189);stop-opacity: 1"/>
<stop offset="93.52000000000001%" style="stop-color:rgb(50,144,198);stop-opacity: 1"/>
</linearGradient>
<path style="stroke: none; stroke-width: 1; stroke-dasharray: none; stroke-linecap: butt; stroke-dashoffset: 0; stroke-linejoin: miter; stroke-miterlimit: 4; fill: url(#SVGID_SVGID_paint14_linear_17_17); fill-rule: nonzero; opacity: 1;" vector-effect="non-scaling-stroke"  transform=" translate(-13.14, -17.72)" d="M 10.6614 20.4778 C 14.6942 23.8093 19.1621 26.0795 23.3109 26.6396 C 22.6436 22.2467 18.959 16.4682 7.41205 10.1884 C 7.35124 10.1649 7.29292 10.1353 7.23798 10.0999 C 7.0639 10.0115 6.88983 9.95252 6.74476 9.86408 C 6.62871 9.80511 6.54168 9.77563 6.42563 9.71666 C 6.35149 9.67908 6.2737 9.64944 6.19353 9.62822 C 6.01664 9.54181 5.83206 9.47271 5.64229 9.42184 C 5.61328 9.42184 5.58427 9.39236 5.55525 9.39236 C 5.46822 9.36287 5.38118 9.30391 5.29414 9.27443 C 4.94599 9.1565 4.59784 8.9796 4.22068 8.86167 C 3.55339 8.65529 3.17623 8.9796 3.03117 9.4808 C 3.01652 9.53881 3.00681 9.598 3.00216 9.6577 C 2.97314 9.71666 3.00216 9.80511 3.00216 9.89356 C 3.00216 9.92304 3.00216 9.92304 2.97314 9.95252 C 2.98884 10.305 3.05732 10.6529 3.17623 10.9844 C 3.24085 11.1955 3.31837 11.4023 3.40833 11.6035 C 4.62685 14.4044 7.58613 17.9423 10.6614 20.4778 Z" stroke-linecap="round" />
</g>
<g transform="matrix(17.36 0 0 17.36 714.72 275.84)"  >
<linearGradient id="SVGID_SVGID_paint15_linear_18_18" gradientUnits="userSpaceOnUse" gradientTransform="matrix(1 0 0 1 0 0)"  x1="31.0894" y1="19.1266" x2="55.1568" y2="25.6432">
<stop offset="17.24%" style="stop-color:rgb(78,92,168);stop-opacity: 1"/>
<stop offset="99.37%" style="stop-color:rgb(31,195,243);stop-opacity: 1"/>
</linearGradient>
<path style="stroke: none; stroke-width: 1; stroke-dasharray: none; stroke-linecap: butt; stroke-dashoffset: 0; stroke-linejoin: miter; stroke-miterlimit: 4; fill: url(#SVGID_SVGID_paint15_linear_18_18); fill-rule: nonzero; opacity: 1;" vector-effect="non-scaling-stroke"  transform=" translate(-43.27, -23.21)" d="M 57.1685 17.4706 C 55.921 17.2937 53.1648 17.2347 47.7104 18.3845 C 47.0645 18.5406 46.4012 18.6099 45.7376 18.5909 C 45.0176 18.5075 44.308 18.3494 43.6197 18.1192 C 42.2076 17.6019 40.7093 17.3715 39.2098 17.4411 C 38.1824 17.5136 37.1919 17.8593 36.3375 18.4435 C 35.654 18.8938 35.0628 19.4745 34.5968 20.1535 C 33.6974 21.3918 31.8116 25.1655 29.2295 26.1679 C 31.2604 28.1138 34.3937 29.7353 37.324 28.7624 C 40.1382 27.819 41.8789 25.2835 42.4302 24.4579 C 42.9927 23.5903 43.6131 22.7629 44.287 21.9814 C 45.2379 20.9694 46.4257 20.2188 47.7394 19.7997 C 51.0469 18.6794 56.037 18.0013 57.2265 17.8833 C 57.3716 17.7654 57.3426 17.5001 57.1685 17.4706 Z" stroke-linecap="round" />
</g>
<g transform="matrix(17.36 0 0 17.36 674.23 232.16)"  >
<path style="stroke: none; stroke-width: 1; stroke-dasharray: none; stroke-linecap: butt; stroke-dashoffset: 0; stroke-linejoin: miter; stroke-miterlimit: 4; fill: rgb(40,46,56); fill-rule: nonzero; opacity: 1;" vector-effect="non-scaling-stroke"  transform=" translate(-40.94, -20.69)" d="M 40.9388 21.5752 C 41.4195 21.5752 41.8092 21.1792 41.8092 20.6907 C 41.8092 20.2022 41.4195 19.8062 40.9388 19.8062 C 40.4581 19.8062 40.0684 20.2022 40.0684 20.6907 C 40.0684 21.1792 40.4581 21.5752 40.9388 21.5752 Z" stroke-linecap="round" />
</g>
</svg>