<?xml version="1.0" encoding="UTF-8" standalone="no" ?>
<!DOCTYPE svg PUBLIC "-//W3C//DTD SVG 1.1//EN" "http://www.w3.org/Graphics/SVG/1.1/DTD/svg11.dtd">
<svg xmlns="http://www.w3.org/2000/svg" xmlns:xlink="http://www.w3.org/1999/xlink" version="1.1" width="500" height="500" viewBox="0 0 500 500" xml:space="preserve">
<desc>Created with Fabric.js 5.2.4</desc>
<defs>
</defs>
<rect x="0" y="0" width="100%" height="100%" fill="transparent"></rect>
<g transform="matrix(Infinity NaN NaN Infinity 0 0)" id="b8267d82-e312-4b70-a388-d95beb68bc17"  >
</g>
<g transform="matrix(1 0 0 1 250 250)" id="05faac4b-6178-4566-951a-4a70ab2691a8"  >
<rect style="stroke: none; stroke-width: 1; stroke-dasharray: none; stroke-linecap: butt; stroke-dashoffset: 0; stroke-linejoin: miter; stroke-miterlimit: 4; fill: rgb(255,255,255); fill-rule: nonzero; opacity: 1; visibility: hidden;" vector-effect="non-scaling-stroke"  x="-250" y="-250" rx="0" ry="0" width="500" height="500" />
</g>
<g transform="matrix(3.58 0 0 3.58 260.45 453.32)"  >
<path style="stroke: none; stroke-width: 1; stroke-dasharray: none; stroke-linecap: butt; stroke-dashoffset: 0; stroke-linejoin: miter; stroke-miterlimit: 4; fill: rgb(35,157,224); fill-rule: nonzero; opacity: 1;" vector-effect="non-scaling-stroke"  transform=" translate(-106.92, -157.64)" d="M 153.24933 145.2828 C 148.904 145.2828 146.82 146.936 144.408 148.85054 C 141.78932999999998 150.93067 138.81866 153.2864 133.07974 153.2864 C 127.34013999999999 153.2864 124.37079999999999 150.93067 121.75160999999999 148.85054 C 119.34013999999999 146.936 117.25680999999999 145.2828 112.91306999999999 145.2828 C 108.56773999999999 145.2828 106.4844 146.936 104.07293999999999 148.85054 C 101.45306999999998 150.93067 98.4844 153.2864 92.74479999999998 153.2864 C 87.00519999999997 153.2864 84.03640999999999 150.93067 81.41719999999998 148.85054 C 79.00519999999997 146.936 76.92185999999998 145.2828 72.57813999999998 145.2828 C 68.23441999999997 145.2828 66.15159999999997 146.936 63.739599999999975 148.85054 C 61.87460409530831 150.49179571591137 59.707388453228006 151.75352917488897 57.359339999999975 152.56507 C 68.60919052458704 162.48122417323742 82.75736139024131 168.50442119216405 97.70266999999998 169.74014 C 98.12079999999999 169.77454 98.54066999999998 169.80787 98.96146999999998 169.83599999999998 C 100.46666999999998 169.93332999999998 101.98066999999998 169.99999999999997 103.51039999999998 169.99999999999997 C 105.04066999999998 169.99999999999997 106.55466999999997 169.93332999999998 108.05986999999998 169.83599999999998 C 108.48066999999998 169.80786999999998 108.89946999999998 169.77453999999997 109.31932999999998 169.74014 C 127.5911026861761 168.2168343009131 144.53219806417243 159.5732949347744 156.48932999999997 145.67347 C 155.43043869998607 145.40545275125817 154.3415796452565 145.27416457893696 153.24933 145.28281" stroke-linecap="round" />
</g>
<g transform="matrix(3.58 0 0 3.58 251.48 179.53)"  >
<path style="stroke: none; stroke-width: 1; stroke-dasharray: none; stroke-linecap: butt; stroke-dashoffset: 0; stroke-linejoin: miter; stroke-miterlimit: 4; fill: rgb(35,157,224); fill-rule: nonzero; opacity: 1;" vector-effect="non-scaling-stroke"  transform=" translate(-104.12, -80.25)" d="M 52.412 93.07081 C 57.135999999999996 93.07081 59.464529999999996 91.22294 61.92973 89.26561 C 64.53026 87.20107 67.21933 85.06613999999999 72.57813 85.06613999999999 C 77.93693 85.06613999999999 80.626 87.20107999999999 83.22706 89.26561 C 85.69212999999999 91.22294 88.02026 93.07081 92.7448 93.07081 C 97.46934 93.07081 99.79733 91.22294 102.26307 89.26561 C 104.8636 87.20107 107.55307 85.06613999999999 112.91307 85.06613999999999 C 118.27081000000001 85.06613999999999 120.96094000000001 87.20107999999999 123.56147 89.26561 C 126.02601 91.22294 128.35414 93.07081 133.07974 93.07081 C 137.80533999999997 93.07081 140.13333999999998 91.22294 142.59867 89.26561 C 145.19867 87.20107 147.88934 85.06613999999999 153.24934 85.06613999999999 C 158.60799 85.06613999999999 161.29867 87.20107999999999 163.89999999999998 89.26561 C 166.31733999999997 91.18494 168.61866999999998 92.98961 173.164 93.05787 C 172.53984341600508 86.7789164977315 171.06268856471107 80.61434757510891 168.77332999999996 74.73441 C 166.64796066112913 73.96576786302104 164.68724257624237 72.80187153084363 162.99465999999998 71.30414999999999 C 160.47733 69.30681999999999 158.10134 67.41975 153.24934 67.41975 C 148.39733999999999 67.41975 146.02000999999998 69.30681999999999 143.50401 71.30414999999999 C 140.95067 73.33027999999999 138.31201 75.42455 133.07974 75.42455 C 127.84746999999999 75.42455 125.20840999999999 73.32974999999999 122.65626999999999 71.30414999999999 C 120.14066999999999 69.30681999999999 117.764 67.41975 112.91306999999999 67.41975 C 108.06146999999999 67.41975 105.68387999999999 69.30681999999999 103.16828 71.30414999999999 C 100.61560999999999 73.33027999999999 97.97707 75.42455 92.74481 75.42455 C 87.51308 75.42455 84.87454 73.32974999999999 82.3224 71.30414999999999 C 79.80627 69.30681999999999 77.42973 67.41975 72.57813 67.41975 C 67.72707 67.41975 65.35053 69.30681999999999 62.83493 71.30414999999999 C 60.28227 73.32974999999999 57.64373 75.42455 52.412 75.42455 C 47.17973 75.42455 44.541199999999996 73.32974999999999 41.98907 71.30414999999999 C 41.423469999999995 70.85468999999999 40.86147 70.41454999999999 40.28027 69.99695 C 37.95371220327968 74.88228620252373 36.20624863062537 80.02285920509622 35.07345999999999 85.31400000000001 C 38.62546 85.9172 40.80106 87.60413999999999 42.893719999999995 89.26559999999999 C 45.35878999999999 91.22294 47.687459999999994 93.07079999999999 52.411989999999996 93.07079999999999" stroke-linecap="round" />
</g>
<g transform="matrix(3.58 0 0 3.58 252.73 81.79)"  >
<path style="stroke: none; stroke-width: 1; stroke-dasharray: none; stroke-linecap: butt; stroke-dashoffset: 0; stroke-linejoin: miter; stroke-miterlimit: 4; fill: rgb(35,157,224); fill-rule: nonzero; opacity: 1;" vector-effect="non-scaling-stroke"  transform=" translate(-104.5, -52.17)" d="M 52.412 74.3328 C 57.263059999999996 74.3328 59.64013 72.44587 62.15573 70.44893 C 64.70786 68.42347000000001 67.3464 66.328 72.57813 66.328 C 77.80986 66.328 80.44839 68.42347000000001 83.00053 70.44893 C 85.5172 72.44586000000001 87.8932 74.3328 92.7448 74.3328 C 97.5964 74.3328 99.97294 72.44587 102.4896 70.44893 C 105.04173999999999 68.42347000000001 107.67974 66.328 112.91306999999999 66.328 C 118.14479999999999 66.328 120.78227 68.42347000000001 123.33493999999999 70.44893 C 125.85161 72.44586000000001 128.22814 74.3328 133.07974 74.3328 C 137.93067 74.3328 140.308 72.44587 142.82399999999998 70.44893 C 145.37733999999998 68.42347000000001 148.016 66.328 153.24934 66.328 C 158.48134 66.328 161.12133999999998 68.42347000000001 163.67334 70.44893 C 165.04589310327708 71.63674169479349 166.58204137506303 72.62111552173678 168.23467 73.37186 C 157.78054824989698 47.93642900532949 133.39671608810485 30.982968319862962 105.91285429667538 30.04108059819697 C 78.4289925052459 29.099192876530978 52.94172290761534 44.34354227444898 40.77080000000004 69.00359999999998 C 41.43067 69.46973000000001 42.05267 69.96094000000001 42.6672 70.44894000000001 C 45.18386 72.44587000000001 47.5604 74.33281000000001 52.412 74.33281000000001" stroke-linecap="round" />
</g>
<g transform="matrix(3.58 0 0 3.58 246.08 383.12)"  >
<path style="stroke: none; stroke-width: 1; stroke-dasharray: none; stroke-linecap: butt; stroke-dashoffset: 0; stroke-linejoin: miter; stroke-miterlimit: 4; fill: rgb(35,157,224); fill-rule: nonzero; opacity: 1;" vector-effect="non-scaling-stroke"  transform=" translate(-102.58, -137.55)" d="M 153.24933 125.81613 C 148.77732999999998 125.81613 146.64666 127.50734 144.18266 129.464 C 141.60932 131.5068 138.69332 133.82133 133.07972999999998 133.82133 C 127.46613999999997 133.82133 124.55105999999998 131.5068 121.97812999999998 129.464 C 119.51199999999997 127.50734 117.38278999999997 125.81613 112.91305999999997 125.81613 C 108.44173999999997 125.81613 106.31252999999997 127.50734 103.84639999999997 129.464 C 101.27346999999997 131.5068 98.35733999999998 133.82133 92.74479999999997 133.82133 C 87.13225999999996 133.82133 84.21612999999996 131.5068 81.64318999999998 129.464 C 79.17758999999998 127.50734 77.04891999999998 125.81613 72.57812999999997 125.81613 C 68.10733999999997 125.81613 65.97865999999998 127.50734 63.513059999999975 129.464 C 60.940129999999975 131.5068 58.025059999999975 133.82133 52.41199999999998 133.82133 C 46.799459999999975 133.82133 43.88332999999998 131.5068 41.31039999999998 129.464 C 40.65785999999998 128.94586999999999 40.02652999999998 128.45 39.37079999999998 127.9964 C 42.83475598078373 135.89505071900746 47.72319838235543 143.08852981607487 53.79172999999999 149.2172 C 57.22185999999998 148.9016 59.11145999999998 147.41452999999998 61.25052999999998 145.71613 C 63.87025999999998 143.63746999999998 66.83905999999999 141.28026 72.57812999999999 141.28026 C 78.31772999999998 141.28026 81.28639999999999 143.63746 83.90572999999999 145.71613 C 86.31773 147.63066999999998 88.40105999999999 149.28386 92.74479 149.28386 C 97.08905999999999 149.28386 99.17184999999999 147.63067 101.58492 145.71613 C 104.20306 143.63746999999998 107.17345999999999 141.28026 112.91306 141.28026 C 118.65266000000001 141.28026 121.62079 143.63746 124.23959 145.71613 C 126.65266000000001 147.63066999999998 128.73599000000002 149.28386 133.07972 149.28386 C 137.42398 149.28386 139.50799 147.63067 141.91866000000002 145.71613 C 144.53866000000002 143.63746999999998 147.50934 141.28026 153.24933000000001 141.28026 C 155.2817390195557 141.25115378494945 157.30059165196352 141.61544453869308 159.19465000000002 142.35306 C 161.69471662572897 139.07060757101516 163.90016830320783 135.57388506502969 165.78533000000002 131.9036 C 164.56637476098626 131.18248241401724 163.4059189324865 130.36677258168908 162.31466 129.46399000000002 C 159.85066 127.50733000000002 157.72 125.81612000000003 153.24933000000001 125.81612000000003" stroke-linecap="round" />
</g>
<g transform="matrix(3.58 0 0 3.58 250 247.39)"  >
<path style="stroke: none; stroke-width: 1; stroke-dasharray: none; stroke-linecap: butt; stroke-dashoffset: 0; stroke-linejoin: miter; stroke-miterlimit: 4; fill: rgb(35,157,224); fill-rule: nonzero; opacity: 1;" vector-effect="non-scaling-stroke"  transform=" translate(-103.48, -99.35)" d="M 173.30133 94.8776 C 168.03066 94.8416 165.34799 92.73746 162.76799 90.69067 C 160.30399 88.73387 157.97333 86.88547 153.24933 86.88547 C 148.524 86.88547 146.19465 88.73387 143.72932999999998 90.69067 C 141.12932999999998 92.7552 138.43865999999997 94.89013 133.07972999999998 94.89013 C 127.71972999999998 94.89013 125.03119999999998 92.7552 122.42972999999998 90.69067 C 119.96452999999998 88.73387 117.63639999999998 86.88547 112.91306999999998 86.88547 C 108.18745999999997 86.88547 105.85932999999997 88.73387 103.39479999999998 90.69067 C 100.79265999999997 92.7552 98.10412999999997 94.89013 92.74479999999997 94.89013 C 87.38599999999997 94.89013 84.69692999999997 92.7552 82.09585999999997 90.69067 C 79.63065999999998 88.73387 77.30266999999998 86.88547 72.57812999999997 86.88547 C 67.85412999999997 86.88547 65.52599999999997 88.73387 63.06039999999997 90.69067 C 60.46039999999997 92.7552 57.77079999999997 94.89013 52.41199999999997 94.89013 C 47.05265999999997 94.89013 44.36359999999997 92.7552 41.76306999999997 90.69067 C 39.77652999999997 89.114 37.85679999999997 87.62494 34.72292999999997 87.09947 C 34.09198788347832 90.46661468822353 33.709887740164426 93.87565521282497 33.57972999999998 97.29892999999997 C 33.54479999999997 98.19693 33.51039999999997 99.09373 33.51039999999997 100 C 33.51039999999997 100.90627 33.54479999999997 101.80413 33.57972999999997 102.70213 C 33.594269999999966 103.09318999999999 33.60159999999997 103.4864 33.62292999999997 103.87599999999999 C 38.213069999999966 104.22653 40.81826999999997 106.25519999999999 43.12026999999997 108.08279999999999 C 45.53386999999997 109.99839999999999 47.81399999999997 111.80825999999999 52.41199999999997 111.80825999999999 C 57.00999999999997 111.80825999999999 59.28959999999997 109.99839999999999 61.70306999999997 108.08279999999999 C 64.22973999999996 106.07652999999999 67.09212999999997 103.80412999999999 72.57812999999997 103.80412999999999 C 78.06412999999998 103.80412999999999 80.92706999999997 106.07652999999999 83.45306999999997 108.08279999999999 C 85.86719999999997 109.99839999999999 88.14733999999997 111.80825999999999 92.74479999999997 111.80825999999999 C 97.34225999999997 111.80825999999999 99.62292999999997 109.99839999999999 102.03639999999997 108.08279999999999 C 104.56252999999997 106.07652999999999 107.42545999999997 103.80412999999999 112.91306999999998 103.80412999999999 C 118.39839999999998 103.80412999999999 121.26199999999997 106.07652999999999 123.78745999999998 108.08279999999999 C 126.20212999999998 109.99839999999999 128.48172999999997 111.80825999999999 133.07972999999998 111.80825999999999 C 137.67732999999998 111.80825999999999 139.95865999999998 109.99839999999999 142.37198999999998 108.08279999999999 C 144.89864999999998 106.07652999999999 147.76266999999999 103.80412999999999 153.24931999999998 103.80412999999999 C 158.73596999999998 103.80412999999999 161.59865 106.07652999999999 164.12532 108.08279999999999 C 166.36932 109.86359999999999 168.52265 111.53334 172.50265 111.76307 Q 173.04465 108.56846 173.29065 105.28333 C 173.35599 104.42706000000001 173.40932 103.56933000000001 173.44132 102.7052 L 173.44132 97.29586 C 173.40931999999998 96.43066 173.30132 94.87759 173.30132 94.87759" stroke-linecap="round" />
</g>
<g transform="matrix(3.58 0 0 3.58 248.14 315.25)"  >
<path style="stroke: none; stroke-width: 1; stroke-dasharray: none; stroke-linecap: butt; stroke-dashoffset: 0; stroke-linejoin: miter; stroke-miterlimit: 4; fill: rgb(35,157,224); fill-rule: nonzero; opacity: 1;" vector-effect="non-scaling-stroke"  transform=" translate(-102.93, -118.45)" d="M 153.24933 106.35107 C 148.64933 106.35107 146.36933 108.16093000000001 143.956 110.0776 C 141.42934 112.0828 138.56533 114.3552 133.07972999999998 114.3552 C 127.59372999999998 114.3552 124.73066999999999 112.08279999999999 122.20412999999998 110.07759 C 119.79065999999997 108.16093000000001 117.51039999999998 106.35106 112.91305999999997 106.35106 C 108.31505999999997 106.35106 106.03386999999998 108.16093000000001 103.61972999999998 110.07759 C 101.09372999999998 112.08279 98.23065999999997 114.3552 92.74479999999997 114.3552 C 87.25893999999997 114.3552 84.39585999999997 112.08279999999999 81.86972999999998 110.07759 C 79.45572999999997 108.16093000000001 77.17546999999998 106.35106 72.57812999999997 106.35106 C 67.98078999999997 106.35106 65.70052999999997 108.16093000000001 63.28692999999997 110.07759 C 60.76092999999997 112.08279 57.89786999999997 114.3552 52.41199999999997 114.3552 C 46.926539999999974 114.3552 44.06252999999997 112.08279999999999 41.53639999999997 110.07759 C 39.41506999999997 108.39372 37.39532999999997 106.79426 33.81826999999997 106.43026 C 34.34530414269521 112.21388263753599 35.59605268692033 117.90850706615362 37.54119999999999 123.38066000000005 C 39.66794465148937 124.20323850935411 41.63306934564602 125.39421199135482 43.34639999999995 126.89893 C 45.81199999999997 128.85626000000002 47.94066999999997 130.54693 52.41199999999996 130.54693 C 56.88279999999996 130.54693 59.011999999999965 128.85626 61.47706999999996 126.89893000000001 C 64.04999999999997 124.8568 66.96559999999997 122.54213000000001 72.57813999999996 122.54213000000001 C 78.19067999999996 122.54213000000001 81.10680999999997 124.85679000000002 83.67973999999997 126.89893000000001 C 86.14479999999996 128.85626000000002 88.27399999999997 130.54693 92.74479999999997 130.54693 C 97.21559999999997 130.54693 99.34533999999996 128.85626 101.80986999999998 126.89893000000001 C 104.38279999999997 124.8568 107.29946999999997 122.54213000000001 112.91305999999997 122.54213000000001 C 118.52505999999997 122.54213000000001 121.44172999999998 124.85679000000002 124.01399999999997 126.89893000000001 C 126.47919999999996 128.85626000000002 128.60839999999996 130.54693 133.07972999999996 130.54693 C 137.55065999999997 130.54693 139.67998999999995 128.85626 142.14531999999997 126.89893000000001 C 144.71865999999997 124.8568 147.63599999999997 122.54213000000001 153.24931999999995 122.54213000000001 C 158.86131999999995 122.54213000000001 161.77863999999997 124.85679000000002 164.35197999999997 126.89893000000001 C 165.2572114773869 127.65123510732082 166.21325714369598 128.34020358139733 167.21330999999998 128.96093000000002 C 169.3639902738642 124.26349477387042 170.98293542680162 119.34040810633995 172.04000000000002 114.28334 C 167.45066 113.93387 164.844 111.90414 162.54134 110.07760999999999 C 160.12801 108.16094 157.84801 106.35108 153.24934 106.35108" stroke-linecap="round" />
</g>
<g transform="matrix(3.58 0 0 3.58 259.76 416.26)"  >
<path style="stroke: none; stroke-width: 1; stroke-dasharray: none; stroke-linecap: butt; stroke-dashoffset: 0; stroke-linejoin: miter; stroke-miterlimit: 4; fill: rgb(255,255,255); fill-rule: nonzero; opacity: 1;" vector-effect="non-scaling-stroke"  transform=" translate(-106.49, -147.28)" d="M 141.91866 145.71614 C 139.50799999999998 147.63067 137.42399999999998 149.28387 133.07972999999998 149.28387 C 128.736 149.28387 126.65265999999998 147.63067 124.23958999999998 145.71614 C 121.62079999999997 143.63747 118.65265999999998 141.28027 112.91305999999997 141.28027 C 107.17345999999996 141.28027 104.20305999999997 143.63747 101.58492999999997 145.71614 C 99.17185999999997 147.63067 97.08906999999996 149.28387 92.74479999999997 149.28387 C 88.40105999999997 149.28387 86.31772999999997 147.63067 83.90572999999998 145.71614 C 81.28638999999998 143.63747 78.31772999999998 141.28027 72.57811999999998 141.28027 C 66.83905999999999 141.28027 63.87025999999999 143.63747 61.25051999999998 145.71614 C 59.11145999999998 147.41454 57.22185999999998 148.9016 53.791719999999984 149.2172 C 54.93958999999998 150.376 56.13438999999998 151.488 57.35931999999998 152.56507 C 59.707368453228014 151.75352917488897 61.87458409530832 150.49179571591137 63.73957999999998 148.85054 C 66.15157999999998 146.936 68.23437999999999 145.2828 72.57811999999998 145.2828 C 76.92185999999998 145.2828 79.00518999999998 146.936 81.41717999999999 148.85054 C 84.03638 150.93067 87.00517999999998 153.2864 92.74479 153.2864 C 98.48440000000001 153.2864 101.45306 150.93067 104.07292 148.85054 C 106.48438999999999 146.936 108.56772 145.2828 112.91306 145.2828 C 117.25679 145.2828 119.34012 146.936 121.75159000000001 148.85054 C 124.37079000000001 150.93067 127.34012000000001 153.2864 133.07972 153.2864 C 138.81866000000002 153.2864 141.78932 150.93067 144.40799 148.85054 C 146.81999000000002 146.936 148.90399000000002 145.2828 153.24931 145.2828 C 154.34156000729257 145.27415905564482 155.43041891495866 145.4054505709096 156.48931000000002 145.67347 C 157.42131 144.5932 158.32798000000003 143.48907 159.19464000000002 142.35307 C 157.300583025744 141.61544966868635 155.28172943452563 141.25115874193065 153.24932 141.28027 C 147.50932 141.28027 144.53866000000002 143.63747 141.91865 145.71614" stroke-linecap="round" />
</g>
<g transform="matrix(3.58 0 0 3.58 245.95 349.37)"  >
<path style="stroke: none; stroke-width: 1; stroke-dasharray: none; stroke-linecap: butt; stroke-dashoffset: 0; stroke-linejoin: miter; stroke-miterlimit: 4; fill: rgb(255,255,255); fill-rule: nonzero; opacity: 1;" vector-effect="non-scaling-stroke"  transform=" translate(-102.38, -128.18)" d="M 153.24933 122.54213 C 147.636 122.54213 144.71866 124.8568 142.14533 126.89894 C 139.68 128.85627 137.55067 130.54694 133.07973 130.54694 C 128.60840000000002 130.54694 126.4792 128.85627 124.01400000000001 126.89894000000001 C 121.44174000000001 124.85681000000001 118.52507000000001 122.54213000000001 112.91307 122.54213000000001 C 107.29947 122.54213000000001 104.3828 124.85680000000002 101.80987 126.89894000000001 C 99.34533 128.85627000000002 97.21560000000001 130.54694 92.74481 130.54694 C 88.27402 130.54694 86.14481 128.85627 83.67974 126.89894000000001 C 81.10681 124.85681000000001 78.19068 122.54213000000001 72.57813999999999 122.54213000000001 C 66.96559999999998 122.54213000000001 64.05 124.8568 61.47706 126.89894 C 59.012 128.85627 56.8828 130.54694 52.412 130.54694 C 47.94066 130.54694 45.812 128.85627 43.3464 126.89894000000001 C 41.633064265158694 125.39422891912415 39.66794086095605 124.2032562189064 37.541199999999996 123.38067000000001 Q 38.374790000000004 125.72847000000002 39.3708 127.99640000000001 C 40.02653 128.45000000000002 40.65787 128.94586 41.3104 129.464 C 43.88333 131.5068 46.79946 133.82133 52.412 133.82133 C 58.025059999999996 133.82133 60.940129999999996 131.5068 63.513059999999996 129.464 C 65.97865999999999 127.50734 68.10732999999999 125.81613 72.57813 125.81613 C 77.04893000000001 125.81613 79.17759 127.50734 81.64319 129.464 C 84.21613 131.5068 87.13226 133.82133 92.7448 133.82133 C 98.35734 133.82133 101.27347 131.5068 103.8464 129.464 C 106.31253000000001 127.50734 108.44174000000001 125.81613 112.91306 125.81613 C 117.3828 125.81613 119.512 127.50734 121.97813000000001 129.464 C 124.55106 131.5068 127.46613 133.82133 133.07973 133.82133 C 138.69333 133.82133 141.60934 131.5068 144.18266 129.464 C 146.64666 127.50734 148.77732 125.81613 153.24933 125.81613 C 157.72 125.81613 159.85065999999998 127.50734 162.31465999999998 129.464 C 163.40591993563993 130.36677828205308 164.56637568570378 131.18248471563956 165.78533 131.9036 Q 166.53332999999998 130.45141 167.21332999999998 128.96093000000002 C 166.21327389066448 128.3402084402 165.25722789732262 127.6512397304493 164.35199999999998 126.89893000000002 C 161.77865999999997 124.85680000000002 158.86132999999998 122.54213000000001 153.24933999999996 122.54213000000001" stroke-linecap="round" />
</g>
<g transform="matrix(3.58 0 0 3.58 248.12 281.29)"  >
<path style="stroke: none; stroke-width: 1; stroke-dasharray: none; stroke-linecap: butt; stroke-dashoffset: 0; stroke-linejoin: miter; stroke-miterlimit: 4; fill: rgb(255,255,255); fill-rule: nonzero; opacity: 1;" vector-effect="non-scaling-stroke"  transform=" translate(-103.06, -109.08)" d="M 153.24933 103.80414 C 147.76265999999998 103.80414 144.89865999999998 106.07653 142.37199999999999 108.08281000000001 C 139.95866999999998 109.99841 137.67734 111.80827000000001 133.07972999999998 111.80827000000001 C 128.48172999999997 111.80827000000001 126.20212999999998 109.99841 123.78745999999998 108.08281000000001 C 121.26199999999999 106.07654000000001 118.39839999999998 103.80414 112.91305999999999 103.80414 C 107.42546999999999 103.80414 104.56252999999998 106.07653 102.03639999999999 108.08281000000001 C 99.62292999999998 109.99841 97.34212999999998 111.80827000000001 92.74479999999998 111.80827000000001 C 88.14746999999998 111.80827000000001 85.86719999999998 109.99841 83.45305999999998 108.08281000000001 C 80.92705999999998 106.07654000000001 78.06398999999998 103.80414 72.57812999999997 103.80414 C 67.09226999999997 103.80414 64.22919999999998 106.07653 61.703069999999975 108.08281000000001 C 59.289069999999974 109.99841 57.009859999999975 111.80827000000001 52.41199999999998 111.80827000000001 C 47.81453999999998 111.80827000000001 45.53386999999998 109.99841 43.12026999999998 108.08281000000001 C 40.81826999999998 106.25521 38.21306999999997 104.22654000000001 33.62293999999998 103.87601000000001 C 33.669739999999976 104.73227000000001 33.740139999999975 105.58281000000001 33.81826999999998 106.43027000000001 C 37.395339999999976 106.79427000000001 39.41506999999998 108.39374000000001 41.53639999999998 110.0776 C 44.06252999999998 112.0828 46.92652999999998 114.3552 52.41199999999998 114.3552 C 57.897869999999976 114.3552 60.76092999999997 112.08279999999999 63.28693999999998 110.07759 C 65.70052999999999 108.16093000000001 67.98066999999998 106.35106 72.57813999999998 106.35106 C 77.17560999999998 106.35106 79.45573999999998 108.16093000000001 81.86973999999998 110.07759 C 84.39586999999997 112.08279 87.25879999999998 114.3552 92.74479999999998 114.3552 C 98.23079999999999 114.3552 101.09373999999998 112.08279999999999 103.61973999999998 110.07759 C 106.03386999999998 108.16093000000001 108.31506999999998 106.35106 112.91306999999998 106.35106 C 117.51039999999998 106.35106 119.79066999999998 108.16093000000001 122.20413999999998 110.07759 C 124.73066999999998 112.08279 127.59373999999998 114.3552 133.07974 114.3552 C 138.56534 114.3552 141.42934 112.08279999999999 143.956 110.07759 C 146.36933 108.16093000000001 148.64933 106.35106 153.24933 106.35106 C 157.84798999999998 106.35106 160.12798999999998 108.16093000000001 162.54133 110.07759 C 164.844 111.90412 167.45066 113.93386 172.04 114.28332 C 172.21466999999998 113.44999 172.35999999999999 112.60679 172.50266 111.76252000000001 C 168.52266 111.53332 166.36933 109.86359000000002 164.12533 108.08278000000001 C 161.59867 106.07652000000002 158.736 103.80411000000001 153.24933 103.80411000000001" stroke-linecap="round" />
</g>
<g transform="matrix(3.58 0 0 3.58 251.16 214.4)"  >
<path style="stroke: none; stroke-width: 1; stroke-dasharray: none; stroke-linecap: butt; stroke-dashoffset: 0; stroke-linejoin: miter; stroke-miterlimit: 4; fill: rgb(255,255,255); fill-rule: nonzero; opacity: 1;" vector-effect="non-scaling-stroke"  transform=" translate(-104.01, -89.98)" d="M 52.412 94.89014 C 57.7708 94.89014 60.4604 92.7552 63.0604 90.69068 C 65.52547 88.73388 67.85413 86.88548 72.57813 86.88548 C 77.30267 86.88548 79.63066 88.73388 82.09586 90.69068 C 84.69693000000001 92.75521 87.386 94.89014 92.7448 94.89014 C 98.1036 94.89014 100.79266 92.7552 103.3948 90.69068 C 105.85933 88.73388 108.18746 86.88548 112.91306 86.88548 C 117.63640000000001 86.88548 119.96453 88.73388 122.42973 90.69068 C 125.03120000000001 92.75521 127.71973000000001 94.89014 133.07973 94.89014 C 138.43867 94.89014 141.12932 92.7552 143.72932 90.69068 C 146.19465 88.73388 148.52398 86.88548 153.24932 86.88548 C 157.97332 86.88548 160.30399 88.73388 162.76798000000002 90.69068 C 165.34798000000004 92.73748 168.03065000000004 94.84734 173.30132000000003 94.88335000000001 L 173.29066000000003 94.71668000000001 C 173.24931000000004 94.16361 173.21866000000003 93.60735000000001 173.16400000000004 93.05788000000001 C 168.61867000000004 92.98961000000001 166.31733000000006 91.18495000000001 163.90000000000003 89.26561000000001 C 161.29866000000004 87.20108 158.60800000000003 85.06615000000001 153.24933000000004 85.06615000000001 C 147.88933000000003 85.06615000000001 145.19867000000005 87.20109000000001 142.59867000000006 89.26561000000001 C 140.13333000000006 91.22295000000001 137.80534000000006 93.07081000000001 133.07974000000004 93.07081000000001 C 128.35414000000003 93.07081000000001 126.02600000000004 91.22295000000001 123.56147000000004 89.26561000000001 C 120.96093000000005 87.20108 118.27080000000004 85.06615000000001 112.91307000000005 85.06615000000001 C 107.55307000000005 85.06615000000001 104.86361000000005 87.20109000000001 102.26307000000004 89.26561000000001 C 99.79734000000005 91.22295000000001 97.46934000000005 93.07081000000001 92.74480000000004 93.07081000000001 C 88.02026000000004 93.07081000000001 85.69213000000003 91.22295000000001 83.22707000000004 89.26561000000001 C 80.62600000000003 87.20108 77.93693000000005 85.06615000000001 72.57814000000005 85.06615000000001 C 67.21935000000005 85.06615000000001 64.53027000000004 87.20109000000001 61.929740000000045 89.26561000000001 C 59.464530000000046 91.22295000000001 57.136000000000045 93.07081000000001 52.41200000000005 93.07081000000001 C 47.68747000000005 93.07081000000001 45.35881000000005 91.22295000000001 42.89374000000005 89.26561000000001 C 40.80107000000005 87.60415 38.62547000000005 85.91722000000001 35.07347000000005 85.31401000000001 C 34.94694000000005 85.90574000000001 34.83387000000005 86.50267000000001 34.72294000000005 87.09948000000001 C 37.85680000000005 87.62494000000001 39.776540000000054 89.11401000000001 41.76307000000005 90.69068000000001 C 44.36360000000005 92.75521000000002 47.05267000000005 94.89014000000002 52.41200000000005 94.89014000000002" stroke-linecap="round" />
</g>
<g transform="matrix(3.58 0 0 3.58 253.38 146.32)"  >
<path style="stroke: none; stroke-width: 1; stroke-dasharray: none; stroke-linecap: butt; stroke-dashoffset: 0; stroke-linejoin: miter; stroke-miterlimit: 4; fill: rgb(255,255,255); fill-rule: nonzero; opacity: 1;" vector-effect="non-scaling-stroke"  transform=" translate(-104.53, -70.88)" d="M 52.412 75.42454 C 57.64373 75.42454 60.28226 73.32973999999999 62.83493 71.30413999999999 C 65.35053 69.30680999999998 67.72706 67.41973999999999 72.57813 67.41973999999999 C 77.42973 67.41973999999999 79.80626000000001 69.30680999999998 82.32239 71.30413999999999 C 84.87452 73.32973999999999 87.51306 75.42454 92.74479 75.42454 C 97.97704999999999 75.42454 100.61559 73.33027999999999 103.16825999999999 71.30413999999999 C 105.68386 69.30680999999998 108.06145 67.41973999999999 112.91305999999999 67.41973999999999 C 117.76398999999999 67.41973999999999 120.14065 69.30680999999998 122.65624999999999 71.30413999999999 C 125.20837999999999 73.32973999999999 127.84731999999998 75.42454 133.07971999999998 75.42454 C 138.31212 75.42454 140.95065999999997 73.33027999999999 143.50397999999998 71.30413999999999 C 146.01997999999998 69.30680999999998 148.39730999999998 67.41973999999999 153.24930999999998 67.41973999999999 C 158.10130999999998 67.41973999999999 160.47731 69.30680999999998 162.99463999999998 71.30413999999999 C 164.68722390775915 72.80185698203343 166.64793715163154 73.96575584769748 168.77329999999998 74.73441 C 168.59596999999997 74.27866999999999 168.41995999999997 73.82240999999999 168.23462999999998 73.37187 C 166.58200137506302 72.62112552173679 165.04585310327707 71.63675169479349 163.67329999999998 70.44894000000001 C 161.1213 68.42348000000001 158.48129999999998 66.32801 153.24929999999998 66.32801 C 148.01596999999998 66.32801 145.3773 68.42348000000001 142.82395999999997 70.44894000000001 C 140.30795999999998 72.44587000000001 137.93063999999998 74.33281000000001 133.07968999999997 74.33281000000001 C 128.22808999999998 74.33281000000001 125.85155999999998 72.44588 123.33488999999997 70.44894000000001 C 120.78221999999997 68.42348000000001 118.14475999999998 66.32801 112.91302999999998 66.32801 C 107.67968999999998 66.32801 105.04169999999998 68.42348000000001 102.48955999999998 70.44894000000001 C 99.97288999999998 72.44587000000001 97.59635999999998 74.33281000000001 92.74475999999999 74.33281000000001 C 87.89316 74.33281000000001 85.51715999999999 72.44588 83.00048999999999 70.44894000000001 C 80.44835 68.42348 77.80982 66.328 72.57809 66.328 C 67.34636 66.328 64.70782 68.42347000000001 62.15569000000001 70.44893 C 59.64009000000001 72.44586000000001 57.263020000000004 74.3328 52.41196000000001 74.3328 C 47.56036000000001 74.3328 45.18382000000001 72.44587 42.66716000000001 70.44893 C 42.05262000000001 69.96093 41.43063000000001 69.46973 40.77076000000001 69.00359 C 40.60622000000001 69.33492 40.43956000000001 69.66359 40.28023000000001 69.99693 C 40.86143000000001 70.41453 41.42343000000001 70.85466000000001 41.989030000000014 71.30413 C 44.54116000000001 73.32973 47.179690000000015 75.42453 52.411960000000015 75.42453" stroke-linecap="round" />
</g>
</svg>