<svg width="512" height="203.46" xmlns="http://www.w3.org/2000/svg">

 <g>
  <title>Layer 1</title>
  <path id="svg_2" fill="#cccccc" d="m511.4,0.59999l0,85.84l-181.5,0l0,-85.84l181.5,0m0.6,-0.6l-182.7,0l0,87l182.7,0l0,-87z" class="b"/>
  <path id="svg_3" fill="#cccccc" d="m336.48,10.53999l0.63,-0.79l1.59,-1.7l1.29,0l-2.12,2.26l2.25,3l-1.32,0l-1.69,-2.31l-0.61,0.5l0,1.81l-1.1,0l0,-7.41l1.11,0l0,3.61l-0.06,1l0.03,0.03z" class="b"/>
  <path id="svg_4" fill="#cccccc" d="m344.68,13.26999l-0.16,-0.69l-0.05,0a1.64,1.64 0 0 1 -0.67,0.57a2.17,2.17 0 0 1 -1,0.21a2,2 0 0 1 -1.43,-0.47a2,2 0 0 1 -0.47,-1.45l0,-3.44l1.13,0l0,3.25a1.41,1.41 0 0 0 0.25,0.91a0.93,0.93 0 0 0 0.77,0.3a1.25,1.25 0 0 0 1,-0.42a2.32,2.32 0 0 0 0.33,-1.41l0,-2.63l1.12,0l0,5.27l-0.82,0z" class="b"/>
  <path id="svg_5" fill="#cccccc" d="m349.8,7.90999a1.85,1.85 0 0 1 1.54,0.71a3.29,3.29 0 0 1 0.55,2a3.22,3.22 0 0 1 -0.56,2a2,2 0 0 1 -3.1,0l-0.07,0l-0.21,0.63l-0.83,0l0,-7.41l1.11,0l0,1.76c0,0.13 0,0.33 0,0.58s0,0.42 0,0.49l0,0a1.79,1.79 0 0 1 1.57,-0.76zm-0.29,0.91a1.15,1.15 0 0 0 -1,0.4a2.32,2.32 0 0 0 -0.31,1.33l0,0.08a2.4,2.4 0 0 0 0.31,1.39a1.14,1.14 0 0 0 1,0.43a1,1 0 0 0 0.9,-0.47a2.47,2.47 0 0 0 0.31,-1.36q0.08,-1.8 -1.17,-1.8l-0.04,0z" class="b"/>
  <path id="svg_6" fill="#cccccc" d="m355.52,13.35999a2.6,2.6 0 0 1 -1.92,-0.71a2.74,2.74 0 0 1 -0.69,-2a3,3 0 0 1 0.64,-2a2.24,2.24 0 0 1 1.77,-0.74a2.2,2.2 0 0 1 1.65,0.63a2.42,2.42 0 0 1 0.6,1.74l0,0.61l-3.51,0a1.77,1.77 0 0 0 0.42,1.18a1.45,1.45 0 0 0 1.1,0.41a3.85,3.85 0 0 0 0.86,-0.09a5.21,5.21 0 0 0 0.87,-0.29l0,0.9a2.91,2.91 0 0 1 -0.83,0.28a5.47,5.47 0 0 1 -0.96,0.08zm-0.2,-4.6a1.11,1.11 0 0 0 -0.85,0.33a1.6,1.6 0 0 0 -0.39,1l2.39,0a1.43,1.43 0 0 0 -0.31,-1a1.09,1.09 0 0 0 -0.84,-0.33z" class="b"/>
  <path id="svg_7" fill="#cccccc" d="m358.38,11.12999l0,-1l2.42,0l0,1l-2.42,0z" class="b"/>
  <path id="svg_8" fill="#cccccc" d="m365.51,11.76999a1.38,1.38 0 0 1 -0.56,1.18a2.73,2.73 0 0 1 -1.61,0.41a3.72,3.72 0 0 1 -1.69,-0.32l0,-1a4.27,4.27 0 0 0 1.73,0.43c0.69,0 1,-0.21 1,-0.63a0.52,0.52 0 0 0 -0.11,-0.33a1.43,1.43 0 0 0 -0.38,-0.28a7.25,7.25 0 0 0 -0.73,-0.32a3.64,3.64 0 0 1 -1.23,-0.7a1.34,1.34 0 0 1 -0.32,-0.92a1.19,1.19 0 0 1 0.55,-1a2.55,2.55 0 0 1 1.48,-0.37a4,4 0 0 1 1.75,0.38l-0.36,0.84a3.74,3.74 0 0 0 -1.43,-0.35c-0.59,0 -0.88,0.16 -0.88,0.5a0.51,0.51 0 0 0 0.23,0.42a5.35,5.35 0 0 0 1,0.47a4.67,4.67 0 0 1 0.95,0.46a1.42,1.42 0 0 1 0.44,0.48a1.49,1.49 0 0 1 0.17,0.65z" class="b"/>
  <path id="svg_9" fill="#cccccc" d="m368.68,12.45999a2.65,2.65 0 0 0 0.82,-0.13l0,0.84a2.14,2.14 0 0 1 -0.48,0.14a4.07,4.07 0 0 1 -0.61,0c-1.06,0 -1.59,-0.56 -1.59,-1.67l0,-2.84l-0.71,0l0,-0.49l0.77,-0.41l0.38,-1.12l0.69,0l0,1.17l1.5,0l0,0.85l-1.5,0l0,2.82a0.78,0.78 0 0 0 0.2,0.6a0.76,0.76 0 0 0 0.53,0.24z" class="b"/>
  <path id="svg_10" fill="#cccccc" d="m373.8,13.26999l-0.22,-0.74l0,0a2.18,2.18 0 0 1 -0.77,0.66a2.48,2.48 0 0 1 -1,0.17a1.68,1.68 0 0 1 -1.21,-0.42a1.56,1.56 0 0 1 -0.43,-1.18a1.41,1.41 0 0 1 0.63,-1.22a3.42,3.42 0 0 1 1.84,-0.45l0.91,0l0,-0.28a1.07,1.07 0 0 0 -0.23,-0.75a1,1 0 0 0 -0.73,-0.25a2.88,2.88 0 0 0 -0.78,0.11a5.56,5.56 0 0 0 -0.71,0.29l-0.36,-0.8a3.43,3.43 0 0 1 0.93,-0.34a4.2,4.2 0 0 1 1,-0.12a2.3,2.3 0 0 1 1.52,0.44a1.71,1.71 0 0 1 0.51,1.37l0,3.55l-0.9,-0.04zm-1.66,-0.76a1.36,1.36 0 0 0 1,-0.35a1.2,1.2 0 0 0 0.37,-1l0,-0.46l-0.67,0a2.28,2.28 0 0 0 -1.15,0.27a0.79,0.79 0 0 0 -0.36,0.72a0.7,0.7 0 0 0 0.21,0.54a0.9,0.9 0 0 0 0.64,0.31l-0.04,-0.03z" class="b"/>
  <path id="svg_11" fill="#cccccc" d="m378.16,12.45999a2.6,2.6 0 0 0 0.82,-0.13l0,0.84a2,2 0 0 1 -0.48,0.14a3.94,3.94 0 0 1 -0.6,0c-1.06,0 -1.59,-0.56 -1.59,-1.67l0,-2.84l-0.72,0l0,-0.49l0.77,-0.41l0.38,-1.12l0.69,0l0,1.17l1.5,0l0,0.85l-1.5,0l0,2.82a0.82,0.82 0 0 0 0.2,0.6a0.78,0.78 0 0 0 0.53,0.24z" class="b"/>
  <path id="svg_12" fill="#cccccc" d="m382.33,13.35999a2.57,2.57 0 0 1 -1.92,-0.71a2.74,2.74 0 0 1 -0.69,-2a3,3 0 0 1 0.64,-2a2.24,2.24 0 0 1 1.77,-0.74a2.16,2.16 0 0 1 1.67,0.63a2.42,2.42 0 0 1 0.61,1.74l0,0.61l-3.51,0a1.72,1.72 0 0 0 0.41,1.18a1.46,1.46 0 0 0 1.1,0.41a4,4 0 0 0 0.87,-0.09a4.84,4.84 0 0 0 0.86,-0.29l0,0.9a2.85,2.85 0 0 1 -0.82,0.28a5.47,5.47 0 0 1 -0.99,0.08zm-0.2,-4.6a1.15,1.15 0 0 0 -0.86,0.33a1.66,1.66 0 0 0 -0.38,1l2.39,0a1.43,1.43 0 0 0 -0.32,-1a1.07,1.07 0 0 0 -0.83,-0.33z" class="b"/>
  <path id="svg_13" fill="#cccccc" d="m385.19,11.12999l0,-1l2.44,0l0,1l-2.44,0z" class="b"/>
  <path id="svg_14" fill="#cccccc" d="m393.22,13.26999l-1.13,0l0,-3.25a1.49,1.49 0 0 0 -0.22,-0.9a0.87,0.87 0 0 0 -0.72,-0.3a1.09,1.09 0 0 0 -1,0.42a2.49,2.49 0 0 0 -0.3,1.4l0,2.63l-1.05,0l0,-5.27l0.88,0l0.15,0.69l0.06,0a1.5,1.5 0 0 1 0.64,-0.58a2.09,2.09 0 0 1 0.91,-0.2a1.6,1.6 0 0 1 1.61,0.83l0.08,0a1.53,1.53 0 0 1 0.65,-0.61a2.07,2.07 0 0 1 1,-0.22a1.81,1.81 0 0 1 1.38,0.47a2.17,2.17 0 0 1 0.43,1.46l0,3.43l-1.12,0l0,-3.25a1.49,1.49 0 0 0 -0.23,-0.9a0.85,0.85 0 0 0 -0.72,-0.3a1.11,1.11 0 0 0 -0.95,0.41a2.11,2.11 0 0 0 -0.3,1.25l-0.05,2.79z" class="b"/>
  <path id="svg_15" fill="#cccccc" d="m400.4,13.35999a2.57,2.57 0 0 1 -1.92,-0.71a2.71,2.71 0 0 1 -0.7,-2a3,3 0 0 1 0.65,-2a2.47,2.47 0 0 1 3.37,-0.11a2.42,2.42 0 0 1 0.6,1.74l0,0.61l-3.51,0a1.77,1.77 0 0 0 0.42,1.18a1.45,1.45 0 0 0 1.1,0.41a4,4 0 0 0 0.87,-0.09a5.44,5.44 0 0 0 0.86,-0.29l0,0.9a2.91,2.91 0 0 1 -0.83,0.28a5.44,5.44 0 0 1 -0.91,0.08zm-0.21,-4.6a1.13,1.13 0 0 0 -0.85,0.33a1.66,1.66 0 0 0 -0.39,1l2.39,0a1.43,1.43 0 0 0 -0.31,-1a1.08,1.08 0 0 0 -0.84,-0.33z" class="b"/>
  <path id="svg_16" fill="#cccccc" d="m405.67,12.45999a2.6,2.6 0 0 0 0.82,-0.13l0,0.84a2,2 0 0 1 -0.48,0.14a3.94,3.94 0 0 1 -0.6,0c-1.06,0 -1.59,-0.56 -1.59,-1.67l0,-2.84l-0.72,0l0,-0.49l0.77,-0.41l0.38,-1.12l0.69,0l0,1.17l1.5,0l0,0.85l-1.5,0l0,2.82a0.82,0.82 0 0 0 0.2,0.6a0.78,0.78 0 0 0 0.53,0.24z" class="b"/>
  <path id="svg_17" fill="#cccccc" d="m410.21,7.90999a2.83,2.83 0 0 1 0.56,0l-0.11,1a2.07,2.07 0 0 0 -0.5,-0.06a1.42,1.42 0 0 0 -1.08,0.44a1.57,1.57 0 0 0 -0.42,1.14l0,2.75l-1.12,0l0,-5.27l0.88,0l0.14,0.93l0.06,0a2.11,2.11 0 0 1 0.68,-0.74a1.62,1.62 0 0 1 0.91,-0.19z" class="b"/>
  <path id="svg_18" fill="#cccccc" d="m411.68,6.60999a0.61,0.61 0 0 1 0.16,-0.46a0.64,0.64 0 0 1 0.47,-0.16a0.56,0.56 0 0 1 0.62,0.62a0.61,0.61 0 0 1 -0.16,0.45a0.61,0.61 0 0 1 -0.46,0.16a0.64,0.64 0 0 1 -0.47,-0.16a0.61,0.61 0 0 1 -0.16,-0.45zm1.18,6.66l-1.12,0l0,-5.27l1.12,0l0,5.27z" class="b"/>
  <path id="svg_19" fill="#cccccc" d="m416.58,13.35999a2.28,2.28 0 0 1 -1.81,-0.7a2.87,2.87 0 0 1 -0.62,-2a2.91,2.91 0 0 1 0.65,-2a2.4,2.4 0 0 1 1.87,-0.71a3.44,3.44 0 0 1 1.5,0.31l-0.34,0.9a3.25,3.25 0 0 0 -1.17,-0.28c-0.91,0 -1.36,0.61 -1.36,1.81a2.14,2.14 0 0 0 0.34,1.33a1.16,1.16 0 0 0 1,0.45a2.87,2.87 0 0 0 1.42,-0.37l0,1a2.53,2.53 0 0 1 -0.64,0.26a4,4 0 0 1 -0.84,0z" class="b"/>
  <path id="svg_20" fill="#cccccc" d="m422.8,11.76999a1.38,1.38 0 0 1 -0.56,1.18a2.73,2.73 0 0 1 -1.61,0.41a3.72,3.72 0 0 1 -1.69,-0.32l0,-1a4.27,4.27 0 0 0 1.73,0.43c0.69,0 1,-0.21 1,-0.63a0.52,0.52 0 0 0 -0.11,-0.33a1.43,1.43 0 0 0 -0.38,-0.28a7.25,7.25 0 0 0 -0.73,-0.32a3.64,3.64 0 0 1 -1.23,-0.7a1.34,1.34 0 0 1 -0.32,-0.92a1.19,1.19 0 0 1 0.55,-1a2.55,2.55 0 0 1 1.48,-0.37a4,4 0 0 1 1.75,0.38l-0.36,0.84a3.78,3.78 0 0 0 -1.43,-0.35c-0.59,0 -0.88,0.16 -0.88,0.5a0.51,0.51 0 0 0 0.23,0.42a5.35,5.35 0 0 0 1,0.47a4.67,4.67 0 0 1 0.95,0.46a1.42,1.42 0 0 1 0.44,0.48a1.49,1.49 0 0 1 0.17,0.65z" class="b"/>
  <polygon id="svg_21" fill="#cccccc" points="427.77 47.32 422.88 43.65 422.88 47.01 413.53 47.01 413.53 47.62 422.88 47.62 422.88 50.98 427.77 47.32" class="b"/>
  <rect id="svg_22" fill="#0000ff" height="34.1" width="60.63" y="30.27" x="348.02" class="c"/>
  <path id="svg_23" fill="#fff" d="m372.71,43.90999a1,1 0 0 1 -0.42,0.88a2,2 0 0 1 -1.2,0.31a2.85,2.85 0 0 1 -1.27,-0.24l0,-0.72a3.13,3.13 0 0 0 1.29,0.32c0.52,0 0.78,-0.15 0.78,-0.47a0.37,0.37 0 0 0 -0.09,-0.25a1,1 0 0 0 -0.28,-0.2a4.38,4.38 0 0 0 -0.55,-0.25a2.55,2.55 0 0 1 -0.92,-0.52a1,1 0 0 1 -0.24,-0.69a0.91,0.91 0 0 1 0.41,-0.79a2,2 0 0 1 1.11,-0.28a3.14,3.14 0 0 1 1.32,0.29l-0.27,0.63a2.92,2.92 0 0 0 -1.08,-0.27c-0.44,0 -0.66,0.13 -0.66,0.38a0.4,0.4 0 0 0 0.17,0.32a4.45,4.45 0 0 0 0.76,0.35a3.58,3.58 0 0 1 0.71,0.35a1,1 0 0 1 0.32,0.36a0.94,0.94 0 0 1 0.11,0.49z" class="a"/>
  <path id="svg_24" fill="#fff" d="m375.09,44.42999a2.16,2.16 0 0 0 0.61,-0.1l0,0.63a1.31,1.31 0 0 1 -0.36,0.1a2.15,2.15 0 0 1 -0.45,0c-0.8,0 -1.19,-0.41 -1.19,-1.25l0,-2.13l-0.54,0l0,-0.37l0.58,-0.31l0.28,-0.83l0.52,0l0,0.88l1.12,0l0,0.63l-1.12,0l0,2.11a0.6,0.6 0 0 0 0.15,0.45a0.54,0.54 0 0 0 0.4,0.19z" class="a"/>
  <path id="svg_25" fill="#fff" d="m378.96,45.02999l-0.17,-0.55l0,0a1.56,1.56 0 0 1 -0.57,0.49a1.75,1.75 0 0 1 -0.74,0.13a1.26,1.26 0 0 1 -0.91,-0.31a1.18,1.18 0 0 1 -0.33,-0.89a1,1 0 0 1 0.46,-0.92a2.58,2.58 0 0 1 1.38,-0.34l0.68,0l0,-0.21a0.81,0.81 0 0 0 -0.18,-0.57a0.74,0.74 0 0 0 -0.55,-0.18a1.9,1.9 0 0 0 -0.58,0.09a4.87,4.87 0 0 0 -0.53,0.21l-0.27,-0.6a2.9,2.9 0 0 1 0.7,-0.26a3.08,3.08 0 0 1 0.72,-0.09a1.72,1.72 0 0 1 1.14,0.33a1.31,1.31 0 0 1 0.38,1l0,2.66l-0.63,0.01zm-1.25,-0.57a1,1 0 0 0 0.73,-0.25a0.91,0.91 0 0 0 0.28,-0.72l0,-0.34l-0.5,0a1.69,1.69 0 0 0 -0.87,0.2a0.61,0.61 0 0 0 -0.27,0.54a0.57,0.57 0 0 0 0.16,0.41a0.69,0.69 0 0 0 0.47,0.16z" class="a"/>
  <path id="svg_26" fill="#fff" d="m382.2,44.42999a2.11,2.11 0 0 0 0.61,-0.1l0,0.63a1.34,1.34 0 0 1 -0.35,0.1a2.32,2.32 0 0 1 -0.46,0c-0.79,0 -1.19,-0.41 -1.19,-1.25l0,-2.13l-0.54,0l0,-0.37l0.58,-0.31l0.28,-0.83l0.52,0l0,0.88l1.15,0l0,0.63l-1.13,0l0,2.11a0.6,0.6 0 0 0 0.15,0.45a0.55,0.55 0 0 0 0.38,0.19z" class="a"/>
  <path id="svg_27" fill="#fff" d="m385.33,45.09999a1.92,1.92 0 0 1 -1.44,-0.53a2,2 0 0 1 -0.52,-1.48a2.23,2.23 0 0 1 0.48,-1.52a1.66,1.66 0 0 1 1.32,-0.56a1.63,1.63 0 0 1 1.24,0.48a1.82,1.82 0 0 1 0.45,1.3l0,0.46l-2.63,0a1.3,1.3 0 0 0 0.31,0.88a1.08,1.08 0 0 0 0.83,0.31a3,3 0 0 0 1.29,-0.29l0,0.69a2.8,2.8 0 0 1 -0.62,0.2a3.84,3.84 0 0 1 -0.71,0.06zm-0.16,-3.45a0.84,0.84 0 0 0 -0.64,0.25a1.22,1.22 0 0 0 -0.28,0.74l1.79,0a1.15,1.15 0 0 0 -0.24,-0.74a0.79,0.79 0 0 0 -0.63,-0.25z" class="a"/>
  <path id="svg_28" fill="#fff" d="m365.33,52.67999a1,1 0 0 1 -0.42,0.88a2,2 0 0 1 -1.21,0.31a2.85,2.85 0 0 1 -1.27,-0.24l0,-0.72a3.21,3.21 0 0 0 1.3,0.32c0.51,0 0.77,-0.15 0.77,-0.47a0.41,0.41 0 0 0 -0.08,-0.25a1.3,1.3 0 0 0 -0.29,-0.2a4.87,4.87 0 0 0 -0.54,-0.25a2.46,2.46 0 0 1 -0.92,-0.52a1,1 0 0 1 -0.25,-0.69a0.91,0.91 0 0 1 0.41,-0.79a2,2 0 0 1 1.12,-0.28a3.09,3.09 0 0 1 1.31,0.29l-0.27,0.63a2.88,2.88 0 0 0 -1.07,-0.27c-0.45,0 -0.67,0.13 -0.67,0.38a0.38,0.38 0 0 0 0.18,0.32a3.89,3.89 0 0 0 0.75,0.35a3.38,3.38 0 0 1 0.71,0.34a1,1 0 0 1 0.44,0.86z" class="a"/>
  <path id="svg_29" fill="#fff" d="m369.7,53.79999l-0.84,0l0,-2.43a1.08,1.08 0 0 0 -0.18,-0.68a0.71,0.71 0 0 0 -0.59,-0.22a0.91,0.91 0 0 0 -0.77,0.31a1.7,1.7 0 0 0 -0.25,1.06l0,2l-0.84,0l0,-3.95l0.66,0l0.12,0.52l0,0a1.14,1.14 0 0 1 0.51,-0.43a1.58,1.58 0 0 1 0.72,-0.16a1.27,1.27 0 0 1 1.42,1.45l0.04,2.53z" class="a"/>
  <path id="svg_30" fill="#fff" d="m373.34,53.79999l-0.17,-0.55l0,0a1.56,1.56 0 0 1 -0.57,0.49a1.75,1.75 0 0 1 -0.74,0.13a1.26,1.26 0 0 1 -0.91,-0.31a1.18,1.18 0 0 1 -0.33,-0.89a1,1 0 0 1 0.46,-0.92a2.58,2.58 0 0 1 1.38,-0.34l0.68,0l0,-0.21a0.81,0.81 0 0 0 -0.18,-0.57a0.74,0.74 0 0 0 -0.55,-0.18a1.9,1.9 0 0 0 -0.58,0.09a2.66,2.66 0 0 0 -0.53,0.21l-0.27,-0.6a2.54,2.54 0 0 1 0.7,-0.26a3.08,3.08 0 0 1 0.72,-0.09a1.72,1.72 0 0 1 1.14,0.33a1.3,1.3 0 0 1 0.38,1l0,2.66l-0.63,0.01zm-1.25,-0.57a1,1 0 0 0 0.73,-0.25a0.91,0.91 0 0 0 0.28,-0.72l0,-0.34l-0.51,0a1.67,1.67 0 0 0 -0.86,0.2a0.59,0.59 0 0 0 -0.27,0.54a0.57,0.57 0 0 0 0.16,0.41a0.69,0.69 0 0 0 0.47,0.16z" class="a"/>
  <path id="svg_31" fill="#fff" d="m377.11,53.86999a1.37,1.37 0 0 1 -1.16,-0.54l0,0c0,0.34 0,0.54 0,0.61l0,1.6l-0.84,0l0,-5.71l0.69,0c0,0.08 0.06,0.25 0.12,0.53l0,0a1.31,1.31 0 0 1 1.18,-0.6a1.37,1.37 0 0 1 1.15,0.54a2.45,2.45 0 0 1 0.41,1.5a2.4,2.4 0 0 1 -0.42,1.51a1.39,1.39 0 0 1 -1.13,0.56zm-0.2,-3.4a0.89,0.89 0 0 0 -0.73,0.29a1.56,1.56 0 0 0 -0.23,0.94l0,0.12a1.9,1.9 0 0 0 0.23,1.05a0.85,0.85 0 0 0 0.74,0.32a0.75,0.75 0 0 0 0.67,-0.36a2.29,2.29 0 0 0 0,-2a0.79,0.79 0 0 0 -0.68,-0.36z" class="a"/>
  <path id="svg_32" fill="#fff" d="m382.32,52.67999a1,1 0 0 1 -0.43,0.88a2,2 0 0 1 -1.2,0.31a2.85,2.85 0 0 1 -1.27,-0.24l0,-0.72a3.18,3.18 0 0 0 1.3,0.32c0.51,0 0.77,-0.15 0.77,-0.47a0.41,0.41 0 0 0 -0.08,-0.25a1.3,1.3 0 0 0 -0.29,-0.2a4.87,4.87 0 0 0 -0.54,-0.25a2.46,2.46 0 0 1 -0.92,-0.52a1,1 0 0 1 -0.25,-0.69a0.91,0.91 0 0 1 0.41,-0.79a2,2 0 0 1 1.11,-0.28a3.1,3.1 0 0 1 1.32,0.29l-0.27,0.63a2.88,2.88 0 0 0 -1.07,-0.27c-0.45,0 -0.67,0.13 -0.67,0.38a0.38,0.38 0 0 0 0.18,0.32a3.89,3.89 0 0 0 0.75,0.35a3.38,3.38 0 0 1 0.71,0.34a1,1 0 0 1 0.44,0.86z" class="a"/>
  <path id="svg_33" fill="#fff" d="m386.69,53.79999l-0.84,0l0,-2.43a1.08,1.08 0 0 0 -0.18,-0.68a0.71,0.71 0 0 0 -0.59,-0.22a0.91,0.91 0 0 0 -0.77,0.31a1.74,1.74 0 0 0 -0.25,1.06l0,2l-0.84,0l0,-5.55l0.84,0l0,1.41a6.13,6.13 0 0 1 0,0.72l0,0a1.14,1.14 0 0 1 0.48,-0.44a1.58,1.58 0 0 1 0.71,-0.16a1.27,1.27 0 0 1 1.43,1.45l0.01,2.53z" class="a"/>
  <path id="svg_34" fill="#fff" d="m391.36,51.81999a2.15,2.15 0 0 1 -0.49,1.51a1.82,1.82 0 0 1 -1.39,0.54a1.85,1.85 0 0 1 -1,-0.25a1.62,1.62 0 0 1 -0.66,-0.71a2.53,2.53 0 0 1 -0.22,-1.09a2.14,2.14 0 0 1 0.49,-1.5a1.79,1.79 0 0 1 1.39,-0.54a1.75,1.75 0 0 1 1.35,0.55a2.16,2.16 0 0 1 0.53,1.49zm-2.87,0c0,0.91 0.34,1.37 1,1.37s1,-0.46 1,-1.37s-0.34,-1.35 -1,-1.35a0.85,0.85 0 0 0 -0.76,0.35a1.76,1.76 0 0 0 -0.24,1z" class="a"/>
  <path id="svg_35" fill="#fff" d="m393.8,53.19999a2.22,2.22 0 0 0 0.61,-0.1l0,0.63a1.79,1.79 0 0 1 -0.36,0.1a2.28,2.28 0 0 1 -0.45,0c-0.8,0 -1.2,-0.42 -1.2,-1.25l0,-2.04l-0.53,0l0,-0.37l0.57,-0.31l0.29,-0.83l0.52,0l0,0.87l1.12,0l0,0.64l-1.12,0l0,2.11a0.6,0.6 0 0 0 0.15,0.45a0.54,0.54 0 0 0 0.4,0.1z" class="a"/>
  <rect id="svg_36" fill="#0000ff" height="34.1" width="60.63" y="30.27" x="432.64" class="c"/>
  <path id="svg_37" fill="#fff" d="m449.29,45.09999a2,2 0 0 1 -1.44,-0.53a2.07,2.07 0 0 1 -0.52,-1.48a2.19,2.19 0 0 1 0.47,-1.55a1.66,1.66 0 0 1 1.32,-0.56a1.6,1.6 0 0 1 1.23,0.48a1.78,1.78 0 0 1 0.46,1.3l0,0.46l-2.61,0a1.25,1.25 0 0 0 0.31,0.88a1.06,1.06 0 0 0 0.82,0.31a2.64,2.64 0 0 0 0.65,-0.07a2.77,2.77 0 0 0 0.65,-0.22l0,0.69a2.8,2.8 0 0 1 -0.62,0.2a3.88,3.88 0 0 1 -0.72,0.09zm-0.15,-3.45a0.83,0.83 0 0 0 -0.64,0.25a1.22,1.22 0 0 0 -0.29,0.74l1.79,0a1.09,1.09 0 0 0 -0.23,-0.74a0.79,0.79 0 0 0 -0.63,-0.25z" class="a"/>
  <path id="svg_38" fill="#fff" d="m455.25,45.02999l-0.84,0l0,-2.42a1.09,1.09 0 0 0 -0.18,-0.69a0.73,0.73 0 0 0 -0.59,-0.22a0.91,0.91 0 0 0 -0.77,0.31a1.7,1.7 0 0 0 -0.25,1.06l0,2l-0.82,0l0,-3.94l0.66,0l0.11,0.51l0.05,0a1.17,1.17 0 0 1 0.5,-0.43a1.77,1.77 0 0 1 0.73,-0.16a1.27,1.27 0 0 1 1.42,1.45l-0.02,2.53z" class="a"/>
  <path id="svg_39" fill="#fff" d="m457.8,45.09999a1.35,1.35 0 0 1 -1.15,-0.53a2.39,2.39 0 0 1 -0.42,-1.5a2.45,2.45 0 0 1 0.42,-1.52a1.39,1.39 0 0 1 1.16,-0.54a1.38,1.38 0 0 1 1.19,0.58l0,0a5.08,5.08 0 0 1 -0.06,-0.67l0,-1.44l0.86,0l0,5.55l-0.65,0l-0.15,-0.52l0,0a1.32,1.32 0 0 1 -1.2,0.59zm0.22,-0.67a0.91,0.91 0 0 0 0.76,-0.3a1.52,1.52 0 0 0 0.24,-0.94l0,-0.12a1.8,1.8 0 0 0 -0.24,-1.06a0.9,0.9 0 0 0 -0.76,-0.31a0.76,0.76 0 0 0 -0.68,0.36a1.83,1.83 0 0 0 -0.24,1a1.74,1.74 0 0 0 0.23,1a0.78,0.78 0 0 0 0.64,0.37l0.05,0z" class="a"/>
  <path id="svg_40" fill="#fff" d="m462.97,45.09999a1.38,1.38 0 0 1 -1.17,-0.56l0,0c0,0.34 0.05,0.54 0.05,0.61l0,1.62l-0.84,0l0,-5.7l0.68,0c0,0.07 0.06,0.25 0.12,0.52l0,0a1.32,1.32 0 0 1 1.18,-0.6a1.37,1.37 0 0 1 1.15,0.54a2.45,2.45 0 0 1 0.41,1.5a2.4,2.4 0 0 1 -0.42,1.51a1.38,1.38 0 0 1 -1.16,0.56zm-0.2,-3.4a0.89,0.89 0 0 0 -0.73,0.29a1.56,1.56 0 0 0 -0.23,0.94l0,0.12a1.9,1.9 0 0 0 0.23,1.05a0.86,0.86 0 0 0 0.75,0.32a0.76,0.76 0 0 0 0.67,-0.36a1.93,1.93 0 0 0 0.23,-1a1.83,1.83 0 0 0 -0.23,-1a0.79,0.79 0 0 0 -0.66,-0.36l-0.03,0z" class="a"/>
  <path id="svg_41" fill="#fff" d="m469.03,43.04999a2.15,2.15 0 0 1 -0.5,1.51a1.78,1.78 0 0 1 -1.38,0.54a1.86,1.86 0 0 1 -1,-0.25a1.6,1.6 0 0 1 -0.65,-0.71a2.53,2.53 0 0 1 -0.23,-1.09a2.14,2.14 0 0 1 0.53,-1.51a1.79,1.79 0 0 1 1.39,-0.54a1.76,1.76 0 0 1 1.36,0.56a2.12,2.12 0 0 1 0.48,1.49zm-2.88,0c0,0.91 0.34,1.37 1,1.37s1,-0.46 1,-1.37s-0.33,-1.35 -1,-1.35a0.87,0.87 0 0 0 -0.77,0.35a1.76,1.76 0 0 0 -0.23,1z" class="a"/>
  <path id="svg_42" fill="#fff" d="m469.94,40.03999a0.47,0.47 0 1 1 0.94,0a0.49,0.49 0 0 1 -0.12,0.34a0.57,0.57 0 0 1 -0.7,0a0.49,0.49 0 0 1 -0.12,-0.34zm0.89,5l-0.84,0l0,-3.94l0.81,0l0.03,3.94z" class="a"/>
  <path id="svg_43" fill="#fff" d="m475.5,45.02999l-0.84,0l0,-2.42a1,1 0 0 0 -0.19,-0.69a0.69,0.69 0 0 0 -0.58,-0.22a0.94,0.94 0 0 0 -0.78,0.31a1.78,1.78 0 0 0 -0.24,1.06l0,2l-0.84,0l0,-3.94l0.65,0l0.12,0.51l0,0a1.2,1.2 0 0 1 0.51,-0.43a1.74,1.74 0 0 1 0.73,-0.16a1.27,1.27 0 0 1 1.42,1.45l0.04,2.53z" class="a"/>
  <path id="svg_44" fill="#fff" d="m478.14,44.42999a2.16,2.16 0 0 0 0.61,-0.1l0,0.63a1.31,1.31 0 0 1 -0.36,0.1a2.22,2.22 0 0 1 -0.45,0c-0.8,0 -1.2,-0.41 -1.2,-1.25l0,-2.13l-0.53,0l0,-0.37l0.57,-0.31l0.29,-0.83l0.52,0l0,0.88l1.12,0l0,0.63l-1.12,0l0,2.11a0.6,0.6 0 0 0 0.15,0.45a0.54,0.54 0 0 0 0.4,0.19z" class="a"/>
  <path id="svg_45" fill="#fff" d="m451.1,48.53999l-1.94,5.22l-0.79,0l1.94,-5.22l0.79,0z" class="a"/>
  <path id="svg_46" fill="#fff" d="m455.09,53.79999l-0.84,0l0,-2.43a1.15,1.15 0 0 0 -0.17,-0.68a0.65,0.65 0 0 0 -0.54,-0.22a0.81,0.81 0 0 0 -0.71,0.31a1.91,1.91 0 0 0 -0.23,1.06l0,2l-0.8,0l0,-3.95l0.66,0l0.12,0.52l0,0a1.06,1.06 0 0 1 0.48,-0.43a1.39,1.39 0 0 1 0.68,-0.16a1.21,1.21 0 0 1 1.21,0.62l0.06,0a1.19,1.19 0 0 1 0.49,-0.45a1.54,1.54 0 0 1 0.73,-0.17a1.33,1.33 0 0 1 1,0.36a1.61,1.61 0 0 1 0.32,1.09l0,2.57l-0.84,0l0,-2.43a1.15,1.15 0 0 0 -0.17,-0.68a0.65,0.65 0 0 0 -0.54,-0.22a0.82,0.82 0 0 0 -0.71,0.3a1.53,1.53 0 0 0 -0.23,0.94l0.03,2.05z" class="a"/>
  <path id="svg_47" fill="#fff" d="m460.47,53.86999a2,2 0 0 1 -1.44,-0.53a2.08,2.08 0 0 1 -0.52,-1.48a2.19,2.19 0 0 1 0.49,-1.52a1.66,1.66 0 0 1 1.32,-0.56a1.6,1.6 0 0 1 1.23,0.48a1.77,1.77 0 0 1 0.46,1.3l0,0.46l-2.63,0a1.27,1.27 0 0 0 0.31,0.88a1.06,1.06 0 0 0 0.82,0.31a2.64,2.64 0 0 0 0.65,-0.07a2.77,2.77 0 0 0 0.65,-0.22l0,0.69a2.8,2.8 0 0 1 -0.62,0.2a3.88,3.88 0 0 1 -0.72,0.06zm-0.15,-3.45a0.83,0.83 0 0 0 -0.64,0.25a1.22,1.22 0 0 0 -0.29,0.74l1.79,0a1.07,1.07 0 0 0 -0.23,-0.74a0.79,0.79 0 0 0 -0.63,-0.25z" class="a"/>
  <path id="svg_48" fill="#fff" d="m464.43,53.19999a2.16,2.16 0 0 0 0.61,-0.1l0,0.63a1.88,1.88 0 0 1 -0.35,0.1a2.32,2.32 0 0 1 -0.46,0c-0.79,0 -1.19,-0.42 -1.19,-1.25l0,-2.04l-0.54,0l0,-0.37l0.58,-0.31l0.28,-0.83l0.52,0l0,0.87l1.13,0l0,0.64l-1.13,0l0,2.11a0.6,0.6 0 0 0 0.15,0.45a0.55,0.55 0 0 0 0.4,0.1z" class="a"/>
  <path id="svg_49" fill="#fff" d="m467.8,49.77999a2.27,2.27 0 0 1 0.41,0l-0.08,0.78a1.5,1.5 0 0 0 -0.37,0a1.08,1.08 0 0 0 -0.82,0.33a1.22,1.22 0 0 0 -0.31,0.85l0,2.06l-0.83,0l0,-3.95l0.66,0l0.11,0.7l0,0a1.55,1.55 0 0 1 0.52,-0.56a1.19,1.19 0 0 1 0.71,-0.21z" class="a"/>
  <path id="svg_50" fill="#fff" d="m468.93,48.80999a0.45,0.45 0 0 1 0.13,-0.35a0.48,0.48 0 0 1 0.35,-0.12a0.45,0.45 0 0 1 0.34,0.12a0.48,0.48 0 0 1 0.13,0.35a0.49,0.49 0 0 1 -0.13,0.34a0.45,0.45 0 0 1 -0.34,0.12a0.48,0.48 0 0 1 -0.35,-0.12a0.45,0.45 0 0 1 -0.13,-0.34zm0.89,5l-0.84,0l0,-3.95l0.82,0l0.02,3.95z" class="a"/>
  <path id="svg_51" fill="#fff" d="m472.61,53.86999a1.73,1.73 0 0 1 -1.36,-0.52a2.19,2.19 0 0 1 -0.46,-1.5a2.23,2.23 0 0 1 0.48,-1.53a1.82,1.82 0 0 1 1.41,-0.54a2.52,2.52 0 0 1 1.12,0.24l-0.25,0.67a2.5,2.5 0 0 0 -0.88,-0.21c-0.68,0 -1,0.46 -1,1.36a1.62,1.62 0 0 0 0.25,1a0.89,0.89 0 0 0 0.75,0.33a2.17,2.17 0 0 0 1.06,-0.27l0,0.73a2,2 0 0 1 -0.48,0.19a3.53,3.53 0 0 1 -0.64,0.05z" class="a"/>
  <path id="svg_52" fill="#fff" d="m477.29,52.67999a1,1 0 0 1 -0.42,0.88a2,2 0 0 1 -1.21,0.31a2.83,2.83 0 0 1 -1.26,-0.24l0,-0.72a3.13,3.13 0 0 0 1.29,0.32c0.52,0 0.78,-0.15 0.78,-0.47a0.37,0.37 0 0 0 -0.09,-0.25a1.2,1.2 0 0 0 -0.28,-0.2a4.38,4.38 0 0 0 -0.55,-0.25a2.55,2.55 0 0 1 -0.92,-0.52a1,1 0 0 1 -0.24,-0.69a0.91,0.91 0 0 1 0.41,-0.79a2,2 0 0 1 1.11,-0.28a3.17,3.17 0 0 1 1.32,0.29l-0.27,0.63a2.92,2.92 0 0 0 -1.08,-0.27c-0.44,0 -0.66,0.13 -0.66,0.38a0.4,0.4 0 0 0 0.17,0.32a4.45,4.45 0 0 0 0.76,0.35a3.65,3.65 0 0 1 0.71,0.34a1.11,1.11 0 0 1 0.32,0.37a0.94,0.94 0 0 1 0.11,0.49z" class="a"/>
  <path id="svg_53" fill="#cccccc" d="m439.8655,84.82999a7.81,7.81 0 0 0 -4,-6.95c-3.8,-2.27 -7.61,-4.5 -11.47,-6.67a7.77,7.77 0 0 0 -7.94,0c-3.86,2.17 -7.67,4.4 -11.47,6.67a7.77,7.77 0 0 0 -4,6.95q-0.06,6.75 0,13.48a7.81,7.81 0 0 0 4.09,7q5.58,3.32 11.21,6.52a7.91,7.91 0 0 0 8.31,0q5.64,-3.19 11.21,-6.52a7.82,7.82 0 0 0 4.1,-7q0.02,-6.77 -0.04,-13.48z" class="d"/>
  <path id="svg_54" fill="#ffffff" d="m438.92,98.10999a6.92,6.92 0 0 1 -3.52,6.22c-3.71,2.23 -7.45,4.39 -11.19,6.55a6.67,6.67 0 0 1 -7.12,0c-3.74,-2.16 -7.49,-4.32 -11.19,-6.55a6.92,6.92 0 0 1 -3.52,-6.22q0,-6.52 0,-13a7,7 0 0 1 3.59,-6.29c3.68,-2.19 7.39,-4.35 11.1,-6.49a6.74,6.74 0 0 1 7.16,0c3.71,2.14 7.42,4.3 11.1,6.49a7,7 0 0 1 3.59,6.29q0.05,6.43 0,13z" class="a"/>
  <path id="svg_55" fill="#326de6" d="m418.01,91.53999a0.45,0.45 0 0 0 -0.06,-0.65l-2.1,-1.88a5.77,5.77 0 0 0 -0.8,3.47l2.73,-0.79a0.32,0.32 0 0 0 0.23,-0.15z" class="e"/>
  <path id="svg_56" fill="#326de6" d="m419.23,89.72999a0.48,0.48 0 0 0 0.49,-0.46l0.17,-2.84l-0.57,0.11a5.44,5.44 0 0 0 -2.62,1.45l2.31,1.68a0.6,0.6 0 0 0 0.22,0.06z" class="e"/>
  <polygon id="svg_57" fill="#326de6" points="419.83 92.57 420.6 92.94 421.37 92.57 421.56 91.75 421.02 91.06 420.14 91.06 419.6 91.75 419.83 92.57" class="e"/>
  <path id="svg_58" fill="#326de6" d="m421.54,89.53999a0.48,0.48 0 0 0 0.62,0.11l2.31,-1.65a5.45,5.45 0 0 0 -3.19,-1.53l0.17,2.87a0.27,0.27 0 0 0 0.09,0.2z" class="e"/>
  <path id="svg_59" fill="#326de6" d="m418.18,93.36999l-2.81,0.48a5.55,5.55 0 0 0 2.19,2.79l1.08,-2.62a0.34,0.34 0 0 0 0,-0.28a0.45,0.45 0 0 0 -0.46,-0.37z" class="e"/>
  <path id="svg_60" fill="#326de6" d="m420.74,94.58999a0.45,0.45 0 0 0 -0.57,0.11l-1.37,2.54a5.77,5.77 0 0 0 3,0.14c0.2,-0.06 0.37,-0.09 0.51,-0.12l-1.36,-2.47a1.37,1.37 0 0 0 -0.21,-0.2z" class="e"/>
  <path id="svg_61" fill="#326de6" d="m433.09,93.81999l-2.17,-9.3a1.84,1.84 0 0 0 -0.91,-1l-8.67,-4.15a1.54,1.54 0 0 0 -0.71,-0.15a2.8,2.8 0 0 0 -0.71,0.06l-8.68,4.18a1.51,1.51 0 0 0 -0.85,1l-2.16,9.36a1.76,1.76 0 0 0 0.31,1.37l6,7.42a2.1,2.1 0 0 0 1.31,0.6l9.58,0a1.4,1.4 0 0 0 1.31,-0.6l6,-7.42a2,2 0 0 0 0.35,-1.37zm-3.53,0.6a0.22,0.22 0 0 1 -0.14,0s0,0 -0.06,0s-0.09,0 -0.11,0a1,1 0 0 1 -0.32,-0.11a0.44,0.44 0 0 1 -0.17,-0.06l0,0a4.35,4.35 0 0 0 -0.91,-0.25l0,0a0.33,0.33 0 0 0 -0.22,0.08a0,0 0 0 1 0,0l-0.23,0a7.08,7.08 0 0 1 -3.1,3.87l0.09,0.23a0,0 0 0 0 0,0a0.31,0.31 0 0 0 0,0.28a3.53,3.53 0 0 0 0.45,0.83l0,0a0.53,0.53 0 0 1 0.12,0.15a1.18,1.18 0 0 1 0.2,0.28a0.14,0.14 0 0 1 0.05,0.09a0,0 0 0 1 0,0a0.77,0.77 0 0 1 0,0.45a0.47,0.47 0 0 1 -0.25,0.31a0.71,0.71 0 0 1 -0.23,0.06a0.63,0.63 0 0 1 -0.54,-0.34a0,0 0 0 1 0,0s0,-0.06 -0.06,-0.09a0.87,0.87 0 0 1 -0.11,-0.31l-0.06,-0.17l0,0c-0.11,-0.28 -0.23,-0.57 -0.37,-0.85a0.42,0.42 0 0 0 -0.23,-0.17s0,0 0,0l-0.12,-0.2a8.06,8.06 0 0 1 -0.91,0.26a7.25,7.25 0 0 1 -1.53,0.17a6.57,6.57 0 0 1 -2.48,-0.46l-0.11,0.23s0,0 0,0a0.42,0.42 0 0 0 -0.23,0.17a5.27,5.27 0 0 0 -0.37,0.88l-0.06,0.17a2.83,2.83 0 0 1 -0.11,0.31s-0.06,0.06 -0.06,0.09s0,0 0,0a0.65,0.65 0 0 1 -0.55,0.34a0.48,0.48 0 0 1 -0.22,-0.06a0.58,0.58 0 0 1 -0.23,-0.76a0,0 0 0 0 0,0s0,-0.06 0.06,-0.09s0.14,-0.23 0.19,-0.28a0.53,0.53 0 0 0 0.12,-0.15l0,0a4.44,4.44 0 0 0 0.45,-0.83a0.31,0.31 0 0 0 0,-0.28s0,0 0,0l0.11,-0.23a4.67,4.67 0 0 1 -0.77,-0.51a6.86,6.86 0 0 1 -2.33,-3.33l-0.26,0s0,0 0,0a0.32,0.32 0 0 0 -0.23,-0.08l0,0a4.52,4.52 0 0 0 -0.91,0.25l0,0a0.39,0.39 0 0 0 -0.17,0.06l-0.31,0.11c-0.06,0 -0.12,0 -0.12,0s0,0 0,0a0.22,0.22 0 0 1 -0.14,0a0.53,0.53 0 0 1 -0.57,-0.4a0.56,0.56 0 0 1 0.46,-0.65s0,0 0.06,0s0.08,0 0.11,0l0.34,0a0.34,0.34 0 0 1 0.17,0l0,0a5.18,5.18 0 0 0 1,-0.17c0.08,-0.06 0.17,-0.11 0.2,-0.2s0,0 0,0l0.23,-0.05a6.8,6.8 0 0 1 1,-4.67a1,1 0 0 0 0.08,-0.14l-0.17,-0.17l0,0a0.29,0.29 0 0 0 -0.08,-0.26a9.31,9.31 0 0 0 -0.8,-0.54l-0.17,-0.08l-0.31,-0.17s-0.09,-0.06 -0.09,-0.06a0,0 0 0 0 0,0a0.61,0.61 0 0 1 -0.11,-0.79a0.49,0.49 0 0 1 0.43,-0.2a0.67,0.67 0 0 1 0.4,0.14l0,0s0.06,0 0.09,0.05s0.14,0.18 0.23,0.26a0.57,0.57 0 0 1 0.11,0.11a8.81,8.81 0 0 0 0.71,0.66a0.32,0.32 0 0 0 0.17,0.06c0.06,0 0.09,0 0.12,0l0,0l0.17,0.11a6.75,6.75 0 0 1 3.49,-2c0.35,-0.06 0.66,-0.11 1,-0.14l0,-0.23l0,0a0.43,0.43 0 0 0 0.14,-0.23a5,5 0 0 0 -0.06,-1l0,0a0.47,0.47 0 0 0 0,-0.17a1.43,1.43 0 0 1 -0.06,-0.34l0,-0.15a0.56,0.56 0 0 1 0.17,-0.39a0.6,0.6 0 0 1 0.45,-0.17a0.51,0.51 0 0 1 0.49,0.56l0,0.18c0,0.11 0,0.22 -0.06,0.34s0,0.11 0,0.17l0,0a6.37,6.37 0 0 0 0,1a0.33,0.33 0 0 0 0.14,0.23l0,0l0,0.23a7.21,7.21 0 0 1 3.7,1.48c0.23,0.22 0.49,0.45 0.71,0.68l0.23,-0.17a0.17,0.17 0 0 0 0.11,0a0.43,0.43 0 0 0 0.18,-0.06a5.17,5.17 0 0 0 0.71,-0.63s0.08,-0.05 0.11,-0.11a1.79,1.79 0 0 1 0.23,-0.26s0.05,0 0.08,-0.05l0,0a0.67,0.67 0 0 1 0.4,-0.14a0.56,0.56 0 0 1 0.4,0.19a0.56,0.56 0 0 1 -0.12,0.8l0,0l-0.09,0.06c-0.11,0.05 -0.2,0.11 -0.31,0.17l-0.17,0.08a4.68,4.68 0 0 0 -0.8,0.54a0.39,0.39 0 0 0 -0.09,0.26l0,0l-0.17,0.17a7.64,7.64 0 0 1 1,2.33a7.27,7.27 0 0 1 0.11,2.5l0.23,0.06a0,0 0 0 1 0,0a0.36,0.36 0 0 0 0.2,0.2a6.35,6.35 0 0 0 1,0.17l0,0a0.36,0.36 0 0 0 0.17,0a1.38,1.38 0 0 1 0.35,0s0.11,0 0.11,0s0,0 0,0a0.8,0.8 0 0 1 0.57,0.57a0.63,0.63 0 0 1 -0.84,0.37z" class="e"/>
  <path id="svg_62" fill="#326de6" d="m425.32,89.03999l-2.13,1.94a0.4,0.4 0 0 0 -0.12,0.2a0.48,0.48 0 0 0 0.34,0.57l2.71,0.76a5.43,5.43 0 0 0 -0.12,-1.79a5.87,5.87 0 0 0 -0.68,-1.68z" class="e"/>
  <path id="svg_63" fill="#326de6" d="m422.73,93.39999a0.46,0.46 0 0 0 -0.25,0.56l1.11,2.65a5.34,5.34 0 0 0 1.7,-1.71a4,4 0 0 0 0.54,-1.08l-2.84,-0.48a0.82,0.82 0 0 0 -0.26,0.06z" class="e"/>
  <path id="svg_64" fill="#cccccc" d="m219.52,44.93999l0,0.6l-0.9,0.16a1.42,1.42 0 0 1 0.2,0.41a1.44,1.44 0 0 1 0.09,0.51a1.59,1.59 0 0 1 -0.57,1.29a2.34,2.34 0 0 1 -1.54,0.46a2.19,2.19 0 0 1 -0.46,0a0.64,0.64 0 0 0 -0.36,0.53a0.29,0.29 0 0 0 0.17,0.27a1.46,1.46 0 0 0 0.62,0.09l0.92,0a2,2 0 0 1 1.32,0.37a1.31,1.31 0 0 1 0.45,1.07a1.55,1.55 0 0 1 -0.73,1.38a4,4 0 0 1 -2.14,0.48a2.91,2.91 0 0 1 -1.64,-0.38a1.21,1.21 0 0 1 -0.56,-1.08a1.18,1.18 0 0 1 0.3,-0.82a1.7,1.7 0 0 1 0.86,-0.46a0.82,0.82 0 0 1 -0.51,-0.75a0.79,0.79 0 0 1 0.16,-0.5a2.18,2.18 0 0 1 0.5,-0.4a1.51,1.51 0 0 1 -0.66,-0.57a1.72,1.72 0 0 1 -0.26,-0.94a1.65,1.65 0 0 1 0.54,-1.32a2.24,2.24 0 0 1 1.54,-0.47l0.47,0l0.37,0.06l1.82,0.01zm-4.14,6.08a0.62,0.62 0 0 0 0.33,0.56a1.8,1.8 0 0 0 0.92,0.19a2.71,2.71 0 0 0 1.36,-0.26a0.76,0.76 0 0 0 0.44,-0.69a0.53,0.53 0 0 0 -0.24,-0.49a1.94,1.94 0 0 0 -0.91,-0.14l-0.85,0a1.18,1.18 0 0 0 -0.76,0.22a0.75,0.75 0 0 0 -0.29,0.61zm0.49,-4.38a1.07,1.07 0 0 0 0.25,0.77a1,1 0 0 0 0.73,0.26c0.65,0 1,-0.34 1,-1a1.19,1.19 0 0 0 -0.24,-0.8a0.93,0.93 0 0 0 -0.73,-0.28a0.94,0.94 0 0 0 -0.73,0.28a1.13,1.13 0 0 0 -0.28,0.77z" class="b"/>
  <path id="svg_65" fill="#cccccc" d="m225.16,47.53999a2.91,2.91 0 0 1 -0.66,2a2.37,2.37 0 0 1 -1.84,0.72a2.51,2.51 0 0 1 -1.3,-0.33a2.19,2.19 0 0 1 -0.87,-1a3.19,3.19 0 0 1 -0.31,-1.45a2.86,2.86 0 0 1 0.66,-2a2.4,2.4 0 0 1 1.85,-0.71a2.33,2.33 0 0 1 1.81,0.73a2.85,2.85 0 0 1 0.66,2.04zm-3.83,0q0,1.83 1.35,1.83c0.89,0 1.33,-0.61 1.33,-1.83s-0.45,-1.8 -1.34,-1.8a1.15,1.15 0 0 0 -1,0.47a2.35,2.35 0 0 0 -0.34,1.33z" class="b"/>
  <path id="svg_66" fill="#cccccc" d="m225.99,48.06999l0,-0.95l2.45,0l0,0.95l-2.45,0z" class="b"/>
  <path id="svg_67" fill="#cccccc" d="m231.7,50.29999a2.28,2.28 0 0 1 -1.81,-0.7a2.92,2.92 0 0 1 -0.62,-2a3,3 0 0 1 0.65,-2a2.39,2.39 0 0 1 1.88,-0.71a3.43,3.43 0 0 1 1.49,0.31l-0.33,0.9a3.34,3.34 0 0 0 -1.17,-0.28c-0.91,0 -1.37,0.6 -1.37,1.81a2.14,2.14 0 0 0 0.34,1.33a1.18,1.18 0 0 0 1,0.45a2.91,2.91 0 0 0 1.41,-0.37l0,1a2.08,2.08 0 0 1 -0.64,0.25a3.89,3.89 0 0 1 -0.83,0.01z" class="b"/>
  <path id="svg_68" fill="#cccccc" d="m235.53,50.19999l-1.12,0l0,-7.4l1.12,0l0,7.4z" class="b"/>
  <path id="svg_69" fill="#cccccc" d="m237.06,43.53999a0.6,0.6 0 0 1 0.16,-0.46a0.64,0.64 0 0 1 0.47,-0.17a0.62,0.62 0 0 1 0.46,0.17a0.73,0.73 0 0 1 0,0.91a0.61,0.61 0 0 1 -0.46,0.16a0.64,0.64 0 0 1 -0.47,-0.16a0.61,0.61 0 0 1 -0.16,-0.45zm1.18,6.65l-1.12,0l0,-5.25l1.12,0l0,5.25z" class="b"/>
  <path id="svg_70" fill="#cccccc" d="m242.14,50.29999a2.53,2.53 0 0 1 -1.92,-0.72a2.7,2.7 0 0 1 -0.69,-2a3,3 0 0 1 0.64,-2a2.22,2.22 0 0 1 1.76,-0.73a2.17,2.17 0 0 1 1.65,0.63a2.42,2.42 0 0 1 0.6,1.74l0,0.61l-3.5,0a1.67,1.67 0 0 0 0.41,1.17a1.43,1.43 0 0 0 1.1,0.41a4.77,4.77 0 0 0 0.87,-0.08a4.43,4.43 0 0 0 0.86,-0.3l0,0.91a3.69,3.69 0 0 1 -0.83,0.28a5.27,5.27 0 0 1 -0.95,0.08zm-0.21,-4.61a1.14,1.14 0 0 0 -0.85,0.34a1.63,1.63 0 0 0 -0.38,1l2.39,0a1.48,1.48 0 0 0 -0.32,-1a1.08,1.08 0 0 0 -0.84,-0.34z" class="b"/>
  <path id="svg_71" fill="#cccccc" d="m250.08,50.19999l-1.12,0l0,-3.23a1.43,1.43 0 0 0 -0.24,-0.91a1,1 0 0 0 -0.78,-0.3a1.25,1.25 0 0 0 -1,0.42a2.31,2.31 0 0 0 -0.33,1.4l0,2.62l-1.12,0l0,-5.26l0.88,0l0.16,0.69l0.05,0a1.62,1.62 0 0 1 0.68,-0.58a2.37,2.37 0 0 1 1,-0.2a1.68,1.68 0 0 1 1.89,1.92l-0.07,3.43z" class="b"/>
  <path id="svg_72" fill="#cccccc" d="m253.6,49.38999a2.91,2.91 0 0 0 0.82,-0.12l0,0.84a2,2 0 0 1 -0.48,0.13a3,3 0 0 1 -0.61,0.06q-1.59,0 -1.59,-1.68l0,-2.83l-0.71,0l0,-0.5l0.77,-0.41l0.38,-1.11l0.69,0l0,1.17l1.5,0l0,0.85l-1.5,0l0,2.82a0.81,0.81 0 0 0 0.2,0.59a0.72,0.72 0 0 0 0.53,0.19z" class="b"/>
  <polygon id="svg_73" fill="#cccccc" points="324.52 47.4 319.63 43.74 319.63 47.1 260.34 47.1 260.34 47.71 319.63 47.71 319.63 51.07 324.52 47.4" class="b"/>
  <polygon id="svg_74" fill="#cccccc" points="144.43 47.4 149.32 51.07 149.32 47.71 208.61 47.71 208.61 47.1 149.32 47.1 149.32 43.74 144.43 47.4" class="b"/>
  <rect id="svg_75" fill="#0000ff" height="34.1" width="60.63" y="30.13" x="79.02" class="c"/>
  <path id="svg_76" fill="#fff" d="m93.65,44.89999l-1,0l-1.63,-2.36l-0.5,0.41l0,2l-0.85,0l0,-5.22l0.85,0l0,2.49c0.23,-0.29 0.47,-0.56 0.7,-0.83l1.41,-1.66l1,0l-2,2.29l2.02,2.88z" class="a"/>
  <path id="svg_77" fill="#fff" d="m97.03,44.89999l-0.11,-0.52l-0.05,0a1.12,1.12 0 0 1 -0.5,0.43a1.7,1.7 0 0 1 -0.73,0.16a1.43,1.43 0 0 1 -1.07,-0.36a1.47,1.47 0 0 1 -0.36,-1.08l0,-2.58l0.85,0l0,2.43a1,1 0 0 0 0.19,0.68a0.7,0.7 0 0 0 0.58,0.23a0.91,0.91 0 0 0 0.77,-0.32a1.69,1.69 0 0 0 0.25,-1.05l0,-2l0.84,0l0,4l-0.66,-0.02z" class="a"/>
  <path id="svg_78" fill="#fff" d="m100.9,40.87999a1.4,1.4 0 0 1 1.16,0.53a2.46,2.46 0 0 1 0.41,1.51a2.42,2.42 0 0 1 -0.42,1.51a1.52,1.52 0 0 1 -2.32,0l-0.06,0l-0.15,0.47l-0.63,0l0,-5.56l0.84,0l0,1.32c0,0.1 0,0.25 0,0.44s0,0.31 0,0.37l0,0a1.31,1.31 0 0 1 1.17,-0.59zm-0.21,0.68a0.85,0.85 0 0 0 -0.73,0.3a1.69,1.69 0 0 0 -0.23,1l0,0.06a1.78,1.78 0 0 0 0.23,1a0.85,0.85 0 0 0 0.74,0.32a0.78,0.78 0 0 0 0.68,-0.35a1.93,1.93 0 0 0 0.23,-1c0,-0.88 -0.31,-1.35 -0.92,-1.35l0,0.02z" class="a"/>
  <path id="svg_79" fill="#fff" d="m105.17,44.96999a1.89,1.89 0 0 1 -1.44,-0.54a2,2 0 0 1 -0.52,-1.48a2.25,2.25 0 0 1 0.48,-1.52a1.65,1.65 0 0 1 1.32,-0.55a1.67,1.67 0 0 1 1.24,0.47a1.83,1.83 0 0 1 0.45,1.31l0,0.45l-2.63,0a1.3,1.3 0 0 0 0.31,0.88a1.07,1.07 0 0 0 0.82,0.31a3.45,3.45 0 0 0 0.66,-0.06a4.06,4.06 0 0 0 0.64,-0.22l0,0.68a2.39,2.39 0 0 1 -0.62,0.21a3.84,3.84 0 0 1 -0.71,0.06zm-0.16,-3.46a0.85,0.85 0 0 0 -0.64,0.26a1.19,1.19 0 0 0 -0.29,0.73l1.8,0a1.15,1.15 0 0 0 -0.24,-0.74a0.83,0.83 0 0 0 -0.63,-0.22l0,-0.03z" class="a"/>
  <path id="svg_80" fill="#fff" d="m109.65,40.87999a2.42,2.42 0 0 1 0.42,0l-0.08,0.78a2.21,2.21 0 0 0 -0.37,0a1.08,1.08 0 0 0 -0.82,0.33a1.22,1.22 0 0 0 -0.31,0.85l0,2.07l-0.84,0l0,-4l0.66,0l0.11,0.69l0,0a1.62,1.62 0 0 1 0.51,-0.56a1.31,1.31 0 0 1 0.72,-0.16z" class="a"/>
  <path id="svg_81" fill="#fff" d="m114.28,44.89999l-0.85,0l0,-2.43a1.06,1.06 0 0 0 -0.18,-0.68a0.71,0.71 0 0 0 -0.58,-0.23a0.92,0.92 0 0 0 -0.78,0.32a1.69,1.69 0 0 0 -0.25,1l0,2l-0.84,0l0,-4l0.66,0l0.12,0.52l0,0a1.16,1.16 0 0 1 0.51,-0.44a1.73,1.73 0 0 1 0.73,-0.15a1.27,1.27 0 0 1 1.42,1.44l0.04,2.65z" class="a"/>
  <path id="svg_82" fill="#fff" d="m117.17,44.96999a1.89,1.89 0 0 1 -1.44,-0.54a2,2 0 0 1 -0.52,-1.48a2.25,2.25 0 0 1 0.48,-1.52a1.86,1.86 0 0 1 2.56,-0.08a1.83,1.83 0 0 1 0.45,1.31l0,0.45l-2.63,0a1.3,1.3 0 0 0 0.31,0.88a1.08,1.08 0 0 0 0.83,0.31a3.34,3.34 0 0 0 0.65,-0.06a4.06,4.06 0 0 0 0.64,-0.22l0,0.68a2.39,2.39 0 0 1 -0.62,0.21a3.84,3.84 0 0 1 -0.71,0.06zm-0.16,-3.46a0.85,0.85 0 0 0 -0.64,0.26a1.25,1.25 0 0 0 -0.29,0.73l1.8,0a1.15,1.15 0 0 0 -0.24,-0.74a0.83,0.83 0 0 0 -0.63,-0.22l0,-0.03z" class="a"/>
  <path id="svg_83" fill="#fff" d="m121.12,44.28999a1.91,1.91 0 0 0 0.62,-0.1l0,0.63a1.94,1.94 0 0 1 -0.36,0.11a3.42,3.42 0 0 1 -0.46,0c-0.79,0 -1.19,-0.42 -1.19,-1.26l0,-2.13l-0.54,0l0,-0.37l0.58,-0.3l0.29,-0.84l0.51,0l0,0.88l1.13,0l0,0.63l-1.13,0l0,2.12a0.54,0.54 0 0 0 0.16,0.44a0.53,0.53 0 0 0 0.39,0.19z" class="a"/>
  <path id="svg_84" fill="#fff" d="m124.25,44.96999a1.92,1.92 0 0 1 -1.44,-0.54a2,2 0 0 1 -0.52,-1.48a2.25,2.25 0 0 1 0.48,-1.52a1.66,1.66 0 0 1 1.33,-0.55a1.63,1.63 0 0 1 1.23,0.47a1.83,1.83 0 0 1 0.45,1.31l0,0.45l-2.63,0a1.35,1.35 0 0 0 0.31,0.88a1.08,1.08 0 0 0 0.83,0.31a3.34,3.34 0 0 0 0.65,-0.06a4.16,4.16 0 0 0 0.65,-0.22l0,0.68a2.52,2.52 0 0 1 -0.62,0.21a3.88,3.88 0 0 1 -0.72,0.06zm-0.15,-3.43a0.84,0.84 0 0 0 -0.64,0.26a1.19,1.19 0 0 0 -0.29,0.73l1.79,0a1.09,1.09 0 0 0 -0.24,-0.74a0.82,0.82 0 0 0 -0.62,-0.25z" class="a"/>
  <path id="svg_85" fill="#fff" d="m129.39,43.76999a1,1 0 0 1 -0.42,0.89a2.08,2.08 0 0 1 -1.21,0.31a2.85,2.85 0 0 1 -1.27,-0.24l0,-0.73a3.06,3.06 0 0 0 1.3,0.32c0.52,0 0.77,-0.15 0.77,-0.46a0.39,0.39 0 0 0 -0.08,-0.25a1,1 0 0 0 -0.28,-0.21a5.46,5.46 0 0 0 -0.55,-0.24a2.54,2.54 0 0 1 -0.92,-0.53a1,1 0 0 1 -0.24,-0.69a0.87,0.87 0 0 1 0.41,-0.78a1.9,1.9 0 0 1 1.11,-0.28a3.08,3.08 0 0 1 1.31,0.28l-0.27,0.63a2.79,2.79 0 0 0 -1.07,-0.26c-0.44,0 -0.67,0.12 -0.67,0.38a0.38,0.38 0 0 0 0.18,0.31a3.89,3.89 0 0 0 0.75,0.35a3.31,3.31 0 0 1 0.71,0.35a0.94,0.94 0 0 1 0.33,0.36a1.07,1.07 0 0 1 0.11,0.49z" class="a"/>
  <path id="svg_86" fill="#fff" d="m107.48,53.65999l-0.52,-1.44l-2,0l-0.51,1.44l-0.9,0l1.95,-5.23l0.93,0l2,5.23l-0.95,0zm-0.74,-2.18l-0.49,-1.42a3.81,3.81 0 0 1 -0.15,-0.45c-0.06,-0.2 -0.11,-0.35 -0.13,-0.45a8.15,8.15 0 0 1 -0.28,1l-0.47,1.36l1.52,-0.04z" class="a"/>
  <path id="svg_87" fill="#fff" d="m112.53,50.02999a1.54,1.54 0 0 1 -0.53,1.25a2.38,2.38 0 0 1 -1.53,0.43l-0.54,0l0,2l-0.85,0l0,-5.21l1.5,0a2.28,2.28 0 0 1 1.47,0.4a1.44,1.44 0 0 1 0.48,1.13zm-2.6,1l0.45,0a1.67,1.67 0 0 0 1,-0.23a0.84,0.84 0 0 0 0.3,-0.72a0.82,0.82 0 0 0 -0.27,-0.67a1.41,1.41 0 0 0 -0.86,-0.22l-0.59,0l-0.03,1.84z" class="a"/>
  <path id="svg_88" fill="#fff" d="m113.57,53.65999l0,-5.21l0.86,0l0,5.21l-0.86,0z" class="a"/>
  <polygon id="svg_89" fill="#cccccc" points="30.32 173.65 33.98 168.75 30.62 168.75 30.62 146 30.01 146 30.01 168.75 26.65 168.75 30.32 173.65" class="b"/>
  <rect id="svg_90" fill="#0000ff" height="24.36" width="43.31" y="179.1" x="8.66" class="c"/>
  <path id="svg_91" fill="#fff" d="m25.92,189.93999a1.54,1.54 0 0 1 -0.53,1.25a2.38,2.38 0 0 1 -1.53,0.44l-0.54,0l0,2l-0.85,0l0,-5.22l1.5,0a2.29,2.29 0 0 1 1.46,0.4a1.43,1.43 0 0 1 0.49,1.13zm-2.6,1l0.48,0a1.67,1.67 0 0 0 1,-0.23a0.83,0.83 0 0 0 0.3,-0.71a0.8,0.8 0 0 0 -0.27,-0.67a1.34,1.34 0 0 0 -0.86,-0.22l-0.59,0l-0.06,1.83z" class="a"/>
  <path id="svg_92" fill="#fff" d="m30.37,191.59999a2.16,2.16 0 0 1 -0.49,1.51a1.78,1.78 0 0 1 -1.38,0.54a1.86,1.86 0 0 1 -1,-0.25a1.63,1.63 0 0 1 -0.65,-0.72a2.32,2.32 0 0 1 -0.23,-1.08a2.14,2.14 0 0 1 0.49,-1.5a1.79,1.79 0 0 1 1.39,-0.54a1.75,1.75 0 0 1 1.35,0.55a2.12,2.12 0 0 1 0.52,1.49zm-2.87,0c0,0.91 0.34,1.37 1,1.37s1,-0.46 1,-1.37s-0.33,-1.35 -1,-1.35a0.84,0.84 0 0 0 -0.76,0.35a1.74,1.74 0 0 0 -0.24,1z" class="a"/>
  <path id="svg_93" fill="#fff" d="m32.67,193.64999a1.38,1.38 0 0 1 -1.15,-0.53a2.92,2.92 0 0 1 0,-3a1.39,1.39 0 0 1 1.16,-0.54a1.35,1.35 0 0 1 1.19,0.58l0,0a5.21,5.21 0 0 1 -0.06,-0.68l0,-1.43l0.84,0l0,5.49l-0.65,0l-0.15,-0.52l0,0a1.35,1.35 0 0 1 -1.18,0.63zm0.22,-0.68a0.91,0.91 0 0 0 0.76,-0.29a1.61,1.61 0 0 0 0.24,-0.94l0,-0.12a1.78,1.78 0 0 0 -0.24,-1.06a0.9,0.9 0 0 0 -0.76,-0.31a0.76,0.76 0 0 0 -0.68,0.35a1.85,1.85 0 0 0 -0.24,1a1.76,1.76 0 0 0 0.23,1a0.76,0.76 0 0 0 0.69,0.37z" class="a"/>
  <path id="svg_94" fill="#fff" d="m38.54,192.45999a1,1 0 0 1 -0.42,0.88a2,2 0 0 1 -1.2,0.31a2.85,2.85 0 0 1 -1.27,-0.24l0,-0.72a3.13,3.13 0 0 0 1.29,0.32c0.52,0 0.78,-0.16 0.78,-0.47a0.37,0.37 0 0 0 -0.09,-0.25a1,1 0 0 0 -0.28,-0.21a4.6,4.6 0 0 0 -0.55,-0.24a2.54,2.54 0 0 1 -0.92,-0.53a1,1 0 0 1 -0.24,-0.68a0.91,0.91 0 0 1 0.41,-0.79a1.9,1.9 0 0 1 1.11,-0.28a3.29,3.29 0 0 1 1.32,0.28l-0.27,0.63a3.09,3.09 0 0 0 -1.08,-0.26c-0.44,0 -0.66,0.13 -0.66,0.38a0.38,0.38 0 0 0 0.17,0.31a3.63,3.63 0 0 0 0.76,0.36a3.65,3.65 0 0 1 0.71,0.34a1.39,1.39 0 0 1 0.33,0.36a1.09,1.09 0 0 1 0.1,0.5z" class="a"/>
  <rect id="svg_95" fill="#0000ff" height="34.1" width="60.63" y="106.44" class="c"/>
  <path id="svg_96" fill="#fff" d="m17.4,121.45999a1.4,1.4 0 0 0 -1.16,0.52a2.21,2.21 0 0 0 -0.42,1.44a2.24,2.24 0 0 0 0.41,1.45a1.42,1.42 0 0 0 1.17,0.49a2.67,2.67 0 0 0 0.64,-0.07a6.28,6.28 0 0 0 0.65,-0.17l0,0.74a4.05,4.05 0 0 1 -1.39,0.23a2.2,2.2 0 0 1 -1.76,-0.7a2.88,2.88 0 0 1 -0.62,-2a3.23,3.23 0 0 1 0.3,-1.43a2.21,2.21 0 0 1 0.86,-0.93a2.6,2.6 0 0 1 1.33,-0.33a3.31,3.31 0 0 1 1.47,0.34l-0.3,0.71a4.66,4.66 0 0 0 -0.56,-0.22a2.11,2.11 0 0 0 -0.62,-0.07z" class="a"/>
  <path id="svg_97" fill="#fff" d="m21.72,121.99999a2.42,2.42 0 0 1 0.42,0l-0.08,0.79a1.5,1.5 0 0 0 -0.37,0a1.08,1.08 0 0 0 -0.82,0.33a1.22,1.22 0 0 0 -0.31,0.85l0,2.07l-0.84,0l0,-4l0.66,0l0.11,0.7l0,0a1.46,1.46 0 0 1 0.51,-0.56a1.23,1.23 0 0 1 0.72,-0.18z" class="a"/>
  <path id="svg_98" fill="#fff" d="m26.37,124.03999a2.18,2.18 0 0 1 -0.49,1.51a1.78,1.78 0 0 1 -1.38,0.54a2,2 0 0 1 -1,-0.25a1.68,1.68 0 0 1 -0.65,-0.72a2.32,2.32 0 0 1 -0.23,-1.08a2.14,2.14 0 0 1 0.49,-1.5a1.79,1.79 0 0 1 1.39,-0.54a1.71,1.71 0 0 1 1.35,0.55a2.1,2.1 0 0 1 0.52,1.49zm-2.87,0c0,0.91 0.34,1.36 1,1.36s1,-0.45 1,-1.36s-0.33,-1.36 -1,-1.36a0.86,0.86 0 0 0 -0.76,0.35a1.8,1.8 0 0 0 -0.24,1.01z" class="a"/>
  <path id="svg_99" fill="#fff" d="m30.8,126.01999l-0.84,0l0,-2.43a1,1 0 0 0 -0.19,-0.68a0.7,0.7 0 0 0 -0.58,-0.23a1,1 0 0 0 -0.78,0.32a1.77,1.77 0 0 0 -0.24,1.05l0,2l-0.84,0l0,-4l0.65,0l0.12,0.52l0,0a1.16,1.16 0 0 1 0.51,-0.44a1.73,1.73 0 0 1 0.73,-0.15a1.26,1.26 0 0 1 1.46,1.46l0,2.58z" class="a"/>
  <path id="svg_100" fill="#fff" d="m31.41,127.46999a1.66,1.66 0 0 1 -0.59,-0.09l0,-0.71a2.13,2.13 0 0 0 0.52,0.07c0.47,0 0.7,-0.29 0.7,-0.88l0,-5.06l0.86,0l0,5a1.78,1.78 0 0 1 -0.38,1.22a1.44,1.44 0 0 1 -1.11,0.45z" class="a"/>
  <path id="svg_101" fill="#fff" d="m37.66,124.03999a2.18,2.18 0 0 1 -0.49,1.51a1.82,1.82 0 0 1 -1.39,0.54a1.94,1.94 0 0 1 -1,-0.25a1.71,1.71 0 0 1 -0.66,-0.72a2.45,2.45 0 0 1 -0.23,-1.08a2.14,2.14 0 0 1 0.5,-1.5a1.79,1.79 0 0 1 1.39,-0.54a1.71,1.71 0 0 1 1.35,0.55a2.15,2.15 0 0 1 0.53,1.49zm-2.87,0c0,0.91 0.34,1.36 1,1.36s1,-0.45 1,-1.36s-0.34,-1.36 -1,-1.36a0.85,0.85 0 0 0 -0.76,0.35a1.8,1.8 0 0 0 -0.23,1.01l-0.01,0z" class="a"/>
  <path id="svg_102" fill="#fff" d="m40.64,121.99999a1.38,1.38 0 0 1 1.16,0.54a2.4,2.4 0 0 1 0.41,1.51a2.49,2.49 0 0 1 -0.41,1.49a1.53,1.53 0 0 1 -2.33,0l0,0l-0.16,0.47l-0.63,0l0,-5.56l0.84,0l0,1.32c0,0.1 0,0.25 0,0.44s0,0.32 0,0.37l0,0a1.35,1.35 0 0 1 1.12,-0.58zm-0.22,0.68a0.86,0.86 0 0 0 -0.73,0.3a1.77,1.77 0 0 0 -0.23,1l0,0.06a1.86,1.86 0 0 0 0.23,1a0.86,0.86 0 0 0 0.75,0.32a0.74,0.74 0 0 0 0.67,-0.35a1.84,1.84 0 0 0 0.23,-1c0,-0.88 -0.3,-1.33 -0.92,-1.33z" class="a"/>
  <path id="svg_103" fill="#fff" d="m45.8,124.88999a1,1 0 0 1 -0.42,0.89a2,2 0 0 1 -1.21,0.31a2.8,2.8 0 0 1 -1.26,-0.24l0,-0.73a3,3 0 0 0 1.29,0.33c0.52,0 0.78,-0.16 0.78,-0.47a0.35,0.35 0 0 0 -0.09,-0.25a1,1 0 0 0 -0.28,-0.21a5.46,5.46 0 0 0 -0.55,-0.24a2.54,2.54 0 0 1 -0.92,-0.53a1,1 0 0 1 -0.24,-0.68a0.89,0.89 0 0 1 0.41,-0.79a1.9,1.9 0 0 1 1.11,-0.28a3.08,3.08 0 0 1 1.31,0.28l-0.27,0.63a3,3 0 0 0 -1.07,-0.26c-0.44,0 -0.66,0.12 -0.66,0.38a0.37,0.37 0 0 0 0.17,0.31a3.6,3.6 0 0 0 0.75,0.35a3.08,3.08 0 0 1 0.71,0.35a0.94,0.94 0 0 1 0.33,0.36a1.07,1.07 0 0 1 0.11,0.49z" class="a"/>
  <polygon id="svg_104" fill="#cccccc" points="109.34 173.65 113.01 168.75 109.64 168.75 109.64 146 109.03 146 109.03 168.75 105.67 168.75 109.34 173.65" class="b"/>
  <rect id="svg_105" fill="#0000ff" height="24.36" width="43.31" y="179.1" x="87.68" class="c"/>
  <path id="svg_106" fill="#fff" d="m104.94,189.93999a1.51,1.51 0 0 1 -0.53,1.25a2.37,2.37 0 0 1 -1.52,0.44l-0.55,0l0,2l-0.85,0l0,-5.22l1.5,0a2.34,2.34 0 0 1 1.47,0.4a1.45,1.45 0 0 1 0.48,1.13zm-2.6,1l0.46,0a1.66,1.66 0 0 0 1,-0.23a0.84,0.84 0 0 0 0.31,-0.71a0.81,0.81 0 0 0 -0.28,-0.67a1.33,1.33 0 0 0 -0.85,-0.22l-0.6,0l-0.04,1.83z" class="a"/>
  <path id="svg_107" fill="#fff" d="m109.4,191.59999a2.17,2.17 0 0 1 -0.5,1.51a1.78,1.78 0 0 1 -1.38,0.54a1.88,1.88 0 0 1 -1,-0.25a1.63,1.63 0 0 1 -0.65,-0.72a2.45,2.45 0 0 1 -0.23,-1.08a2.18,2.18 0 0 1 0.49,-1.5a1.8,1.8 0 0 1 1.39,-0.54a1.77,1.77 0 0 1 1.36,0.55a2.16,2.16 0 0 1 0.52,1.49zm-2.87,0c0,0.91 0.33,1.37 1,1.37s1,-0.46 1,-1.37s-0.33,-1.35 -1,-1.35a0.86,0.86 0 0 0 -0.77,0.35a1.74,1.74 0 0 0 -0.23,1z" class="a"/>
  <path id="svg_108" fill="#fff" d="m111.69,193.64999a1.39,1.39 0 0 1 -1.15,-0.53a3,3 0 0 1 0,-3a1.37,1.37 0 0 1 1.16,-0.54a1.34,1.34 0 0 1 1.18,0.58l0,0a5.21,5.21 0 0 1 -0.06,-0.68l0,-1.43l0.85,0l0,5.49l-0.66,0l-0.15,-0.52l0,0a1.35,1.35 0 0 1 -1.17,0.63zm0.23,-0.68a0.9,0.9 0 0 0 0.75,-0.29a1.47,1.47 0 0 0 0.24,-0.94l0,-0.12a1.78,1.78 0 0 0 -0.24,-1.06a0.89,0.89 0 0 0 -0.76,-0.31a0.78,0.78 0 0 0 -0.68,0.35a2.31,2.31 0 0 0 0,2a0.79,0.79 0 0 0 0.69,0.37z" class="a"/>
  <path id="svg_109" fill="#fff" d="m117.57,192.45999a1,1 0 0 1 -0.43,0.88a2,2 0 0 1 -1.2,0.31a2.85,2.85 0 0 1 -1.27,-0.24l0,-0.72a3.21,3.21 0 0 0 1.3,0.32c0.51,0 0.77,-0.16 0.77,-0.47a0.41,0.41 0 0 0 -0.08,-0.25a1.08,1.08 0 0 0 -0.29,-0.21a5.13,5.13 0 0 0 -0.54,-0.24a2.45,2.45 0 0 1 -0.92,-0.53a1,1 0 0 1 -0.25,-0.68a0.91,0.91 0 0 1 0.41,-0.79a1.94,1.94 0 0 1 1.11,-0.28a3.25,3.25 0 0 1 1.32,0.28l-0.27,0.63a3,3 0 0 0 -1.07,-0.26c-0.45,0 -0.67,0.13 -0.67,0.38a0.37,0.37 0 0 0 0.18,0.31a3.24,3.24 0 0 0 0.75,0.36a3.38,3.38 0 0 1 0.71,0.34a1.11,1.11 0 0 1 0.33,0.36a1.09,1.09 0 0 1 0.11,0.5z" class="a"/>
  <rect id="svg_110" fill="#0000ff" height="34.1" width="60.63" y="106.44" x="79.02" class="c"/>
  <path id="svg_111" fill="#fff" d="m90.86,123.35999a2.58,2.58 0 0 1 -0.72,2a2.83,2.83 0 0 1 -2.06,0.69l-1.46,0l0,-5.22l1.61,0a2.66,2.66 0 0 1 1.94,0.67a2.52,2.52 0 0 1 0.69,1.86zm-0.9,0c0,-1.25 -0.58,-1.88 -1.75,-1.88l-0.74,0l0,3.79l0.61,0a1.68,1.68 0 0 0 1.88,-1.88l0,-0.03z" class="a"/>
  <path id="svg_112" fill="#fff" d="m93.62,126.08999a1.89,1.89 0 0 1 -1.44,-0.54a2,2 0 0 1 -0.52,-1.48a2.25,2.25 0 0 1 0.48,-1.52a1.86,1.86 0 0 1 2.56,-0.08a1.83,1.83 0 0 1 0.45,1.31l0,0.45l-2.63,0a1.33,1.33 0 0 0 0.31,0.89a1.11,1.11 0 0 0 0.83,0.3a3.34,3.34 0 0 0 0.65,-0.06a4.06,4.06 0 0 0 0.64,-0.22l0,0.68a2.39,2.39 0 0 1 -0.62,0.21a3.84,3.84 0 0 1 -0.71,0.06zm-0.16,-3.46a0.85,0.85 0 0 0 -0.64,0.26a1.26,1.26 0 0 0 -0.29,0.74l1.8,0a1.11,1.11 0 0 0 -0.24,-0.74a0.8,0.8 0 0 0 -0.63,-0.26z" class="a"/>
  <path id="svg_113" fill="#fff" d="m98.11,126.08999a1.4,1.4 0 0 1 -1.17,-0.54l0,0a5.81,5.81 0 0 1 0,0.61l0,1.61l-0.84,0l0,-5.7l0.7,0c0,0.07 0.06,0.25 0.12,0.53l0,0a1.32,1.32 0 0 1 1.18,-0.6a1.38,1.38 0 0 1 1.15,0.53a2.4,2.4 0 0 1 0.41,1.51a2.44,2.44 0 0 1 -0.42,1.51a1.37,1.37 0 0 1 -1.13,0.54zm-0.21,-3.41a0.87,0.87 0 0 0 -0.73,0.3a1.51,1.51 0 0 0 -0.23,0.93l0,0.13a1.86,1.86 0 0 0 0.23,1a0.86,0.86 0 0 0 0.75,0.32a0.77,0.77 0 0 0 0.67,-0.35a1.93,1.93 0 0 0 0.23,-1a1.86,1.86 0 0 0 -0.23,-1a0.81,0.81 0 0 0 -0.69,-0.33z" class="a"/>
  <path id="svg_114" fill="#fff" d="m101.5,126.01999l-0.84,0l0,-5.56l0.84,0l0,5.56z" class="a"/>
  <path id="svg_115" fill="#fff" d="m106.2,124.03999a2.18,2.18 0 0 1 -0.5,1.51a1.78,1.78 0 0 1 -1.38,0.54a2,2 0 0 1 -1,-0.25a1.68,1.68 0 0 1 -0.65,-0.72a2.32,2.32 0 0 1 -0.23,-1.08a2.14,2.14 0 0 1 0.49,-1.5a1.79,1.79 0 0 1 1.39,-0.54a1.75,1.75 0 0 1 1.36,0.55a2.15,2.15 0 0 1 0.52,1.49zm-2.88,0c0,0.91 0.34,1.36 1,1.36s1,-0.45 1,-1.36s-0.33,-1.36 -1,-1.36a0.87,0.87 0 0 0 -0.77,0.35a1.8,1.8 0 0 0 -0.23,1.01z" class="a"/>
  <path id="svg_116" fill="#fff" d="m106.56,122.06999l0.91,0l0.81,2.24a4.32,4.32 0 0 1 0.24,0.9l0,0c0,-0.13 0.06,-0.29 0.11,-0.48s0.36,-1.07 0.91,-2.66l0.91,0l-1.65,4.47a1.61,1.61 0 0 1 -1.54,1.23a2.48,2.48 0 0 1 -0.54,-0.06l0,-0.66a1.91,1.91 0 0 0 0.43,0a0.89,0.89 0 0 0 0.86,-0.7l0.14,-0.37l-1.59,-3.91z" class="a"/>
  <path id="svg_117" fill="#fff" d="m114.4,126.01999l-0.84,0l0,-2.48a1.12,1.12 0 0 0 -0.17,-0.67a0.64,0.64 0 0 0 -0.54,-0.23a0.82,0.82 0 0 0 -0.71,0.32a1.85,1.85 0 0 0 -0.23,1.05l0,2l-0.83,0l0,-4l0.65,0l0.12,0.52l0,0a1.08,1.08 0 0 1 0.48,-0.44a1.58,1.58 0 0 1 0.69,-0.15a1.2,1.2 0 0 1 1.2,0.62l0.06,0a1.21,1.21 0 0 1 0.49,-0.46a1.57,1.57 0 0 1 0.73,-0.16a1.33,1.33 0 0 1 1,0.36a1.53,1.53 0 0 1 0.32,1.08l0,2.58l-0.84,0l0,-2.42a1.05,1.05 0 0 0 -0.17,-0.67a0.63,0.63 0 0 0 -0.54,-0.23a0.84,0.84 0 0 0 -0.71,0.31a1.56,1.56 0 0 0 -0.23,0.94l0.07,2.13z" class="a"/>
  <path id="svg_118" fill="#fff" d="m119.8,126.08999a1.89,1.89 0 0 1 -1.44,-0.54a2,2 0 0 1 -0.52,-1.48a2.25,2.25 0 0 1 0.48,-1.52a1.86,1.86 0 0 1 2.56,-0.08a1.83,1.83 0 0 1 0.45,1.31l0,0.45l-2.63,0a1.33,1.33 0 0 0 0.31,0.89a1.11,1.11 0 0 0 0.83,0.3a3.34,3.34 0 0 0 0.65,-0.06a4.54,4.54 0 0 0 0.65,-0.22l0,0.68a2.59,2.59 0 0 1 -0.63,0.21a3.69,3.69 0 0 1 -0.71,0.06zm-0.16,-3.46a0.85,0.85 0 0 0 -0.64,0.26a1.19,1.19 0 0 0 -0.28,0.74l1.79,0a1.11,1.11 0 0 0 -0.24,-0.74a0.8,0.8 0 0 0 -0.64,-0.26l0.01,0z" class="a"/>
  <path id="svg_119" fill="#fff" d="m125.8,126.01999l-0.85,0l0,-2.43a1.08,1.08 0 0 0 -0.18,-0.68a0.71,0.71 0 0 0 -0.58,-0.23a0.92,0.92 0 0 0 -0.78,0.32a1.69,1.69 0 0 0 -0.25,1.05l0,2l-0.84,0l0,-4l0.66,0l0.12,0.52l0,0a1.16,1.16 0 0 1 0.51,-0.44a1.73,1.73 0 0 1 0.73,-0.15a1.27,1.27 0 0 1 1.46,1.46l0,2.58z" class="a"/>
  <path id="svg_120" fill="#fff" d="m128.38,125.40999a1.91,1.91 0 0 0 0.62,-0.1l0,0.64a2.28,2.28 0 0 1 -0.36,0.1a3.42,3.42 0 0 1 -0.46,0c-0.79,0 -1.19,-0.42 -1.19,-1.26l0,-2.12l-0.54,0l0,-0.38l0.58,-0.3l0.29,-0.84l0.48,0l0,0.88l1.13,0l0,0.64l-1.13,0l0,2.11a0.58,0.58 0 0 0 0.16,0.45a0.56,0.56 0 0 0 0.42,0.18z" class="a"/>
  <path id="svg_121" fill="#fff" d="m132.44,124.88999a1,1 0 0 1 -0.42,0.89a2,2 0 0 1 -1.21,0.31a2.85,2.85 0 0 1 -1.27,-0.24l0,-0.73a3.08,3.08 0 0 0 1.3,0.33c0.51,0 0.77,-0.16 0.77,-0.47a0.39,0.39 0 0 0 -0.08,-0.25a1,1 0 0 0 -0.28,-0.21c-0.14,-0.07 -0.32,-0.15 -0.55,-0.24a2.45,2.45 0 0 1 -0.92,-0.53a1,1 0 0 1 -0.24,-0.68a0.9,0.9 0 0 1 0.4,-0.79a2,2 0 0 1 1.12,-0.28a3.08,3.08 0 0 1 1.31,0.28l-0.27,0.63a3,3 0 0 0 -1.07,-0.26c-0.44,0 -0.67,0.12 -0.67,0.38a0.38,0.38 0 0 0 0.18,0.31a3.35,3.35 0 0 0 0.75,0.35a3.31,3.31 0 0 1 0.71,0.35a0.94,0.94 0 0 1 0.33,0.36a1.07,1.07 0 0 1 0.11,0.49z" class="a"/>
  <polygon id="svg_122" fill="#cccccc" points="188.36 173.65 192.03 168.75 188.67 168.75 188.67 146 188.06 146 188.06 168.75 184.69 168.75 188.36 173.65" class="b"/>
  <rect id="svg_123" fill="#0000ff" height="24.36" width="43.31" y="179.1" x="166.71" class="c"/>
  <path id="svg_124" fill="#fff" d="m183.97,189.93999a1.52,1.52 0 0 1 -0.54,1.25a2.33,2.33 0 0 1 -1.52,0.44l-0.54,0l0,2l-0.86,0l0,-5.22l1.51,0a2.29,2.29 0 0 1 1.46,0.4a1.43,1.43 0 0 1 0.49,1.13zm-2.6,1l0.43,0a1.61,1.61 0 0 0 1,-0.23a0.81,0.81 0 0 0 0.31,-0.71a0.8,0.8 0 0 0 -0.27,-0.67a1.36,1.36 0 0 0 -0.86,-0.22l-0.59,0l-0.02,1.83z" class="a"/>
  <path id="svg_125" fill="#fff" d="m188.42,191.59999a2.12,2.12 0 0 1 -0.5,1.51a1.78,1.78 0 0 1 -1.38,0.54a1.85,1.85 0 0 1 -1,-0.25a1.65,1.65 0 0 1 -0.66,-0.72a2.45,2.45 0 0 1 -0.23,-1.08a2.14,2.14 0 0 1 0.5,-1.5a1.79,1.79 0 0 1 1.39,-0.54a1.75,1.75 0 0 1 1.35,0.55a2.16,2.16 0 0 1 0.53,1.49zm-2.87,0c0,0.91 0.33,1.37 1,1.37s1,-0.46 1,-1.37s-0.34,-1.35 -1,-1.35a0.83,0.83 0 0 0 -0.76,0.35a1.74,1.74 0 0 0 -0.24,1z" class="a"/>
  <path id="svg_126" fill="#fff" d="m190.72,193.64999a1.4,1.4 0 0 1 -1.16,-0.53a2.46,2.46 0 0 1 -0.41,-1.51a2.42,2.42 0 0 1 0.42,-1.51a1.39,1.39 0 0 1 1.16,-0.54a1.34,1.34 0 0 1 1.18,0.58l0,0a5.21,5.21 0 0 1 -0.06,-0.68l0,-1.43l0.84,0l0,5.51l-0.66,0l-0.14,-0.52l0,0a1.36,1.36 0 0 1 -1.17,0.63zm0.22,-0.68a0.87,0.87 0 0 0 0.75,-0.29a1.53,1.53 0 0 0 0.25,-0.94l0,-0.12a1.7,1.7 0 0 0 -0.25,-1.06a0.89,0.89 0 0 0 -0.76,-0.31a0.79,0.79 0 0 0 -0.68,0.35a2.31,2.31 0 0 0 0,2a0.79,0.79 0 0 0 0.69,0.37z" class="a"/>
  <path id="svg_127" fill="#fff" d="m196.59,192.45999a1,1 0 0 1 -0.42,0.88a2,2 0 0 1 -1.21,0.31a2.8,2.8 0 0 1 -1.26,-0.24l0,-0.72a3.13,3.13 0 0 0 1.29,0.32c0.52,0 0.78,-0.16 0.78,-0.47a0.37,0.37 0 0 0 -0.09,-0.25a1.19,1.19 0 0 0 -0.28,-0.21a5.46,5.46 0 0 0 -0.55,-0.24a2.54,2.54 0 0 1 -0.92,-0.53a1,1 0 0 1 -0.24,-0.68a0.89,0.89 0 0 1 0.41,-0.79a1.9,1.9 0 0 1 1.11,-0.28a3.33,3.33 0 0 1 1.32,0.28l-0.28,0.63a3,3 0 0 0 -1.07,-0.26c-0.44,0 -0.66,0.13 -0.66,0.38a0.36,0.36 0 0 0 0.17,0.31a3.47,3.47 0 0 0 0.75,0.36a3.14,3.14 0 0 1 0.71,0.34a1.11,1.11 0 0 1 0.33,0.36a1.09,1.09 0 0 1 0.11,0.5z" class="a"/>
  <rect id="svg_128" fill="#0000ff" height="34.1" width="60.63" y="106.44" x="158.05" class="c"/>
  <path id="svg_129" fill="#fff" d="m178.29,120.20999a1.29,1.29 0 0 1 -0.51,1.09a2.12,2.12 0 0 1 -1.38,0.4a3.35,3.35 0 0 1 -1.45,-0.27l0,-0.81a3.58,3.58 0 0 0 0.76,0.26a2.85,2.85 0 0 0 0.74,0.1a1.18,1.18 0 0 0 0.75,-0.19a0.63,0.63 0 0 0 0.24,-0.52a0.66,0.66 0 0 0 -0.22,-0.5a3.69,3.69 0 0 0 -0.91,-0.48a2.39,2.39 0 0 1 -1,-0.66a1.42,1.42 0 0 1 -0.29,-0.89a1.24,1.24 0 0 1 0.46,-1a1.94,1.94 0 0 1 1.25,-0.37a3.65,3.65 0 0 1 1.49,0.33l-0.27,0.69a3.38,3.38 0 0 0 -1.24,-0.29a1,1 0 0 0 -0.63,0.18a0.58,0.58 0 0 0 -0.22,0.48a0.62,0.62 0 0 0 0.09,0.34a0.93,0.93 0 0 0 0.28,0.28a5.42,5.42 0 0 0 0.71,0.34a3.92,3.92 0 0 1 0.84,0.44a1.29,1.29 0 0 1 0.52,1.08l-0.01,-0.03z" class="a"/>
  <path id="svg_130" fill="#fff" d="m180.68,121.01999a2.15,2.15 0 0 0 0.61,-0.09l0,0.61a1.79,1.79 0 0 1 -0.36,0.1a2.22,2.22 0 0 1 -0.45,0c-0.8,0 -1.19,-0.42 -1.19,-1.25l0,-2.13l-0.49,0l0,-0.37l0.58,-0.31l0.28,-0.83l0.52,0l0,0.87l1.12,0l0,0.64l-1.12,0l0,2.11a0.61,0.61 0 0 0 0.15,0.45a0.57,0.57 0 0 0 0.35,0.2z" class="a"/>
  <path id="svg_131" fill="#fff" d="m184.55,121.62999l-0.17,-0.55l0,0a1.66,1.66 0 0 1 -0.57,0.49a1.75,1.75 0 0 1 -0.74,0.13a1.26,1.26 0 0 1 -0.91,-0.31a1.18,1.18 0 0 1 -0.36,-0.85a1,1 0 0 1 0.46,-0.92a2.58,2.58 0 0 1 1.38,-0.34l0.68,0l0,-0.21a0.8,0.8 0 0 0 -0.18,-0.57a0.75,0.75 0 0 0 -0.55,-0.19a1.9,1.9 0 0 0 -0.58,0.09a4.87,4.87 0 0 0 -0.53,0.21l-0.27,-0.6a2.89,2.89 0 0 1 0.7,-0.25a3.08,3.08 0 0 1 0.72,-0.09a1.72,1.72 0 0 1 1.14,0.33a1.3,1.3 0 0 1 0.38,1l0,2.66l-0.6,-0.03zm-1.25,-0.57a1,1 0 0 0 0.73,-0.26a0.89,0.89 0 0 0 0.28,-0.71l0,-0.34l-0.51,0a1.79,1.79 0 0 0 -0.86,0.19a0.61,0.61 0 0 0 -0.27,0.55a0.49,0.49 0 0 0 0.16,0.4a0.65,0.65 0 0 0 0.47,0.17z" class="a"/>
  <path id="svg_132" fill="#fff" d="m187.8,121.01999a2.15,2.15 0 0 0 0.61,-0.09l0,0.61a1.79,1.79 0 0 1 -0.36,0.1a2.15,2.15 0 0 1 -0.45,0c-0.79,0 -1.19,-0.42 -1.19,-1.25l0,-2.13l-0.54,0l0,-0.37l0.58,-0.31l0.28,-0.83l0.52,0l0,0.87l1.12,0l0,0.64l-1.12,0l0,2.11a0.61,0.61 0 0 0 0.15,0.45a0.59,0.59 0 0 0 0.4,0.2z" class="a"/>
  <path id="svg_133" fill="#fff" d="m190.92,121.69999a1.89,1.89 0 0 1 -1.44,-0.54a2,2 0 0 1 -0.52,-1.47a2.26,2.26 0 0 1 0.48,-1.53a1.68,1.68 0 0 1 1.32,-0.55a1.64,1.64 0 0 1 1.24,0.48a1.8,1.8 0 0 1 0.45,1.3l0,0.46l-2.65,0a1.32,1.32 0 0 0 0.31,0.88a1.11,1.11 0 0 0 0.82,0.31a2.78,2.78 0 0 0 0.66,-0.07a3.25,3.25 0 0 0 0.64,-0.22l0,0.68a2.39,2.39 0 0 1 -0.62,0.21a3.84,3.84 0 0 1 -0.69,0.06zm-0.16,-3.45a0.84,0.84 0 0 0 -0.64,0.25a1.22,1.22 0 0 0 -0.29,0.74l1.8,0a1.13,1.13 0 0 0 -0.24,-0.74a0.79,0.79 0 0 0 -0.59,-0.25l-0.04,0z" class="a"/>
  <path id="svg_134" fill="#fff" d="m195.38,118.31999l-1,0l0,3.31l-0.84,0l0,-3.31l-0.65,0l0,-0.39l0.65,-0.26l0,-0.26a1.46,1.46 0 0 1 0.33,-1a1.34,1.34 0 0 1 1,-0.33a2.93,2.93 0 0 1 0.87,0.14l-0.22,0.64a1.87,1.87 0 0 0 -0.59,-0.1a0.49,0.49 0 0 0 -0.42,0.18a0.84,0.84 0 0 0 -0.13,0.53l0,0.25l1,0l0,0.6z" class="a"/>
  <path id="svg_135" fill="#fff" d="m198.8,121.62999l-0.12,-0.52l0,0a1.17,1.17 0 0 1 -0.5,0.43a1.61,1.61 0 0 1 -0.74,0.16a1.44,1.44 0 0 1 -1.07,-0.36a1.48,1.48 0 0 1 -0.35,-1.08l0,-2.58l0.84,0l0,2.44a1.08,1.08 0 0 0 0.19,0.68a0.71,0.71 0 0 0 0.58,0.22a0.94,0.94 0 0 0 0.78,-0.31a1.8,1.8 0 0 0 0.24,-1.06l0,-2l0.85,0l0,3.95l-0.7,0.03z" class="a"/>
  <path id="svg_136" fill="#fff" d="m201.53,121.62999l-0.84,0l0,-5.55l0.84,0l0,5.55z" class="a"/>
  <path id="svg_137" fill="#fff" d="m184.73,128.97999a1.29,1.29 0 0 1 -0.51,1.09a2.12,2.12 0 0 1 -1.38,0.4a3.35,3.35 0 0 1 -1.45,-0.27l0,-0.81a3.78,3.78 0 0 0 0.76,0.26a2.85,2.85 0 0 0 0.74,0.1a1.18,1.18 0 0 0 0.75,-0.19a0.63,0.63 0 0 0 0.24,-0.52a0.65,0.65 0 0 0 -0.22,-0.5a3.69,3.69 0 0 0 -0.91,-0.48a2.39,2.39 0 0 1 -1,-0.66a1.42,1.42 0 0 1 -0.29,-0.89a1.24,1.24 0 0 1 0.46,-1a1.94,1.94 0 0 1 1.25,-0.37a3.65,3.65 0 0 1 1.49,0.33l-0.27,0.69a3.38,3.38 0 0 0 -1.24,-0.29a1,1 0 0 0 -0.63,0.18a0.61,0.61 0 0 0 -0.22,0.48a0.62,0.62 0 0 0 0.09,0.34a0.93,0.93 0 0 0 0.28,0.28a5.42,5.42 0 0 0 0.71,0.34a3.92,3.92 0 0 1 0.84,0.44a1.29,1.29 0 0 1 0.52,1.08l-0.01,-0.03z" class="a"/>
  <path id="svg_138" fill="#fff" d="m187.37,130.46999a1.92,1.92 0 0 1 -1.44,-0.54a2,2 0 0 1 -0.52,-1.47a2.26,2.26 0 0 1 0.48,-1.53a1.72,1.72 0 0 1 1.33,-0.55a1.6,1.6 0 0 1 1.23,0.48a1.77,1.77 0 0 1 0.46,1.3l0,0.46l-2.63,0a1.27,1.27 0 0 0 0.31,0.88a1.09,1.09 0 0 0 0.82,0.31a2.7,2.7 0 0 0 0.65,-0.07a3.32,3.32 0 0 0 0.65,-0.22l0,0.68a2.39,2.39 0 0 1 -0.62,0.21a3.88,3.88 0 0 1 -0.72,0.06zm-0.15,-3.45a0.83,0.83 0 0 0 -0.64,0.25a1.22,1.22 0 0 0 -0.29,0.74l1.79,0a1.07,1.07 0 0 0 -0.23,-0.74a0.81,0.81 0 0 0 -0.63,-0.25z" class="a"/>
  <path id="svg_139" fill="#fff" d="m191.33,129.78999a2.15,2.15 0 0 0 0.61,-0.09l0,0.63a1.79,1.79 0 0 1 -0.36,0.1a2.15,2.15 0 0 1 -0.45,0c-0.79,0 -1.19,-0.42 -1.19,-1.26l0,-2.12l-0.54,0l0,-0.37l0.58,-0.31l0.28,-0.83l0.54,0l0,0.87l1.12,0l0,0.64l-1.12,0l0,2.11a0.61,0.61 0 0 0 0.15,0.45a0.59,0.59 0 0 0 0.38,0.18z" class="a"/>
  <path id="svg_140" fill="#fff" d="m195.38,129.27999a1,1 0 0 1 -0.42,0.88a2,2 0 0 1 -1.2,0.31a2.85,2.85 0 0 1 -1.27,-0.24l0,-0.69a3.13,3.13 0 0 0 1.29,0.32c0.52,0 0.78,-0.16 0.78,-0.47a0.37,0.37 0 0 0 -0.09,-0.25a1,1 0 0 0 -0.28,-0.21a5.13,5.13 0 0 0 -0.54,-0.24a2.38,2.38 0 0 1 -0.93,-0.53a1,1 0 0 1 -0.24,-0.68a0.91,0.91 0 0 1 0.41,-0.79a1.9,1.9 0 0 1 1.11,-0.28a3.29,3.29 0 0 1 1.32,0.28l-0.27,0.63a3.09,3.09 0 0 0 -1.08,-0.26c-0.44,0 -0.66,0.13 -0.66,0.38a0.38,0.38 0 0 0 0.17,0.31a3.63,3.63 0 0 0 0.76,0.36a3.65,3.65 0 0 1 0.71,0.34a1.15,1.15 0 0 1 0.33,0.37a1,1 0 0 1 0.1,0.46z" class="a"/>
  <polygon id="svg_141" fill="#e5e5e5" points="188.67 95.95 188.67 84.42 109.64 84.42 109.64 73.2 113.01 73.2 109.34 68.31 105.67 73.2 109.03 73.2 109.03 84.42 30.01 84.42 30.01 95.95 26.65 95.95 30.32 100.84 33.98 95.95 30.62 95.95 30.62 85.03 109.03 85.03 109.03 95.95 105.67 95.95 109.34 100.84 113.01 95.95 109.64 95.95 109.64 85.03 188.06 85.03 188.06 95.95 184.69 95.95 188.36 100.84 192.03 95.95 188.67 95.95" class="b"/>
 </g>
</svg>